<?xml version="1.0" standalone="no"?>
<!DOCTYPE svg PUBLIC "-//W3C//DTD SVG 1.1//EN" "http://www.w3.org/Graphics/SVG/1.1/DTD/svg11.dtd" >
<svg xmlns="http://www.w3.org/2000/svg" xmlns:xlink="http://www.w3.org/1999/xlink" version="1.1">
<metadata>
Created by FontForge 20190801 at Thu Jun 28 08:11:05 2018
 By Jimmy Wärting
DmitriZdorov
</metadata>
<defs>
<font id="SlimamifMedium" horiz-adv-x="461" >
  <font-face 
    font-family="SlimamifMedium"
    font-weight="500"
    font-stretch="normal"
    units-per-em="1000"
    panose-1="2 0 6 3 0 0 0 0 0 0"
    ascent="800"
    descent="-200"
    x-height="493.5"
    cap-height="723"
    bbox="-228.846 -275.727 948.444 1155"
    underline-thickness="50"
    underline-position="-150"
    unicode-range="U+0020-FB06"
  />
<missing-glyph horiz-adv-x="364" 
d="M66 33h199v600h-199v-600zM33 0v666h265v-666h-265z" />
    <glyph glyph-name=".notdef" horiz-adv-x="364" 
d="M66 33h199v600h-199v-600zM33 0v666h265v-666h-265z" />
    <glyph glyph-name=".null" horiz-adv-x="0" 
 />
    <glyph glyph-name="nonmarkingreturn" horiz-adv-x="333" 
 />
    <glyph glyph-name="space" unicode=" " horiz-adv-x="300" 
 />
    <glyph glyph-name="exclam" unicode="!" horiz-adv-x="277" 
d="M126 13q3 2 7 5l6 6h-2q-9 -2 -10 -6q-1 -3 -1 -5zM145 60q15 1 25 -5q14 -9 10.5 -27t-24.5 -36q-23 -20 -42 -17q-17 3 -22 20q-3 12 1 30q3 16 16 25q8 6 21 8q4 1 11 2h4zM121 194q7 104 9 263q3 197 -9 244q-2 8 2 14t11 7.5t13 -2t8 -10.5q13 -52 10 -253
q-2 -160 -9 -265q-1 -7 -6.5 -12t-12.5 -4.5t-12 6t-4 12.5z" />
    <glyph glyph-name="quotedbl" unicode="&#x22;" horiz-adv-x="327" 
d="M118 699q-4 -38 -3 -92q0 -14 1 -42q2 -46 2 -70q0 -7 -5 -12t-12.5 -5t-12.5 5t-5 12q0 23 -2 68q-1 29 -1 44q-1 56 3 96q1 7 6.5 11.5t13 3.5t12 -6.5t3.5 -12.5zM223 702q1 -21 2 -55v-15q0 -1 0.5 -7t0.5 -7q2 -94 5 -118q1 -7 -3.5 -13t-11.5 -7t-13 3.5t-7 12.5
q-3 26 -5 121q0 1 -0.5 7t-0.5 8v14q-1 33 -2 55q0 7 5 12.5t12 5.5t12.5 -4.5t5.5 -12.5z" />
    <glyph glyph-name="numbersign" unicode="#" horiz-adv-x="410" 
d="M226 536q-29 4 -57 4q-16 1 -30 0q-3 -41 -6 -99q23 1 53 -2q14 -1 32 -3q5 53 8 100zM229 571q4 66 5 126q1 7 6 12t12.5 5t12.5 -5.5t4 -12.5q-1 -62 -6 -130q24 -4 40 -9q7 -2 10 -8.5t1 -13.5t-8.5 -10.5t-13.5 -0.5q-12 4 -31 7q-3 -47 -8 -100q25 -3 40 -5
q7 0 11.5 -6t4 -13t-6 -11.5t-12.5 -4.5q-15 2 -40 5l-2 -18q-6 -68 -20 -192q-13 -119 -18 -171q0 -7 -6 -11.5t-13 -3.5t-11.5 6.5t-4.5 12.5q6 52 18 171q14 124 20 191l2 20q-18 2 -32 3q-30 3 -52 2q-1 -11 -1 -23q-1 -4 -1 -12q-6 -122 -11 -183q-7 -102 -18 -183
q-1 -7 -6.5 -11.5t-13 -3.5t-12 7t-3.5 13q11 80 18 180q5 61 11 183q0 8 1 12v15q-17 -4 -32 -12q-6 -4 -13 -1.5t-10.5 8.5t-1.5 13t8 11q23 12 51 18q4 58 6 100q-33 -5 -48 -15q-6 -4 -13 -2.5t-11 7.5t-3 13t7 11q24 16 71 22q5 64 12 125q0 7 6 11.5t13 3.5t11.5 -6.5
t3.5 -12.5q-6 -58 -11 -119q14 1 29 0q29 0 59 -4z" />
    <glyph glyph-name="dollar" unicode="$" horiz-adv-x="478" 
d="M206 456q0 83 -1 145q-2 57 -5 101q-41 -3 -69 -23q-35 -25 -34 -68q0 -53 65 -116q15 -14 40 -36q1 -1 4 -3zM240 378v-10q-1 -25 -1 -70q-3 -161 -3 -225q1 -32 2 -58q39 10 69 45q64 73 27 176q-27 76 -94 142zM309 632q7 31 -21 50q-20 14 -53 19q3 -43 5 -100
q1 -71 0 -175q3 -3 6 -5q87 -78 121 -173q43 -122 -34 -211q-40 -46 -94 -57q2 -37 6 -59q1 -7 -3 -13t-11 -7t-13 3t-7 11q-5 24 -7 61q-50 1 -96 30q-51 33 -73 85q-24 56 2 107q3 7 10 9t13.5 -1t9 -10t-1.5 -14q-18 -36 -1 -78q18 -41 60 -68q36 -23 76 -25q-1 28 -2 62
q0 64 3 226q0 44 1 69v42l-4 4q-17 14 -22 19q-26 22 -41 37q-36 35 -54 64q-22 38 -22 77q-1 61 49 96q35 26 86 30q-2 23 -5 41q-2 7 2.5 13t11.5 7t13 -3t7 -11q4 -21 6 -48q46 -4 76 -25q47 -33 35 -86q-1 -7 -7 -11t-13 -2.5t-11 7.5t-3 13z" />
    <glyph glyph-name="percent" unicode="%" horiz-adv-x="647" 
d="M136 729q3 2 7 3q50 4 82 -38q26 -35 28 -87q2 -53 -22 -91q-30 -46 -83 -48q-52 -3 -78 39q-21 34 -19 86q3 49 25 87q24 41 60 49zM434 244q3 2 7 2q50 5 82 -37q27 -36 29 -88q2 -53 -23 -91q-29 -45 -83 -48q-52 -3 -78 39q-21 35 -19 86q3 49 25 87q24 41 60 50z
M448 724q-48 -114 -98 -254q-37 -102 -88 -259q-7 -21 -16 -50q-4 -9 -9 -24q0 -2 -2 -7l-2 -6l-4 -12q-28 -86 -44 -135q-2 -7 -8.5 -10.5t-13.5 -1t-10.5 9t-0.5 13.5q16 49 44 135l4 12v1l1 1v1l1 2v1v1l1 1v1l1 1v2q5 16 8 25q10 29 17 50q51 157 88 260q51 141 99 255
q3 7 9.5 9.5t13 0t9.5 -9.5t0 -13zM147 696q-23 -4 -41 -34.5t-20 -70.5q-2 -41 13.5 -65.5t46.5 -22.5q36 1 55 32q19 28 17 70q-1 42 -21 68q-18 24 -45 24q-3 -1 -5 -1zM445 210q-23 -3 -40.5 -33.5t-20.5 -71.5q-2 -40 13.5 -65t46.5 -23q36 2 56 32q18 29 17 71
q-2 41 -22 68q-18 24 -45 24q-3 -1 -5 -2z" />
    <glyph glyph-name="ampersand" unicode="&#x26;" horiz-adv-x="605" 
d="M155 460q-15 -17 -25 -35q-25 -39 -39.5 -93.5t-16.5 -109.5q-2 -129 64 -188q38 -33 67 -34q24 0 45 24q21 23 41 70q9 19 17 42q-38 60 -72 127q-53 105 -81 197zM174 532l3 4q35 36 51 56q25 32 37 61q9 22 -10 37q-20 16 -45 13q-7 -1 -10 -3q-50 -43 -26 -168z
M202 512v-1l-4 -4q-8 -9 -15 -16q26 -97 84 -212q27 -53 56 -101l4 12q1 1 4 11t4 12q30 86 50 123q33 61 75 67q29 4 45 -14q5 -5 4.5 -12.5t-6 -12t-13 -4.5t-12.5 6q-3 4 -13 3q-25 -4 -50 -50q-18 -34 -47 -117q-1 -3 -4 -12.5t-3 -10.5q-8 -23 -14 -39q26 -39 50 -68
q29 -35 47 -45q2 -1 3 -1q2 7 8 10t13 1q11 -3 13 -14v-1v-1v-1v-1v-1v-1l-1 -1q-5 -20 -22 -25q-14 -4 -31 6q-23 12 -57 53q-18 22 -38 50q-4 -10 -9 -20q-22 -52 -47 -79q-67 -75 -161 7q-79 70 -76 215q2 59 18 118.5t43 102.5q13 22 34 46q5 6 10 11q-3 12 -5 24
q-28 145 38 201q11 10 28 12q41 5 73 -21q38 -31 20 -77q-14 -34 -42 -70q-17 -21 -53 -58h-1z" />
    <glyph glyph-name="quotesingle" unicode="'" horiz-adv-x="219" 
d="M119 705q0 -26 2 -78q1 -10 1 -15q3 -75 0 -119q-1 -7 -6.5 -12t-12.5 -4.5t-12 6t-4 13.5q3 41 0 114q0 5 -1 15q-2 54 -2 80q0 7 5.5 12.5t12.5 5.5t12 -5.5t5 -12.5z" />
    <glyph glyph-name="parenleft" unicode="(" horiz-adv-x="289" 
d="M192 713q-116 -210 -104 -428q5 -94 34 -209q21 -85 67 -224q2 -6 -1 -12.5t-10 -9t-13.5 1t-8.5 9.5q-47 140 -68 226q-30 119 -35 216q-13 228 108 447q3 6 10 8t13.5 -1.5t8.5 -10.5t-1 -13z" />
    <glyph glyph-name="parenright" unicode=")" horiz-adv-x="278" 
d="M62 729q107 -156 119 -384q12 -208 -56 -398q-8 -23 -25 -57q-20 -41 -32 -56q-5 -5 -12.5 -5.5t-12.5 4t-5.5 12t3.5 12.5q9 10 25.5 44t25.5 58q65 183 54 384q-12 219 -113 366q-4 6 -2.5 13.5t7.5 11.5t13 2.5t11 -7.5z" />
    <glyph glyph-name="asterisk" unicode="*" horiz-adv-x="465" 
d="M170 517q-16 7 -52 19l-39 12q-21 9 -37 18q-6 4 -8 11t2 13.5t11 8t13 -2.5q20 -12 68 -27q37 -11 53 -19q1 13 3 40q1 21 2 31q2 45 -1 74q0 8 4.5 13.5t11.5 6t12.5 -4t6.5 -11.5q3 -33 1 -80q-1 -11 -2 -31q-2 -26 -3 -38l42 15h2q57 19 84 33q7 3 13.5 0.5t10 -8.5
t1 -13t-8.5 -10q-30 -15 -89 -35l-2 -1q-29 -9 -43 -14q-1 -1 -3 -1q50 -77 84 -124q4 -5 3 -12.5t-7 -11.5t-13 -3t-12 7q-33 47 -82 121v-1q-1 -1 -3 -4.5t-2 -4.5q-43 -76 -70 -114q-4 -6 -11.5 -7t-13 3t-7 11.5t3.5 12.5q25 37 67 111q1 1 3 4.5t2 4.5q3 5 5 8z" />
    <glyph glyph-name="plus" unicode="+" horiz-adv-x="669" 
d="M101 319q68 7 219 7q2 125 -6 210q-1 7 3.5 12.5t12 6t13 -4t6.5 -11.5q8 -87 6 -213q36 -1 92 -1q86 -1 109 -1q7 0 12.5 -5.5t5.5 -12.5t-5.5 -12t-12.5 -5q-23 0 -110 1q-55 0 -91 1q-1 -24 -2 -69q-3 -101 -3 -150q0 -7 -5 -12.5t-12.5 -5.5t-12.5 5.5t-5 12.5
q0 49 3 151q1 45 2 68q-150 0 -215 -7q-7 0 -13 4.5t-6.5 11.5t4 13t11.5 6z" />
    <glyph glyph-name="comma" unicode="," horiz-adv-x="216" 
d="M120 79q-8 -29 -22 -86v-1q-20 -89 -36 -132q-3 -7 -9.5 -10t-13.5 -0.5t-10 9t0 13.5q15 41 35 128q14 59 22 89q2 6 8.5 9.5t13.5 1.5t10.5 -8t1.5 -13z" />
    <glyph glyph-name="hyphen" unicode="-" horiz-adv-x="281" 
d="M50 271q14 0 40 -1h24q31 -1 52 1q7 1 12.5 -3.5t6.5 -11.5t-3.5 -13t-11.5 -6q-24 -3 -57 -2h-24q-26 1 -39 1q-7 0 -12 5.5t-5 12.5t5 12t12 5z" />
    <glyph glyph-name="period" unicode="." horiz-adv-x="237" 
d="M104 21q-7 -6 -11 -11q8 1 12 5q1 0 1 0.5v1.5t-1 3zM83 49q3 2 5 3q9 4 18 4q19 0 30 -19q15 -28 -7 -48q-16 -14 -39 -14q-11 0 -20 5q-13 7 -15 20q-3 19 19 41l3 3q3 3 6 5z" />
    <glyph glyph-name="slash" unicode="/" horiz-adv-x="349" 
d="M253 719q-14 -51 -84 -373q0 -1 -1 -1q-38 -177 -55 -251q-27 -119 -35 -139q-3 -7 -9.5 -10t-13 0t-9.5 9.5t0 13.5q7 18 33 134q17 74 55 250q0 1 1 2q70 322 85 375q2 7 8 10.5t13 1.5t10.5 -8.5t1.5 -13.5z" />
    <glyph glyph-name="zero" unicode="0" horiz-adv-x="490" 
d="M86 477q-11 -104 -1.5 -210.5t37.5 -181.5q12 -32 44 -52q35 -22 73 -16q81 12 109 200q11 73 12 160q0 71 -6 124q-7 69 -31.5 116.5t-61.5 67.5q-30 17 -59.5 12.5t-50.5 -27.5q-29 -33 -44 -83q-11 -37 -20 -107q-1 -1 -1 -3zM52 486q10 72 22 111q17 58 51 96
q28 33 70.5 39t82.5 -16q45 -25 74 -79.5t37 -131.5q6 -55 6 -128q-1 -90 -12 -165q-14 -93 -43 -149q-36 -72 -95 -81q-51 -8 -97 21q-43 27 -59 70q-29 79 -39 190t1 219q0 2 1 4z" />
    <glyph glyph-name="one" unicode="1" horiz-adv-x="436" 
d="M185 6q12 4 25 6q11 2 27 4q1 72 -3 229q-3 120 -3 184q0 103 5 189v1v4v9q1 15 1 27v7q-57 -55 -115 -97q-6 -5 -13 -3.5t-11.5 7t-3 13t6.5 11.5q65 47 127 109l3 4l4 4q7 8 17 5q8 -2 12 -8q2 -3 4 -8t3 -13q1 -12 1 -31q0 -13 -1 -29v-9v-4v-1q-5 -84 -5 -187
q0 -63 3 -183q4 -156 3 -226h3q23 3 46 7q7 1 12.5 -3.5t7 -11.5t-3 -13t-11.5 -7q-23 -3 -47 -6q-4 -1 -18.5 -2.5t-16.5 -1.5q-17 -2 -28 -4t-22 -5q-8 -2 -14 1.5t-8 10.5t2 13.5t11 7.5z" />
    <glyph glyph-name="two" unicode="2" horiz-adv-x="418" 
d="M57 598q-13 54 24 91q31 31 84 38q51 7 91 -14q47 -23 52 -72q6 -64 -32 -157q-14 -36 -38 -83q-13 -24 -45 -85q-21 -39 -33 -62q-38 -74 -56 -126q-21 -58 -23 -104h10q1 0 8 1q19 1 23 0q4 0 19.5 -3.5t17.5 -3.5q24 -5 41 -7q49 -7 72 1q10 4 13 10q4 8 1 24
q-2 7 2 13t11 7.5t13 -2t8 -10.5q13 -57 -36 -75q-31 -11 -89 -3q-18 3 -43 8q-2 0 -16.5 3t-18.5 4h-1q-1 0 -3 -0.5t-5 -0.5h-6q-6 -1 -9 -1q-15 -1 -23 0q-7 1 -12 4q-12 6 -12 19q0 57 25 128q19 54 58 130q12 24 33 63q32 60 44 84q24 46 38 80q35 85 29 141
q-3 29 -33 44t-71 10q-40 -5 -63 -27q-23 -24 -15 -59q1 -7 -2.5 -13.5t-11 -8t-13.5 2.5t-7 11z" />
    <glyph glyph-name="three" unicode="3" horiz-adv-x="467" 
d="M68 647q0 1 -1 4t-1 4l-2 8q-3 10 -1 18q2 12 13 19q7 6 21 9q83 21 134 15q53 -7 70 -42q15 -30 -1.5 -72.5t-59.5 -87.5q-4 -5 -9 -10l-8 -8l-6.5 -6.5t-1.5 -0.5q80 -26 115 -101q33 -73 42 -243q3 -77 -48 -127q-46 -45 -113 -49q-69 -4 -117 38q-53 47 -53 133
q0 7 5 12t12.5 5t12.5 -5t5 -12q0 -70 41 -107q37 -32 91.5 -29t91.5 39q40 39 37 101q-8 163 -39 229.5t-109 86.5q-19 5 -18 22q0 9 8 19q4 6 13 14l6 6l8 8l9 9q34 37 48.5 70t5.5 51q-8 18 -42 22q-45 6 -122 -14q-5 -1 -8 -2q0 -1 1 -2q0 -2 1 -5q1 -1 2 -4t1 -4
q2 -7 -1.5 -13.5t-10.5 -8.5t-13 1t-9 10z" />
    <glyph glyph-name="four" unicode="4" horiz-adv-x="507" 
d="M52 199q4 -1 12 -1q14 0 44 3q11 2 29 4q3 1 8 1q6 1 8 2q10 1 17 2q62 8 103 11q1 88 8 227q1 6 2.5 35.5t1.5 35.5q2 39 3 63q3 62 1 90v4q-6 -9 -13 -22q-4 -8 -21.5 -42t-20.5 -39q-27 -52 -49 -97q-63 -125 -132 -274q-1 -2 -1 -3zM308 187q0 -101 8 -179
q0 -7 -4.5 -12.5t-11.5 -6.5t-13 3.5t-6 12.5q-8 79 -8 181q-39 -3 -98 -11q-7 -1 -17 -2l-8 -1q-5 -1 -8 -1q-19 -3 -30 -4q-32 -4 -49 -4q-26 1 -38 12q-9 8 -9 21q0 9 5 20q69 150 133 276q22 44 49 97q3 5 20.5 39t21.5 42q12 23 21 35q13 17 26 18q10 2 18 -6
q5 -5 9 -13q3 -10 5 -30q2 -29 -1 -94q-1 -24 -3 -63q0 -6 -1.5 -35.5t-2.5 -35.5q-7 -137 -8 -224h11q42 0 78 -6q7 -1 11 -7t3 -13t-7 -11.5t-13 -2.5q-33 5 -73 5h-10z" />
    <glyph glyph-name="five" unicode="5" horiz-adv-x="460" 
d="M116 718q22 -4 50 -3q27 1 73 9l10 2q10 1 13 2q13 2 22 3q24 3 38 2q24 -2 35 -15.5t7 -37.5q-2 -7 -7.5 -11t-13 -3t-11.5 7t-3 13q1 5 1 8q-1 1 -1 2q-1 0 -2 1q-2 1 -7 1q-11 1 -31 -2q-9 -1 -21 -3q-3 0 -13 -2l-10 -2q-48 -8 -77 -9q-21 -1 -39 1q-1 -40 0 -94
q0 -39 2 -63q0 -9 1 -15q2 0 5 1q8 3 31 13q7 3 12 5q19 7 32 10q20 4 35 -2q43 -16 69 -80q20 -51 31 -129q7 -60 8 -129t-5 -108q-9 -64 -57 -93q-43 -25 -100 -16q-54 9 -95 45q-45 40 -51 95q-1 7 3.5 13t12 6.5t13 -4t6.5 -11.5q4 -42 39 -72q33 -30 78 -37
q44 -8 76 11q34 21 40 68q6 37 5 103.5t-8 123.5q-21 160 -77 182q-11 4 -42 -9q-5 -2 -11 -5q-25 -10 -35 -13q-22 -7 -36 0q-8 3 -11 13q-1 3 -2 9q-1 8 -2 23q-2 24 -2 65q-1 83 1 110q0 2 1 4v2q1 7 7 11.5t13 3.5z" />
    <glyph glyph-name="six" unicode="6" horiz-adv-x="489" 
d="M168 449q15 15 31 26q50 34 108 23q62 -12 80 -97q15 -71 -5 -167q-20 -95 -65 -163q-53 -80 -119 -89q-53 -7 -87 17.5t-47 76.5q-19 85 18 229q34 130 97 250q66 125 127 167q5 4 12.5 3t11.5 -7t2.5 -13.5t-7.5 -11.5q-36 -25 -78.5 -91.5t-78.5 -152.5zM116 295
q-35 -134 -17 -211t95 -67q50 7 94 73q41 63 60 152q19 88 5 151q-13 63 -53 71q-43 8 -82 -18q-32 -22 -60 -66q-14 -22 -27 -49q-4 -9 -9 -20q-1 -3 -3 -8l-1 -3q-1 -3 -2 -3v-2z" />
    <glyph glyph-name="seven" unicode="7" horiz-adv-x="432" 
d="M187 501l51 -3q6 -1 9 -1q12 -1 21 -1q11 37 18 62q20 80 14 111q-2 2 -7 5q-11 6 -30 10q-43 10 -92 9q-52 -1 -76 -13q-8 -5 -9 -9t5 -14q4 -6 3 -13t-7 -11t-13.5 -3t-11.5 7q-15 23 -10.5 42.5t27.5 31.5q30 16 91 17q54 1 101 -10q24 -5 38 -13q22 -11 25 -28
q9 -39 -14 -127q-6 -24 -16 -56h12q7 0 12 -5t5 -12.5t-5 -12.5t-12 -5h-22q-4 -12 -14.5 -46t-11.5 -39q-20 -65 -32 -110q-43 -165 -33 -258q1 -7 -3.5 -12.5t-12 -6.5t-13 3.5t-6.5 11.5q-11 100 34 271q12 46 32 111q2 5 11 35t13 42q-6 1 -13 1q-3 0 -10 1q-33 2 -50 3
q-7 0 -12 5.5t-4.5 12.5t6 12t12.5 5z" />
    <glyph glyph-name="eight" unicode="8" horiz-adv-x="494" 
d="M366 302q3 -3 5 -6q43 -95 18 -178q-22 -73 -87 -113q-63 -39 -128 -27q-73 13 -105 82q-41 86 -1 199q26 73 100 185q3 6 16 25q-31 44 -44 91q-15 52 5 97q17 40 54 61t71 10q39 -12 46 -58q6 -41 -34 -112q-14 -25 -40 -64q-3 -5 -15 -23q15 -19 46 -52q1 -1 3.5 -4
t3.5 -3q32 -34 48 -54q23 -29 38 -56zM205 501l8 12q25 38 38 62q35 61 30 90q-4 24 -22 30q-19 6 -43 -8q-27 -15 -39 -44q-15 -33 -3 -73q10 -36 31 -69zM339 278q-14 28 -38 58q-16 19 -46 52q-1 0 -4 3t-3 4q-27 29 -41 45q-7 -11 -10 -15q-71 -109 -96 -177
q-35 -100 -1 -173q25 -53 80 -63q52 -10 104 22q54 34 72 94q20 67 -14 146q-1 2 -3 4z" />
    <glyph glyph-name="nine" unicode="9" horiz-adv-x="488" 
d="M353 590v3q-21 85 -123 100q-65 10 -109 -32q-42 -40 -32 -79q10 -37 56 -58q50 -22 105 -8q62 16 103 74zM133 9q49 75 94 157q68 124 101 224q29 88 30 151q-43 -45 -100 -59q-66 -17 -127 10q-62 28 -76 81q-15 59 42 113t138 42q126 -19 152 -127q20 -85 -26 -222
q-34 -103 -103 -230q-46 -83 -96 -159q-4 -6 -11 -7.5t-13 2.5t-7.5 11t2.5 13z" />
    <glyph glyph-name="colon" unicode=":" horiz-adv-x="259" 
d="M126 465q-7 -6 -10 -11q7 1 11 4l1 1v1q0 2 -1 4zM105 493q3 2 6 3q8 4 17 4q19 0 30 -19q15 -28 -7 -48q-15 -14 -38 -14q-12 0 -21 5q-12 7 -15 20q-3 19 19 41l3 3q3 3 6 5zM123 32q-7 -6 -10 -11q7 1 11 5q1 0 1 0.5v1.5t-1 3q0 1 -1 1zM102 60q3 2 5 3q9 5 18 4
q19 0 30 -19q15 -28 -7 -48q-15 -14 -39 -14q-11 0 -20 5q-12 7 -15 20q-3 19 19 41l3 3q3 3 6 5z" />
    <glyph glyph-name="semicolon" unicode=";" horiz-adv-x="258" 
d="M125 458q-7 -6 -11 -11q8 1 12 5q1 0 1 0.5v1.5t-1 3q0 1 -1 1zM104 486q2 2 5 3q9 5 18 4q19 0 30 -19q15 -28 -7 -48q-16 -14 -39 -14q-11 0 -20 5q-13 7 -15 20q-3 19 19 41q1 2 3 4zM137 78q-1 -7 -3 -15q0 -1 -3 -16.5t-4 -19.5q-4 -21 -8 -36q-18 -81 -41 -129
q-4 -6 -10.5 -8.5t-13 1t-9 10.5t0.5 13q22 44 39 120q4 16 8 36q1 4 4 19.5t3 16.5q2 8 3 15q2 7 8 11t13 2.5t11 -7.5t2 -13z" />
    <glyph glyph-name="less" unicode="&#x3c;" horiz-adv-x="448" 
d="M348 546q-38 -44 -115 -127l-3 -3q-68 -73 -101 -112l-3 -3q2 -2 5 -6q8 -11 23 -28q26 -29 72 -76q5 -5 10 -9q29 -30 69 -69q2 -2 12 -12.5t19.5 -19.5t11.5 -11q5 -5 5 -12t-5 -12.5t-12.5 -5.5t-12.5 5l-11 11l-19.5 19.5l-12.5 12.5l-69 69l-9 9q-47 48 -74 78
q-36 41 -39 55q-1 9 4 17q2 4 7 8v1l1 1l1 1q34 39 103 113q1 2 3 3q76 82 113 126q4 5 11.5 6t13 -4t6 -12t-3.5 -13z" />
    <glyph glyph-name="equal" unicode="=" horiz-adv-x="680" 
d="M107 226q33 5 102 7q46 1 134 0h21q157 -1 202 3q7 1 12.5 -4t6 -12t-4 -12.5t-11.5 -6.5q-47 -4 -206 -3h-21q-87 1 -132 0q-66 -2 -98 -7q-7 -1 -13 3.5t-7 11.5t3 13t12 7zM99 405q36 5 78 6q53 2 155 -4q75 -5 110 -5q60 -1 105 6q8 1 13.5 -3.5t6.5 -11.5t-3 -13
t-11 -7q-49 -7 -111 -6q-37 0 -112 5q-101 6 -151 4q-40 -1 -75 -6q-7 -1 -13 3.5t-7 11.5t3.5 13t11.5 7z" />
    <glyph glyph-name="greater" unicode="&#x3e;" horiz-adv-x="477" 
d="M122 556q29 -27 86 -72q2 -2 6.5 -5.5t9.5 -6.5l4 -4q51 -40 78 -64q43 -38 69 -74q4 -4 4 -10q6 -9 0 -19q-40 -64 -119 -136t-145 -104q-7 -3 -13.5 -0.5t-10 9t-1 13t9.5 10.5q59 28 132 94t113 125q-24 32 -62 66q-26 23 -77 63l-4 3q-4 3 -9 7t-7 5q-58 46 -88 75
q-6 5 -6 12t5 12.5t12.5 5.5t12.5 -5z" />
    <glyph glyph-name="question" unicode="?" horiz-adv-x="410" 
d="M171 27h-1q-6 -6 -10 -11q8 1 12 5v1q1 0 1 1q-1 1 -2 3v1zM149 55h1q2 2 5 3q9 5 18 4q19 0 29 -19q15 -28 -7 -48q-15 -14 -38 -14q-12 0 -20 5q-13 7 -15 20q-3 19 19 41q1 2 3 4q3 2 5 4zM34 548q-35 56 -9 108q22 44 77 67q54 23 107 11q60 -12 87 -64t13 -98
q-10 -30 -46 -71q-3 -3 -7 -8l-2 -1q-2 -2 -3.5 -4t-2.5 -3q-33 -37 -45 -61q-45 -95 -28 -246q0 -7 -4.5 -12.5t-11.5 -6.5t-12.5 3.5t-6.5 12.5q-18 160 32 264q13 29 51 70l2 2q2 2 3 4l2 2l7 7q31 35 39 59q10 32 -11 71q-19 37 -63 46q-43 9 -86 -9q-44 -18 -60 -50
q-17 -35 8 -75q4 -6 2 -13t-8 -11t-13 -2t-11 8z" />
    <glyph glyph-name="at" unicode="@" horiz-adv-x="701" 
d="M479 525q-7 -25 -23 -75q-1 -4 -1 -5q-24 -75 -32 -115q-14 -65 -9 -103q3 -28 14 -35q10 -6 30 5.5t41 37.5q56 67 68 161q16 111 -46 201q-30 43 -75.5 67.5t-99.5 26.5q-86 4 -155 -65q-73 -74 -103 -211q-28 -134 0 -255q28 -126 105 -171q86 -50 218 21
q41 23 76.5 56.5t50.5 65.5q3 7 9.5 9.5t13.5 -0.5t9.5 -10t-0.5 -13q-19 -40 -62 -81q-38 -34 -81 -57q-148 -81 -252 -21q-90 53 -122 193q-29 129 1 270q31 148 112 228q81 81 182 76q62 -2 115 -31t87 -78q69 -101 52 -226q-14 -103 -76 -179q-27 -33 -56 -48
q-34 -17 -59 -2q-29 17 -33 69q-42 -69 -86 -79q-33 -7 -59 16q-22 20 -35 58q-27 77 -6 167q24 104 100 155q31 19 60.5 13t52.5 -35q15 -19 25 -43q9 30 15 52q2 7 8.5 10.5t13.5 1.5t10.5 -8.5t1.5 -13.5zM407 418q2 19 -6 43.5t-23 42.5q-31 38 -67 14q-64 -42 -85 -132
q-18 -81 5 -149q10 -29 25 -43q13 -11 28 -8q20 4 43 33q29 35 56 100l3 3q1 7 2 15q7 33 20 75q-1 3 -1 6z" />
    <glyph glyph-name="A" unicode="A" horiz-adv-x="508" 
d="M104 213q21 4 46 7q22 3 67 7q39 3 59 6q25 3 45 8q-20 82 -40 162q-33 128 -54 205q-9 34 -15 55q-9 -25 -22 -75q-10 -39 -26 -112q-22 -100 -28 -129q-18 -80 -32 -134zM-9 19q23 16 54 115q24 75 57 221l28 129q16 73 26 113q14 54 24 81q7 17 13 26q4 6 9 9
q8 6 16 6q10 -1 12 -3t7 -15q2 -7 6 -19q7 -23 18 -65q21 -77 54 -205q70 -278 97 -400q2 -7 -2 -13t-11 -7.5t-13 2t-8 11.5q-13 61 -48 202q-22 -6 -49 -9q-21 -3 -61 -6q-44 -4 -65 -6q-33 -4 -61 -11q-8 -28 -16 -52q-34 -111 -68 -133q-6 -4 -13.5 -2.5t-11.5 7.5
t-2.5 13t8.5 11z" />
    <glyph glyph-name="B" unicode="B" horiz-adv-x="512" 
d="M119 501q10 1 22 0q13 0 48 -3q29 -2 46 -3q67 -2 98 13q37 19 32 73q-4 50 -44 76q-33 22 -94 27q-36 4 -96 2q-14 -1 -20 -1q5 -53 8 -184zM231 460q148 -102 178 -212q34 -126 -86 -233q-23 -20 -63 -27q-29 -5 -71 -3q-16 0 -43 3q-36 2 -47 3q-8 -3 -15 0q-2 1 -4 3
q-7 6 -7 14q0 7 5 12v3q1 9 3 23q2 29 3 76q3 91 2 222q-1 304 -12 355q-2 7 2 13t11 8q4 1 7 0q7 0 36 1q62 2 101 -2q68 -6 109 -33q55 -35 60 -103q6 -76 -51 -106q-39 -20 -115 -17h-3zM159 465q-10 1 -19 1q-12 1 -20 0q1 -59 1 -122q1 -132 -2 -223q-2 -67 -5 -96
q10 -1 34 -2q27 -3 42 -3q81 -4 110 22q104 92 75 197q-31 115 -216 226z" />
    <glyph glyph-name="C" unicode="C" horiz-adv-x="537" 
d="M396 616q2 35 -17 56q-17 20 -50 25q-33 6 -69 -3.5t-60 -31.5q-59 -52 -91 -140q-27 -76 -31 -170q-6 -109 47 -203q48 -83 119 -120q67 -35 111 -6q52 34 52 141q0 7 5 12.5t12 5.5t12.5 -5.5t5.5 -12.5q0 -126 -68 -170q-61 -40 -146 4q-80 42 -133 134
q-58 103 -52 222q5 99 33 179q35 97 100 155q31 27 74.5 39t84.5 5q47 -8 73 -39.5t22 -78.5q0 -8 -5.5 -12.5t-13 -4t-12 6t-3.5 12.5z" />
    <glyph glyph-name="D" unicode="D" horiz-adv-x="542" 
d="M118 32q95 -7 156 31q65 41 106 167.5t29 249.5q-14 134 -88 191q-75 57 -205 19q10 -90 11 -337q1 -232 -9 -321zM82 678h-2q-7 -3 -13.5 0t-9 10t0.5 13.5t10 9.5q173 65 275 -13q86 -65 101 -214q13 -132 -31 -266q-44 -137 -120 -185q-74 -46 -185 -35q-6 -5 -14 -3
q-7 1 -11 7.5t-2 13.5q13 58 11 337q-1 232 -10 325z" />
    <glyph glyph-name="E" unicode="E" horiz-adv-x="464" 
d="M336 678q-11 0 -31 2q-7 1 -17 2q-2 0 -9.5 1t-9.5 1q-24 3 -40 4q-81 7 -99 -12q-2 -2 -5 -9q-3 -9 -6 -24q-6 -29 -10 -77q-2 -30 -3 -67q39 12 100 11q63 -2 120 -15q7 -1 11 -7t2.5 -13.5t-8 -11t-13.5 -2.5q-53 12 -113 14q-65 1 -100 -13q-1 -56 0 -116
q3 -126 14 -218q6 -48 13 -76q3 -14 7 -22q2 -6 3 -7t3 -2q4 -1 9 -2q12 -1 32 -1q25 1 94 7q10 1 16 1q33 3 54 5q7 0 12.5 -5t6 -12t-4.5 -12.5t-12 -5.5q-21 -2 -53 -4q-6 -1 -16 -2q-70 -6 -96 -7q-51 -1 -67 13q-23 19 -36 127q-11 94 -14 222q-3 129 4 224
q9 110 31 132q18 18 57 23q28 3 70 -1q16 -1 41 -4q51 -6 63 -6q7 0 12 -5t5 -12.5t-5 -12.5t-12 -5z" />
    <glyph glyph-name="F" unicode="F" horiz-adv-x="441" 
d="M322 678q-29 10 -96 12q-71 1 -93 -10q-25 -14 -26 -108q-1 -29 1 -69q20 3 40 3q16 0 45 -2h2q51 -3 85 3q8 1 13.5 -3.5t7 -11.5t-3 -13t-11.5 -7q-25 -4 -51 -4q-16 0 -43 1h-1q-27 2 -42 2q-20 0 -39 -3v-2q3 -34 10 -123q4 -48 7 -77q12 -169 3 -260
q-1 -8 -6.5 -12.5t-13 -3.5t-12 6.5t-3.5 12.5q9 89 -3 254q-3 29 -7 77q-7 90 -9 124q-5 66 -4 109q0 52 9 84q10 40 35 54q30 16 111 14q72 -2 106 -14q7 -2 10 -8.5t1 -13.5t-8.5 -10t-13.5 -1z" />
    <glyph glyph-name="G" unicode="G" horiz-adv-x="534" 
d="M386 632q0 13 -8 26t-19 17q-146 55 -213 -21q-60 -67 -54 -216q3 -90 29.5 -182.5t66 -158.5t79.5 -83q36 -15 65 18t49 104q18 62 22 128q3 48 -2 72q-4 0 -10 1q-21 2 -47 3q-70 3 -97 -3q-7 -1 -13 2.5t-7.5 10.5t2 13.5t11.5 7.5q31 7 105 4q28 -1 50 -4
q10 -1 16 -2q4 0 6 -1q9 -2 13 -10q12 -26 7.5 -96t-22.5 -135q-22 -79 -57 -118q-46 -52 -104 -27q-75 31 -135 174q-57 137 -62 281q-6 163 63 240q83 94 251 31q22 -8 36 -30t14 -46q0 -7 -5 -12t-12 -5t-12.5 5t-5.5 12z" />
    <glyph glyph-name="H" unicode="H" horiz-adv-x="582" 
d="M482 693q-7 -8 -12 -38q-6 -31 -8 -80q-5 -84 -1 -225q2 -64 6 -152q0 -8 2 -56.5t3 -57.5q2 -55 2 -76q0 -7 -5 -12t-12.5 -5t-12.5 5t-5 12q0 21 -2 74q-1 10 -3 58t-2 57q-4 88 -6 152q-2 61 -2 111q-30 0 -97 4q-37 2 -57 2q-86 3 -142 -4q2 -51 2 -105
q0 -154 -20 -348q-1 -7 -6.5 -11.5t-12.5 -4t-11.5 6.5t-4.5 13q20 192 20 344q0 192 -29 341q-1 7 3 13t11 7.5t13 -2.5t8 -11q18 -96 25 -208q58 7 145 4q20 0 58 -2q66 -4 95 -4q1 45 3 81q6 113 29 140q4 6 11.5 6.5t13 -4.5t6 -12t-4.5 -13z" />
    <glyph glyph-name="I" unicode="I" horiz-adv-x="228" 
d="M72 719h1h4q6 1 11 1q8 0 13 -1t9 -3q6 -4 9 -11q1 -4 1 -7v-1v-3v-10q-1 -18 -2 -39q-3 -66 -5 -133q-4 -120 -6 -221q-3 -171 1 -271q6 3 12.5 0.5t10 -8.5t1 -13t-8.5 -10q-14 -7 -26 -7q-8 1 -14 5q-9 6 -10 17q-4 103 -1 288q2 101 6 221q2 68 5 134q1 20 2 38h-6
q-1 -1 -2 -1h-1q-7 -1 -13 3.5t-7 12t3.5 13t12.5 6.5z" />
    <glyph glyph-name="J" unicode="J" horiz-adv-x="375" 
d="M145 673q30 -10 68 21q2 2 8 7t10.5 9.5t5.5 4.5q6 6 11 8q6 3 12 2q9 0 14 -7q6 -7 6 -20q-1 -8 -3 -21q-3 -22 -16 -76q-4 -19 -1 -69q1 -21 3 -52q1 -12 2 -29q2 -24 3 -31q5 -62 7 -102q6 -107 -3 -174q-12 -90 -53 -126q-21 -18 -54.5 -29.5t-66.5 -11.5
q-72 0 -89 59q-12 37 3 109q3 14 8 35l1 4q1 3 2 7l2 8t1 6q3 13 5 22q5 23 5 35q0 7 5 12t12.5 5t12.5 -5t5 -12q0 -16 -6 -42q-2 -10 -5 -23q0 -2 -1 -6.5t-2 -8t-2 -6.5l-1 -4q-5 -20 -7 -34q-14 -63 -5 -92q10 -34 56 -34q26 0 54 9t44 24q31 27 41 104q9 63 3 167
q-2 40 -7 102l-2 30q-2 18 -3 29q-2 32 -3 53q-3 55 2 79q10 42 14 63q-4 -4 -6 -5q-22 -19 -43 -26q-30 -11 -58 -2q-7 3 -10.5 9.5t-1 13t9 10t13.5 1.5z" />
    <glyph glyph-name="K" unicode="K" horiz-adv-x="522" 
d="M212 580q26 -52 45 -110q12 -41 27 -107q1 -5 4 -15q11 -52 18 -78q11 -43 24 -79q33 -91 94 -176q4 -6 2.5 -13t-7 -11t-13 -3t-11.5 7q-63 89 -98 184q-14 37 -25 82q-7 27 -19 79q-2 10 -3 16q-14 64 -27 104q-15 49 -37 93q-44 -49 -57 -79q-1 -3 -4 -6v-34
q0 -53 -2 -136q-3 -92 -3 -113v-11q0 -1 0.5 -7.5t0.5 -7.5q1 -35 0 -58q-1 -44 -11 -69q-6 -18 -17 -27q-15 -12 -34 -10q-7 1 -11.5 6.5t-3.5 13t6.5 12t12.5 3.5q4 -1 7 2q4 3 8 12q7 20 9 58q0 22 -1 56v6q-1 7 -1 9v12q0 22 3 114q2 83 2 135q1 203 -25 258
q-3 7 -1 13.5t8.5 10t13.5 1t10 -9.5q23 -48 28 -175q46 62 114 120q49 42 82 55q22 9 38 4q21 -7 23 -32q1 -8 -3.5 -13.5t-12 -6t-13 4t-6.5 11.5v3q-4 0 -13 -4q-28 -11 -73 -49q-24 -21 -48 -45z" />
    <glyph glyph-name="L" unicode="L" horiz-adv-x="428" 
d="M98 715q36 -50 36 -154q0 -69 -18 -198q-2 -12 -5 -33q-16 -114 -20 -161q-6 -80 5 -120l1 -1q2 -3 7 -6q12 -7 31 -13q45 -16 89 -17q48 -1 65 15q8 7 8 19q1 16 -12 40q-3 7 -0.5 14t9 10t13.5 0.5t10 -8.5q33 -66 -4 -101q-28 -26 -90 -24q-50 1 -99 18q-23 8 -38 17
q-20 12 -24 26q-13 47 -6 133q4 49 20 164q3 21 5 33q18 126 18 193q0 93 -30 134q-4 6 -3 13t7 11.5t13.5 3t11.5 -7.5z" />
    <glyph glyph-name="M" unicode="M" horiz-adv-x="701" 
d="M598 701q-24 -182 -22 -365t29 -331q1 -7 -3 -13t-11 -7.5t-13 2.5t-7 11q-56 299 -11 681q-80 -25 -142 -93q-14 -15 -29 -35q-6 -7 -13 -17q-1 -2 -6 -8.5t-6 -7.5q-13 -19 -22 -28q-12 -14 -23 -20q-17 -9 -34 -4q-28 8 -50 40q-14 19 -32 61l-3 7l-5 10
q-21 48 -38 68q-17 21 -37 28q-8 -61 -8 -149q0 -59 5 -187q1 -44 2 -68q5 -170 -4 -270q0 -7 -5.5 -11.5t-13 -4t-12 6t-4.5 12.5q9 98 4 266q-1 24 -2 67q-5 130 -5 189q0 101 11 169q0 4 2 6q4 15 19 13q44 -6 75 -45q20 -24 43 -76l5 -10l3 -7q17 -38 28 -55
q15 -22 32 -27q3 -1 7 2q10 5 34 38q1 1 5.5 7.5t6.5 8.5q7 10 13 17q16 21 31 38q35 38 75 64q49 32 109 46h1q3 1 6 1q7 -1 11.5 -7t3.5 -13z" />
    <glyph glyph-name="N" unicode="N" horiz-adv-x="548" 
d="M104 721q35 -10 82 -51q17 -14 41 -39q33 -32 43 -42q39 -37 69 -60q28 -22 55 -37q3 28 11 83q7 45 10 65q4 35 3 62q-1 7 4 12t12.5 5.5t12.5 -4.5t6 -12q1 -29 -4 -67q-2 -21 -9 -67q-11 -67 -12 -102q-3 -51 1 -110q2 -25 5 -59q0 -3 1 -11t1.5 -16.5t1.5 -16
t2 -12.5v-6q12 -125 13 -227q0 -7 -5 -12t-12.5 -5t-12.5 5t-5 12q-1 100 -13 223q0 1 -0.5 4.5t-1 9.5t-1 13t-1.5 14t-1.5 13t-0.5 9q-3 35 -5 60q-3 53 -2 99q-36 17 -75 47q-31 24 -71 63l-43 42q-24 24 -40 37q-25 23 -45 34q12 -114 16 -294q5 -261 -16 -378
q-2 -7 -7.5 -11t-13 -3t-11.5 7t-3 13q21 114 16 371q-5 218 -18 317q-1 6 2 11q6 15 21 11z" />
    <glyph glyph-name="O" unicode="O" horiz-adv-x="585" 
d="M95 534q-22 -137 11 -250q13 -47 37 -96q18 -35 48 -83q63 -101 117 -89q29 6 56 48q32 51 58 147q16 60 24 121q12 86 7 155q-6 86 -39 140q-38 62 -110 81q-37 10 -69 0q-27 -8 -60 -34q-28 -22 -50 -59.5t-29 -77.5q-1 -2 -1 -3zM62 547q9 45 34 87t57 68q39 29 72 39
q41 13 88 1q86 -22 131 -97q37 -61 44 -155q5 -74 -7 -163q-9 -63 -25 -125q-54 -202 -141 -221q-41 -9 -84 23q-35 27 -70 82q-30 50 -49 87q-26 51 -40 101q-35 123 -11 269q0 2 1 4z" />
    <glyph glyph-name="P" unicode="P" horiz-adv-x="496" 
d="M119 501q10 1 22 0q13 0 48 -3q29 -2 46 -3q67 -2 98 13q37 19 32 73q-4 50 -44 76q-33 22 -94 27q-36 4 -96 2q-14 -1 -20 -1q5 -53 8 -184zM94 720q7 0 36 1q62 2 101 -2q68 -6 109 -33q55 -35 60 -103q6 -76 -51 -106q-39 -20 -115 -17q-18 1 -48 3q-34 3 -46 3
q-12 1 -20 0q1 -59 1 -122q1 -132 -2 -223q-3 -105 -11 -122q-3 -6 -10 -8.5t-13.5 0.5t-9 10t0.5 14q1 1 2 8q1 9 3 23q2 29 3 76q3 91 2 222q-1 304 -12 355q-2 7 2 13t11 8q4 1 7 0z" />
    <glyph glyph-name="Q" unicode="Q" horiz-adv-x="623" 
d="M423 104q16 -25 31 -40q28 -29 56 -29q8 0 13 -5t5 -12.5t-5 -12.5t-13 -5q-43 0 -81 40q-12 12 -23 27q-39 -75 -91 -86q-41 -9 -84 23q-35 27 -70 82q-30 50 -49 87q-26 51 -40 101q-35 123 -11 269q0 2 1 4q9 44 32 84q25 44 59 71q20 16 31 23q17 11 34 16
q38 13 94 1q88 -18 134 -92q37 -61 44 -156q5 -74 -8 -165q-10 -64 -26 -127q-15 -56 -33 -98zM226 232q49 41 93 14q28 -17 63 -74q4 -7 10 -17q1 0 1 -1q5 -8 7 -13q12 32 22 70q16 61 25 123q13 87 8 157q-6 87 -39 141q-38 61 -111 76q-47 9 -76 0q-19 -6 -55 -34
q-28 -22 -50 -60q-21 -37 -28 -77q-1 -2 -1 -3q-22 -137 11 -250q13 -47 37 -96q18 -35 48 -83q63 -101 117 -89q29 6 56 48q10 16 20 37q-5 8 -11 18q-1 2 -2.5 4t-2.5 4.5t-2.5 4.5t-2.5 4l-1 1q-6 10 -10 17q-30 50 -51 62q-11 7 -22 6q-13 -2 -30 -16q-5 -5 -12.5 -4.5
t-12 6t-4 12.5t5.5 12z" />
    <glyph glyph-name="R" unicode="R" horiz-adv-x="501" 
d="M119 501q10 1 22 0q13 0 48 -3q29 -2 46 -3q67 -2 98 13q37 19 32 73q-4 50 -44 76q-33 22 -94 27q-36 4 -96 2q-14 -1 -20 -1q5 -53 8 -184zM94 720q7 0 36 1q62 2 101 -2q68 -6 109 -33q55 -35 60 -103q6 -76 -51 -106q-39 -20 -115 -17q-8 0 -16 1q11 -16 22 -42
q18 -40 42 -124q1 -2 2.5 -6.5t3 -9.5t3 -10.5t3 -10t2.5 -8.5t2 -6v-3q28 -95 47 -141q26 -64 53 -83q6 -4 7 -11.5t-3 -13.5t-11 -7t-13 3q-35 25 -66 99q-19 47 -47 144l-1 3q-1 2 -2 6t-2.5 9l-3 10l-3 10t-2.5 9.5t-2 6.5q-24 82 -41 120q-21 48 -39 56q-3 1 -6 4
q-13 1 -23 1q-12 1 -20 0q1 -59 1 -122q1 -132 -2 -223q-3 -105 -11 -122q-3 -6 -10 -8.5t-13.5 0.5t-9 10t0.5 14q1 1 2 8q1 9 3 23q2 29 3 76q3 91 2 222q-1 304 -12 355q-2 7 2 13t11 8q4 1 7 0z" />
    <glyph glyph-name="S" unicode="S" horiz-adv-x="478" 
d="M309 632q7 31 -21 50q-29 21 -76 20q-49 0 -81 -23q-35 -25 -34 -68q0 -53 65 -116q15 -14 40 -36l22 -19q13 -11 22 -19q87 -78 121 -173q43 -122 -34 -211q-48 -55 -114 -60q-58 -5 -111 29q-51 33 -73 85q-24 56 2 107q3 7 10 9t13.5 -1t9 -10t-1.5 -14
q-18 -36 -1 -78q18 -41 60 -68q43 -28 89 -24q52 4 91 48q64 73 27 176q-31 87 -111 159q-9 7 -22 19q-17 14 -22 19q-26 22 -41 37q-36 35 -54 64q-22 38 -22 77q-1 61 49 96q41 30 101 30q58 1 96 -26q47 -33 35 -86q-1 -7 -7 -11t-13 -2.5t-11 7.5t-3 13z" />
    <glyph glyph-name="T" unicode="T" horiz-adv-x="412" 
d="M4 719q51 -3 120 -3q24 1 73 2q68 2 102 2q7 0 12 -5.5t5 -12.5t-5 -12t-12 -5q-34 0 -101 -2q-20 -1 -31 -1q0 -65 -4 -199q-2 -88 -3 -131q-3 -201 12 -341q1 -8 -3.5 -13.5t-11.5 -6t-13 4t-7 11.5q-15 142 -12 345l3 132q4 133 4 198q-4 -1 -8 -1q-70 0 -122 3
q-7 1 -12 6t-4.5 12.5t6 12t12.5 4.5z" />
    <glyph glyph-name="U" unicode="U" horiz-adv-x="559" 
d="M445 700q-2 -65 8 -185q0 -6 1 -18q9 -103 10 -153q1 -84 -12 -148q-12 -58 -31 -99q-25 -53 -64 -83q-30 -23 -72.5 -30.5t-75.5 5.5q-85 33 -115 124q-21 65 -16 174q2 30 7 83q8 83 8 114q0 36 -7 107l-3 30q-5 48 -5 81q0 7 5 12t12.5 5t12.5 -5t5 -12q0 -31 5 -77
l3 -30q7 -74 7 -111q0 -32 -8 -117q-5 -52 -7 -82q-5 -102 14 -161q25 -75 95 -103q24 -9 57.5 -3t55.5 24q33 25 55 70q17 37 28 91q12 60 11 141q-1 48 -10 150q-1 12 -1 18q-10 122 -8 189q1 7 6 12t12.5 5t12.5 -5.5t4 -12.5z" />
    <glyph glyph-name="V" unicode="V" horiz-adv-x="503" 
d="M32 702q31 -72 72 -274q4 -18 17.5 -84.5t14.5 -72.5q17 -82 27 -118q7 -25 14 -56l5 -24q3 -12 5 -19q5 -22 10 -29q2 -3 4 -4q1 2 3 5q4 8 9 29q4 16 5 21q17 61 39 168q2 9 10.5 49.5t9.5 47.5q12 58 22 100q36 159 75 265q2 7 9 10t13.5 0.5t9.5 -9.5t1 -13
q-39 -104 -74 -261q-9 -41 -21 -99q-2 -7 -10.5 -47.5t-10.5 -49.5q-22 -108 -39 -170l-5 -21q-6 -24 -12 -36q-11 -22 -31 -23q-23 -2 -36 18q-8 13 -15 40q-2 8 -5 21q-4 17 -5 23q-7 31 -14 55q-10 37 -27 120q-1 6 -14.5 72.5t-17.5 84.5q-41 199 -70 267q-3 7 -0.5 14
t9 9.5t13.5 0t10 -9.5z" />
    <glyph glyph-name="W" unicode="W" horiz-adv-x="776" 
d="M50 709q22 -43 41 -143q13 -68 31 -196q0 -3 5.5 -42t6.5 -49q18 -129 31 -186q9 -38 17 -57q2 -5 4 -8q0 1 1 2q6 20 14 63q5 27 12 73q0 1 2.5 18t5.5 36t4 27q19 121 35 176q11 39 23 58q8 13 18 19q14 8 28 2q20 -7 36 -35q12 -22 25 -59q15 -47 41 -161q0 -3 1 -4
l1 -4q1 -5 2 -9q24 -107 38 -150q10 -31 20 -48q4 -5 7 -9q2 5 4 12q8 26 19 82q8 43 21 120l3 19q3 18 6.5 40t7.5 46t6 34q21 127 38 202q22 101 42 145q4 6 10.5 8.5t13 -0.5t9 -10t-0.5 -13q-19 -40 -40 -138q-16 -73 -38 -199q-1 -11 -5 -35t-7.5 -45.5t-6.5 -40.5
l-4 -18q-13 -78 -21 -122q-11 -57 -20 -86q-5 -17 -10 -26q-4 -7 -9 -10q-8 -8 -19 -5q-20 5 -36 31q-12 20 -23 55q-15 45 -40 153q0 4 -2 9q0 1 -1 4q0 2 -1 4q-25 113 -40 158q-11 34 -21 53q-9 16 -17 19q-2 -2 -5 -7q-10 -15 -20 -49q-15 -53 -33 -171q-1 -8 -4 -27
t-5.5 -36.5t-3.5 -18.5q-7 -46 -12 -73q-8 -45 -15 -67q-5 -15 -10 -23q-4 -6 -9 -9q-9 -5 -18 -2q-19 5 -33 36q-10 22 -19 63q-13 58 -31 189q-2 10 -7 49t-6 43q-17 127 -30 193q-19 95 -39 134q-3 6 -0.5 13t8.5 10.5t13 1t11 -8.5z" />
    <glyph glyph-name="X" unicode="X" horiz-adv-x="500" 
d="M383 691q-20 -36 -49 -77q-18 -25 -54 -72h-1q-35 -45 -51 -68q12 -33 25 -73q10 -33 33 -117q26 -96 45 -144q29 -72 69 -118q5 -5 4.5 -12.5t-6 -12t-13 -4t-12.5 5.5q-43 50 -75 128q-19 50 -46 148q-23 83 -33 115q-8 26 -16 48q-11 -17 -21 -34q-28 -51 -50 -118
q-13 -40 -33 -123q-2 -11 -4 -17q-23 -95 -43 -149q-3 -7 -9.5 -10t-13 -0.5t-9.5 9.5t-1 13q20 52 42 146q2 5 4 17q21 83 34 125q22 70 53 124q15 27 36 57q-15 37 -33 70q-46 82 -113 141q-5 5 -5.5 12t4.5 12.5t12 6t13 -4.5q71 -63 119 -150q14 -26 27 -54q12 17 40 52
v1q36 47 54 70q28 40 46 73q4 7 11 9t13 -1.5t8 -10.5t-1 -13z" />
    <glyph glyph-name="Y" unicode="Y" horiz-adv-x="480" 
d="M24 713q19 -25 64 -71q1 -1 2 -1q34 -34 50 -53q26 -29 41 -57q8 18 22 35q20 26 65 58q1 1 10 7.5t11 7.5q26 20 39 33q16 17 22 34q2 7 8.5 10t13.5 1t10 -8.5t1 -13.5q-8 -25 -30 -48q-15 -15 -44 -36q-2 -1 -10.5 -7.5t-9.5 -7.5q-41 -30 -59 -52q-25 -31 -27 -71
q0 -2 -1 -4q6 -28 8 -66q3 -48 1 -158q-2 -87 0 -127q2 -65 11 -103q2 -7 -1.5 -13.5t-11 -8t-13.5 2t-8 10.5q-10 42 -12 111q-2 41 0 128v1q2 108 -1 155q-4 75 -23 110q-14 26 -38 54q-15 18 -48 51l-2 2q-47 47 -68 74q-4 5 -3 12.5t7 12t13 3t11 -6.5z" />
    <glyph glyph-name="Z" unicode="Z" horiz-adv-x="439" 
d="M51 655q-1 0 -2.5 2t-2.5 3q-4 4 -6 7q-9 12 -10 22q-2 20 20 27q50 16 166 13q46 -1 79 -4q16 -2 26 -5q6 -1 10 -3q11 -5 12 -15q2 -11 -7 -30q-6 -14 -19 -36q-10 -18 -27 -45q-6 -10 -16 -24q-12 -20 -16 -25l-4 -8q-16 -24 -26 -41q21 -1 36 2q7 2 13 -2t8 -11
t-2 -13t-11 -8q-17 -3 -39 -3q-11 0 -25 1q-66 -118 -116 -270q-29 -86 -32 -132q-2 -23 2 -32q1 -2 4 -2q19 3 47 1q16 0 52 -4q8 -1 13 -2q38 -4 60 -4q28 1 44 7t21 19q6 18 -2 50q-2 7 2 13t11 8t13 -2t8 -11q21 -85 -40 -109q-22 -9 -57 -10q-24 0 -63 4q-5 1 -14 2
q-35 4 -50 5q-25 1 -39 -1q-29 -5 -42 21q-8 17 -5 49q3 51 33 141q48 142 112 263q-14 1 -24 1q-23 -1 -38 -8q-6 -3 -13 -0.5t-10 9t-0.5 13t8.5 9.5q22 11 52 12q16 0 44 -3q13 22 35 57q2 3 5 7l16 25l15 25q17 27 27 44q12 20 18 32v2q-6 1 -14 2q-31 3 -76 4
q-96 2 -145 -9l2 -2l2 -2l2 -3q5 -5 5 -12.5t-5.5 -12t-13 -4.5t-11.5 6z" />
    <glyph glyph-name="bracketleft" unicode="[" horiz-adv-x="290" 
d="M173 703l-7 1q-7 0 -10 1q-14 1 -25 1q-16 1 -25 0q-4 -1 -6 -2q-15 -58 -5 -166q2 -22 6 -60q8 -75 10 -105q2 -44 1 -100q-1 -34 -4 -101q-1 -11 -1 -17q-4 -83 -4 -132q1 -72 9 -129q1 -3 1 -11v-7q1 -4 1 -7q8 -3 25 -4q19 -1 37 1q7 1 12.5 -3.5t6.5 -12t-3.5 -13
t-12.5 -6.5q-20 -2 -42 -1q-34 2 -48 13q-6 6 -9 17q-1 6 -2 14v8v4.5v2.5q-9 60 -10 134q0 49 4 134q0 6 1 17q3 67 4 100q1 54 -1 98q-2 29 -10 102q-4 39 -6 61q-11 116 6 181l1 1q0 3 1 5q2 4 5 8q9 8 28 10q13 2 31 1q12 0 27 -1q3 -1 10 -1.5t8 -0.5q7 -1 11.5 -6.5
t4 -12.5t-6 -12t-13.5 -4z" />
    <glyph glyph-name="backslash" unicode="\" horiz-adv-x="351" 
d="M79 729q4 -90 32 -202q16 -67 58 -201q7 -21 10 -31q31 -99 46 -159q23 -89 31 -163q1 -7 -4 -12.5t-12 -6.5t-12.5 3.5t-6.5 11.5q-8 72 -30 158q-15 60 -46 158q-3 10 -9 31q-43 135 -59 203q-29 115 -33 209q0 7 5 12.5t12 5.5t12.5 -5t5.5 -12z" />
    <glyph glyph-name="bracketright" unicode="]" horiz-adv-x="266" 
d="M51 730q13 8 53 8q18 1 30 -1q9 -2 14 -4q11 -5 14 -15q10 -28 8 -101q-1 -53 -10 -143q-1 -19 -4 -44q0 -1 -2 -24t-3 -30q-3 -29 -5 -49q-4 -51 -4 -74q0 -14 3 -55q1 -7 2.5 -27t3 -39.5t1.5 -22.5q2 -27 4 -49q5 -82 6 -129q1 -66 -10 -82q-9 -13 -29 -16
q-13 -1 -31 2q-9 1 -21 4q-3 1 -11 3l-9 2q-7 2 -11 8t-2.5 13t7.5 11t13 2q1 0 10 -2t11 -3q11 -2 19 -4q13 -2 21 -1q2 0 4 1q1 1 1 3q1 5 2 14q1 16 1 44q-1 46 -6 128q-2 21 -4 49q0 2 -1.5 21.5t-3 39.5t-2.5 27q-3 43 -3 58q0 25 5 77q1 20 4 50q1 6 3 30l2 23
q3 26 4 44q9 89 10 141q2 59 -5 84h-2q-9 2 -23 1q-14 0 -26 -2q-6 0 -9 -1q-2 0 -3 -1q-15 -7 -23 7q-3 7 -1.5 14t8.5 10z" />
    <glyph glyph-name="asciicircum" unicode="^" horiz-adv-x="593" 
d="M19 348q14 20 46 73q12 21 30 52l32 55q2 2 3 5q54 92 80 132q18 30 29 45q7 9 12 14q3 3 6 5q6 4 12 5q7 0 13 -4q3 -2 6 -6q4 -4 10 -12q10 -14 26 -41q26 -43 68 -122l8 -16q12 -21 35 -65t41 -79.5t19 -37.5q4 -6 2 -13t-8.5 -10.5t-13.5 -1t-10 8.5q-2 2 -20 37
t-41 79.5t-35 65.5q-4 8 -8 15q-42 79 -67 121q-15 26 -24 38v1q-1 -2 -2 -3q-11 -14 -29 -42q-25 -41 -79 -132q-1 -1 -2 -4q-26 -44 -33 -56q-18 -31 -30 -52q-33 -54 -48 -75q-4 -6 -11 -7t-13 3t-7 11t3 13z" />
    <glyph glyph-name="underscore" unicode="_" horiz-adv-x="609" 
d="M2 -86h1h1h4q2 0 7 -0.5t7 -0.5h52h168h7h8h157q23 1 59 1h17h2h2h1h1q7 0 12 -5t5 -12t-5 -12.5t-12 -5.5h-1h-2.5h-2.5h-17q-36 0 -59 -1h-157h-8h-7h-168h-52q-2 0 -7 0.5t-8 0.5h-4h-1q-7 0 -12 5t-5 12t5 12.5t12 5.5z" />
    <glyph glyph-name="grave" unicode="`" horiz-adv-x="239" 
d="M51 715q20 -26 51 -80q24 -44 39 -64q4 -5 3 -12.5t-7 -11.5t-13.5 -3t-11.5 7q-15 22 -40 66l-1 1q-29 52 -47 75q-5 6 -4 13t6.5 11.5t13 3.5t11.5 -6z" />
    <glyph glyph-name="a" unicode="a" horiz-adv-x="432" 
d="M265 239q-4 -3 -13 -9q-11 -7 -36 -20q-28 -16 -39 -23q-61 -35 -85 -65q-29 -35 -12 -72q8 -17 30 -28q27 -13 56 -5q21 6 42.5 32.5t35.5 63.5q9 24 14 52q3 16 7 44v30zM62 431q17 42 53.5 62.5t78.5 13.5t71 -36.5t34 -71.5q3 -21 2 -103q1 -6 0 -11v-6
q-1 -37 -1 -58q1 -3 1 -7q-1 -4 -1 -7v-2q0 -92 6 -138q4 -28 10 -42q2 -6 4 -8h1q6 0 10.5 -5t4.5 -12t-5 -12t-12 -5q-13 0 -23 9q-7 7 -12 19q-8 18 -13 51q-1 9 -2 20q-14 -30 -32 -53q-29 -37 -62 -46q-42 -11 -80 7q-34 17 -47 46q-26 56 17 109q28 34 94 72
q12 8 40 23q24 13 35 20t16 11q11 9 16 20q1 85 -1 104q-4 30 -25 51t-51 26q-31 5 -56.5 -9t-37.5 -45q-3 -6 -9.5 -9t-13.5 -0.5t-9.5 9.5t-0.5 13z" />
    <glyph glyph-name="b" unicode="b" horiz-adv-x="446" 
d="M104 280v-29q-1 -84 9 -132q12 -52 45.5 -83t82.5 -33q12 -1 27 7.5t25 20.5q38 46 11 92q-22 36 -90 82q-14 9 -48 30q-29 18 -41 27q-13 10 -21 18zM96 761q23 -52 24 -153q1 -60 -8 -191v-4q-3 -44 -5 -69h1q0 -2 1 -3t1 -3q3 -7 8 -16q1 -2 3 -5l4 -6q6 -10 21 -21
q11 -8 38 -25q35 -22 49 -31q75 -50 101 -94q40 -67 -14 -132q-15 -18 -37.5 -29.5t-43.5 -10.5q-61 3 -103.5 42t-56.5 102q-11 52 -10 139q1 52 8 164v3v1q9 130 8 189q-1 94 -21 139q-3 7 0 14t9.5 9.5t13.5 0t9 -9.5z" />
    <glyph glyph-name="c" unicode="c" horiz-adv-x="421" 
d="M256 389q25 43 10 64q-14 19 -52 15q-45 -5 -82 -39q-43 -39 -54 -103q-10 -52 13.5 -133.5t62.5 -134.5q38 -52 68 -44q40 11 69 115q2 7 8.5 10.5t13 1.5t10.5 -8t2 -13q-35 -123 -94 -139q-28 -8 -58 10q-24 15 -47 46q-44 59 -68.5 147.5t-14.5 147.5q14 75 66 123
q45 41 101 48q58 6 84 -30q29 -39 -7 -102q-4 -6 -11 -8t-13.5 2t-8 11t1.5 13z" />
    <glyph glyph-name="d" unicode="d" horiz-adv-x="463" 
d="M292 275q-10 -9 -22 -17q-22 -15 -71 -37q-1 0 -2 -1l-2 -1q-51 -22 -72 -38q-32 -23 -42 -55q-12 -36 8 -70q20 -32 56 -43q38 -12 73 9q41 25 64 91q13 39 10 86q0 5 2 9q-2 32 -2 67zM356 747q-26 -208 -29 -379q-5 -247 39 -366q3 -6 0 -13t-10 -9.5t-13.5 0.5
t-9.5 10q-15 41 -25 95q-26 -65 -72 -93q-48 -29 -101 -13q-49 15 -76 59q-28 47 -12 99q14 42 55 72q24 18 78 42q1 1 2 1q1 1 2 1q47 21 67 34q29 20 40 44q0 19 1 38q3 173 29 382q1 7 7 11.5t13 3.5t11.5 -6.5t3.5 -12.5z" />
    <glyph glyph-name="e" unicode="e" horiz-adv-x="424" 
d="M91 354q11 3 15 4q39 10 67 19q64 21 90 40q12 10 13 16t-8 15q-44 41 -98 16q-57 -26 -78 -103q0 -3 -1 -7zM50 327q0 6 2 10q2 17 7 33q24 93 97 126q35 16 71 10t65 -33q23 -21 19 -46q-4 -20 -27 -37q-30 -24 -100 -46q-29 -9 -69 -20l-26 -6q-3 -1 -5 -1
q-5 -55 5 -117q15 -83 50 -141t68 -54q35 3 59 44q22 36 27 83q1 7 6.5 12t13 4t12 -6.5t3.5 -13.5q-6 -54 -32 -97q-33 -56 -85 -61q-54 -5 -100 68q-40 64 -56 156q-12 71 -5 133z" />
    <glyph glyph-name="f" unicode="f" horiz-adv-x="327" 
d="M191 716q5 13 5 21q0 5 -1 7q-4 5 -18 2q-19 -5 -37 -24q-20 -21 -26 -53q-11 -58 -9 -148q1 -3 1 -6q52 3 88 -6q7 -2 10.5 -8t2 -13t-8 -11t-13.5 -2q-31 8 -78 5q3 -39 11 -128v-2q11 -124 12 -184q2 -99 -14 -164q-2 -7 -8 -11t-13 -2t-11 8t-2 13q15 61 13 155
q-1 59 -12 182v2q-8 88 -11 128q-20 -2 -42 -6q-7 -1 -13 3t-7.5 11t2.5 13t11 7q25 5 48 7v8q-3 93 8 156q8 41 36 70q24 26 54 34q35 8 53 -14q18 -23 1 -64q-3 -6 -10 -9t-13.5 0t-9 10t0.5 13z" />
    <glyph glyph-name="g" unicode="g" horiz-adv-x="440" 
d="M257 165q36 -13 63 -84q27 -74 24 -151q-3 -91 -52 -135q-59 -52 -168 -16q-62 20 -54 86q5 45 47 115q14 25 35 56q8 10 32 44.5t25 36.5q4 6 7 10q-14 0 -26 5q-25 9 -33 34q-10 31 9 68q-53 2 -81.5 40.5t-21.5 95.5q7 55 41 94q39 43 93 42h3q57 -3 93 -44l2 -2
q4 2 6 5q-10 0 -15 8q-4 6 -2.5 13.5t7.5 10.5q20 13 36 3q14 -9 13 -29q-2 -26 -25 -40q13 -28 14 -58q2 -54 -34 -92q-31 -33 -84 -44q-29 -34 -21 -60q3 -9 12 -12q12 -5 33 -1q3 3 6 4q9 3 16 -3zM256 125q-6 -11 -18 -28q-1 -2 -25.5 -36.5t-31.5 -44.5
q-20 -30 -34 -54q-38 -63 -42 -101q-4 -37 30 -49q90 -30 134 9q37 34 40 111q3 70 -22 137q-11 29 -24 47q-4 5 -7 9zM199 471q-40 1 -68 -31q-28 -30 -33 -74q-6 -44 14 -71q22 -29 69 -26q59 4 89 36q26 27 24 67q-1 38 -27 67t-66 32h-2z" />
    <glyph glyph-name="h" unicode="h" horiz-adv-x="451" 
d="M318 7q11 117 -21 163q-13 17 -34 28q-14 7 -46 17q-5 2 -7 2q-29 9 -45 17q-25 13 -43 31q-5 6 -9 12q1 -47 1 -87q0 -101 -9 -183q0 -7 -6 -11.5t-13 -3.5t-11.5 6.5t-3.5 12.5q8 80 8 179q0 67 -5 181q0 9 -1 27q-5 118 -6 177q-1 99 5 177q1 7 6.5 12t13 4t12 -6.5
t3.5 -12.5q-6 -77 -5 -174q1 -57 6 -163q2 -3 2 -7q5 -80 38 -116q13 -14 32 -23q14 -7 40 -15q2 -1 8 -3q34 -10 51 -19q29 -15 46 -39q41 -57 28 -187q-1 -7 -6.5 -11.5t-13 -4t-12 6t-3.5 13.5z" />
    <glyph glyph-name="i" unicode="i" horiz-adv-x="281" 
d="M91 621q-22 14 -27 33q-7 24 12 36q10 6 20.5 2.5t17.5 -14.5q11 -17 11 -52q0 -7 -5 -12t-12 -5q-13 0 -17 12zM110 482q12 -41 10 -104q-1 -36 -9 -116q-3 -29 -4 -45q-9 -99 -1 -156q2 -17 6 -27q4 5 8 12q11 21 21 52.5t10 48.5q0 7 5 12t12 5t12.5 -5t5.5 -12
q0 -22 -11 -58t-25 -61q-8 -14 -16 -22q-14 -13 -29 -11q-15 3 -24 22q-6 14 -10 40q-8 60 1 163q1 16 4 45q8 80 9 114q2 58 -8 94q-2 7 1.5 13.5t10.5 8t13.5 -2t7.5 -10.5z" />
    <glyph glyph-name="j" unicode="j" horiz-adv-x="222" 
d="M116 470q-19 -44 -18 -134q1 -56 14 -182q0 -4 1 -4q7 -69 9 -105q5 -57 4 -99q-1 -107 -35 -156q-18 -28 -45 -36q-26 -7 -47 6q-22 14 -26 41t14 56q4 6 11 7.5t13 -2t8 -10.5t-2 -14q-11 -18 -9 -32q1 -11 9.5 -16t18.5 -2q15 4 27 21q27 41 28 137q1 62 -13 200
q0 2 -1 4q-13 128 -14 185q-1 98 21 149q2 7 9 9.5t13.5 -0.5t9.5 -9.5t0 -13.5zM97 613q-25 14 -31 35q-7 23 8 37q10 8 21.5 6t18.5 -13q11 -17 11 -52q0 -7 -5 -12t-12 -5q-6 0 -10 3q-1 0 -1 1z" />
    <glyph glyph-name="k" unicode="k" horiz-adv-x="452" 
d="M299 484q12 -57 -27 -93q-25 -24 -81 -42q-8 -3 -23 -7q39 -30 66 -82q16 -31 38 -95q1 -1 1 -2.5t1 -2.5q19 -54 31 -80q20 -41 46 -67q5 -5 5 -12.5t-5 -12.5t-12 -5t-13 5q-30 30 -52 77q-14 28 -33 83l-1.5 3t-0.5 2q-22 62 -36 91q-23 44 -55 69l-1 1q-1 0 -4 1
q-5 2 -14 5q-1 1 -2.5 1.5t-3.5 0.5q-5 -188 -19 -313q-1 -7 -6.5 -11.5t-12.5 -4t-11.5 6.5t-4.5 13q18 157 21 375q3 271 -27 355q-3 7 0.5 13.5t10 9t13 -0.5t9.5 -10q32 -90 29 -367q0 -10 -1 -20q2 0 4 1l17 4q3 0 5 1h2q20 6 28 8q49 16 68 34q25 23 17 61q-1 7 3 13
t11 7.5t13 -2.5t7 -11z" />
    <glyph glyph-name="l" unicode="l" horiz-adv-x="238" 
d="M105 757q25 -74 17 -272q-3 -60 -9 -142q0 -7 -4 -54.5t-4 -56.5q0 -2 -0.5 -6t-1 -8.5t-1 -9.5t-1 -9.5t-0.5 -6.5v-3q-4 -39 -4 -67q-2 -75 16 -97q5 6 14 5q7 0 11.5 -6t3.5 -13q-1 -16 -13 -22.5t-27 0.5q-26 14 -35 57q-6 30 -5 77q0 29 4 69v4q1 4 1.5 9.5t1 11.5
t1 10.5t0.5 6.5q1 9 4.5 56.5t3.5 55.5q6 81 9 140q7 192 -15 260q-2 7 1 13.5t10 8.5t13.5 -1t8.5 -10z" />
    <glyph glyph-name="m" unicode="m" horiz-adv-x="701" 
d="M338 322v-2q0 -26 -3 -81q-1 -6 -1 -9q-5 -85 -1 -126q4 -61 26 -91q4 -6 2.5 -13.5t-7 -11.5t-13 -3t-11.5 7q-27 38 -32 109q-4 43 1 131q0 3 1 9q3 54 3 79q1 42 -3 70q-8 65 -43 85q-16 9 -36 -7q-20 -18 -42 -61q-18 -36 -32 -81q-12 -37 -15 -59q-5 -31 -7 -63
q-1 -76 -9 -195q-1 -7 -6 -11.5t-12 -4.5h-1q-7 0 -11.5 5.5t-4.5 11.5v2q3 48 6 125q1 37 2 57q0 6 1 12v28q-1 146 -26 242q-2 7 1.5 13t10.5 8t13.5 -1.5t8.5 -10.5q15 -58 21 -131q14 38 29 69q24 49 51 71q37 32 75 11q49 -27 60 -106q23 37 48 63q34 34 68 39
q43 7 76 -31q40 -45 49 -117q3 -28 3 -64q0 -22 -3 -66v-7q-4 -72 0 -108q5 -56 28 -93q4 -6 2.5 -13t-7.5 -11t-13.5 -2t-10.5 8q-28 44 -34 107q-4 39 0 114v3v4q3 43 3 64q0 34 -3 59q-8 62 -40 99q-21 23 -44 20q-23 -4 -49 -30q-23 -22 -42.5 -55.5t-26.5 -59.5z" />
    <glyph glyph-name="n" unicode="n" horiz-adv-x="464" 
d="M81 11q0 25 3 100q2 86 2 136q0 152 -22 228q-2 7 1.5 13.5t10.5 8.5t13 -1.5t8 -10.5q13 -43 19 -106q7 27 17 48q20 45 50 66q37 26 85 12q72 -21 87 -108q5 -32 3 -79q-1 -27 -6 -86q-1 -12 -2 -19q-6 -72 -5 -112q3 -55 21 -88q4 -6 2 -13t-8.5 -10.5t-13.5 -1.5
t-10 8q-22 40 -25 104q-3 41 4 116q1 7 2 19q5 58 6 84q2 44 -3 72q-11 65 -62 80q-32 9 -55 -7q-22 -15 -38 -52q-25 -55 -33 -144q-3 -36 -6 -78q-1 -13 -2 -34q-4 -94 -8 -147q0 -2 -1 -5q-2 -4 -5 -6.5t-6 -3.5t-6 -1t-6 1q-4 2 -6.5 4.5t-3.5 6.5q-1 3 -1 6z" />
    <glyph glyph-name="o" unicode="o" 
d="M186 -21q-63 46 -103 136q-38 86 -41 178q-3 97 36 156q46 70 134 64q82 -6 122 -65q32 -49 31 -129q0 -65 -22 -140q-19 -65 -45 -110l-1 -1l-1 -2l-2 -4q-3 -6 -6 -11q-9 -14 -17 -26q-13 -20 -25 -32q-14 -14 -26 -19q-19 -7 -34 5zM207 7q5 2 14 11q9 10 21 27
q8 11 16 24l6 10l2 4l1 1l1 2q23 42 41 103q21 70 21 131q1 69 -26 109q-29 44 -95 49q-67 5 -102 -48q-33 -50 -30 -136q3 -87 39 -167.5t91 -119.5z" />
    <glyph glyph-name="p" unicode="p" horiz-adv-x="487" 
d="M111 207q11 10 26 19q25 15 80 37q2 1 7 3q57 24 82 40q36 24 47 54q12 35 -15 68q-27 34 -73 46q-48 13 -84 -9q-43 -25 -55 -93q-10 -55 -15 -165zM75 -234q-1 32 -2 88q-1 90 -1 172q2 255 19 353q15 83 72 116q49 29 111 13q57 -15 91 -58q39 -48 21 -101
q-14 -42 -61 -73q-27 -18 -88 -42l-6 -3q-53 -22 -76 -35q-33 -21 -45 -45q0 -1 -1 -2q-1 -56 -2 -123q0 -82 1 -172q1 -55 2 -87q0 -7 -5 -12t-12 -5.5t-12.5 4.5t-5.5 12z" />
    <glyph glyph-name="q" unicode="q" horiz-adv-x="453" 
d="M321 254q0 66 -13 111q-20 67 -64 93q-37 21 -81 10q-43 -12 -67.5 -45t-13.5 -69q12 -40 45 -57q25 -13 77 -18q5 0 17 -1q52 -5 75 -12q14 -5 25 -12zM324 -242q-30 93 -21 241q2 34 8 98q7 78 9 110q-10 18 -35 26q-19 6 -67 10q-12 1 -18 1q-58 6 -88 21
q-48 24 -64 80q-15 52 20 99q32 43 86 57q59 16 108 -13q56 -33 79 -113q16 -54 15 -134q0 -15 -1 -28v-7q-2 -33 -9 -112q-6 -64 -8 -98q-9 -140 19 -228q2 -6 -1.5 -12.5t-10 -9t-13 1t-8.5 10.5z" />
    <glyph glyph-name="r" unicode="r" horiz-adv-x="347" 
d="M76 488q11 13 24 2h1l1 -1q2 -1 7 -2l1 -1h1q9 -2 13 -5h1q24 16 54 19q38 4 58 -15q27 -24 6 -63q-3 -7 -10 -9t-13.5 1t-8.5 10t1 14q5 9 5 16q-1 3 -3 6q-9 8 -32 5q-25 -2 -45 -18q-21 -17 -23 -42q-2 -29 0 -69q2 -24 7 -76q3 -26 4 -39q7 -71 4 -116
q-4 -63 -26 -108q-4 -6 -10.5 -8.5t-13 1t-9 10.5t0.5 13q19 38 23 94q3 43 -4 111q-1 13 -3 38q-6 53 -7 78q-3 43 -1 74q3 25 17 46q-12 4 -18 9q-5 5 -5.5 12t3.5 13z" />
    <glyph glyph-name="s" unicode="s" horiz-adv-x="373" 
d="M49 66q28 -30 62.5 -43.5t64 -6.5t46.5 34q21 32 21 87q0 43 -27 80q-19 27 -62 62q-21 17 -35 28q-40 34 -54 60q-21 39 -6 83q11 33 39 48t64 10q32 -4 62 -23t48 -46q5 -6 3.5 -13.5t-7.5 -11.5t-13 -2.5t-11 7.5q-15 21 -38.5 36t-48.5 19q-51 7 -65 -35
q-10 -30 3 -55q12 -21 46 -50q7 -5 35 -28q47 -38 69 -68q33 -47 33 -101q0 -66 -26 -106q-25 -39 -68 -49q-39 -10 -82.5 6.5t-78.5 53.5q-5 5 -4.5 12.5t5.5 12.5t12.5 4.5t12.5 -5.5z" />
    <glyph glyph-name="t" unicode="t" horiz-adv-x="322" 
d="M21 474q24 10 54 13q4 0 7 1v21q2 64 -3 107q-1 7 3.5 13t12 6.5t13 -4t6.5 -11.5q5 -46 3 -112v-19q5 1 11 1q45 0 67 4q7 1 13 -3t7 -11t-3 -13t-12 -7q-24 -4 -71 -5q-8 0 -14 -1q-1 -22 -4 -69q-1 -23 -2 -36q-6 -103 -3 -163q3 -83 23 -136q5 -14 18 -24t27 -10
q10 -1 14 4q6 8 2 27q-2 7 2 13t11 7.5t13 -2.5t8 -11q8 -35 -8 -55q-15 -20 -44 -18q-24 1 -45.5 17t-30.5 40q-22 58 -25 147q-3 61 3 166q1 13 2 36q3 44 4 65h-1q-25 -2 -44 -10q-7 -3 -14 0t-9.5 9.5t0.5 13t9 9.5z" />
    <glyph glyph-name="u" unicode="u" horiz-adv-x="472" 
d="M107 480q10 -44 10 -101q0 -33 -5 -100l-3 -48q-6 -111 16 -178q19 -55 67 -39q22 8 43 27.5t31 42.5t17 47q11 40 16 89q1 12 2 22q1 35 4 76q2 49 4 76q3 39 8 73q1 4 1 8q0 5 3 9q6 11 18 9q8 -1 12 -7t3 -13l-2 -10q-1 -21 -7 -90q-3 -35 -5 -57v-4q-2 -48 -4 -71
q-3 -147 39 -231q3 -7 0.5 -13.5t-9 -10t-13 -1t-10.5 8.5q-23 47 -33 106q-5 -15 -12 -30q-12 -29 -38.5 -54t-56.5 -35q-37 -13 -67 2.5t-44 57.5q-15 44 -18 97q-3 40 0 95q1 16 3 49q5 65 5 97q0 53 -9 93q-1 7 2.5 13.5t10.5 8t13.5 -2.5t7.5 -11z" />
    <glyph glyph-name="v" unicode="v" horiz-adv-x="401" 
d="M48 488q58 -110 89 -246q15 -69 18 -127q5 9 11 22l11 21q11 21 14 27q15 29 25 50q41 87 51 139q12 61 -17 87q-6 5 -6 12.5t4.5 13t12 5.5t12.5 -5q44 -39 29 -120q-11 -56 -55 -147q-10 -22 -25 -51l-13.5 -27t-11.5 -21q-13 -27 -22 -44q-22 -46 -29 -72
q-4 -13 -17 -13q-3 0 -5 1q-13 3 -13 16q0 3 1 5q22 80 -9 220q-30 132 -86 237q-3 6 -1 13t8.5 10.5t13 1.5t10.5 -8z" />
    <glyph glyph-name="w" unicode="w" horiz-adv-x="575" 
d="M65 478q0 -1 2 -16t4.5 -35t3.5 -31q11 -85 23 -153q26 -151 55 -203q7 -13 13 -17q1 -2 2 -2h1q5 2 12 13q10 15 20 43l3 9q3 9 4 11q4 10 6 16q5 16 7 26q3 17 -4 35q-2 4 -3 7t-1 7q-1 12 10 17q7 3 13.5 0t9.5 -9q2 -4 3 -8q18 -36 61 -95q22 -31 39 -50l7 -7
q6 28 18 62q7 22 23 62q1 1 1 2q20 51 29 78q13 42 17 79q3 31 -9 60q-9 22 -28 48q-5 5 -9 11q-1 1 -4.5 5.5t-4.5 5.5q-11 14 -16 22q-4 6 -2.5 13.5t7.5 11t13 2t11 -7.5q4 -7 14 -19q1 -1 4.5 -5.5t4.5 -5.5q6 -7 10 -12q22 -30 33 -56q14 -37 11 -77q-4 -40 -19 -86
q-9 -27 -29 -80q-1 -1 -1 -2q-16 -40 -23 -60q-12 -34 -17 -61v-1q0 -1 -1 -1v-2q-1 -4 -2 -6q-2 -8 -6 -13q-7 -10 -18 -10q-7 -1 -14 3q-4 2 -9 6q-7 7 -17 18q-18 20 -42 53q-15 21 -29 43q-2 -6 -5 -14q-2 -7 -6 -17q-1 -2 -4 -11l-3 -9q-25 -66 -53 -77q-19 -6 -36 7
q-12 9 -23 28q-31 57 -59 214q-12 69 -23 155q-1 11 -3.5 31t-4 34.5t-2.5 14.5q-1 8 3.5 13.5t11.5 6.5t13 -3t7 -11z" />
    <glyph glyph-name="x" unicode="x" horiz-adv-x="434" 
d="M68 491q37 -42 66 -99q18 -37 37 -92q11 14 14 18q38 48 57 81q27 44 38 87q2 7 8 11t13 2t10.5 -8t2.5 -13q-12 -48 -41 -97q-21 -35 -60 -84l-26 -33q-1 -1 -2 -3q0 -1 1 -2q15 -45 24 -68q14 -36 29 -63q36 -67 92 -109q6 -4 7 -11.5t-3.5 -13t-11.5 -6.5t-13 3
q-62 47 -102 120q-16 29 -31 68q-8 20 -18 49q-32 -44 -52 -81q-38 -70 -46 -146q0 -7 -5.5 -12t-13 -4t-12 6.5t-3.5 12.5q8 83 49 160q24 45 70 104q-2 4 -4 10q-21 61 -40 99q-26 52 -61 91q-4 5 -4 12.5t5.5 12t13 4.5t12.5 -6z" />
    <glyph glyph-name="y" unicode="y" horiz-adv-x="403" 
d="M50 476q4 -105 41 -149q28 -33 69 -21q42 12 76 60q27 39 34 87q1 12 2 25q1 7 6 11.5t12 4.5h1q7 0 11.5 -5t4.5 -12q0 -14 -2 -28q-8 -90 -27 -168q-2 -9 -10.5 -42.5t-9.5 -38.5q-1 -6 -3 -12q-16 -76 -82 -227q-74 -172 -118 -204q-6 -4 -13 -3t-11.5 7t-3 13t7.5 11
q36 27 106 189q64 149 80 222q1 6 3 12q1 5 9.5 38.5t10.5 42.5q5 22 10 43q-38 -47 -85 -60q-63 -17 -105 33q-45 53 -49 170q0 7 4.5 12.5t12 5.5t13 -4.5t5.5 -12.5z" />
    <glyph glyph-name="z" unicode="z" horiz-adv-x="384" 
d="M54 444q-4 26 18 42q12 9 36 15q6 1 14 2q3 1 6 1h4l2 1q75 12 105 -15q28 -25 13 -75q-10 -33 -38 -75q-5 -6 -9 -13l1 -1q11 -7 18 -20q6 -9 11 -23q1 -5 3 -11l1 -2q1 -2 1.5 -4t0.5 -3q28 -84 42 -184q8 -64 5 -111q-5 -58 -28 -86q-34 -41 -81 -41q-41 0 -80 29
q-37 28 -60 69.5t-23 80.5q0 7 5 12t12 5t12.5 -5t5.5 -12q0 -30 19.5 -64.5t49.5 -56.5q30 -23 58 -23q31 0 55 28q33 39 15 170q-13 97 -40 178q0 1 -1 3t-1 4l-1 2q-2 6 -3 10q-8 21 -14 25q-1 1 -3 0q-5 -1 -15 -11q-5 -6 -12 -6t-12 5q-6 5 -6 13q0 7 5 12q20 21 40 51
q25 37 33.5 65.5t-3.5 38.5q-17 16 -76 7q-17 -3 -24 -5q-16 -3 -23 -8q-4 -3 -3 -8q1 -7 -3 -13t-11 -7t-13 3t-8 11z" />
    <glyph glyph-name="braceleft" unicode="{" horiz-adv-x="287" 
d="M163 706q-23 10 -35 4t-19 -26q-8 -21 -12 -59q-3 -25 -6 -78q-1 -22 -2 -32q-5 -79 -15 -121q-12 -52 -38 -79q31 -36 43 -94q8 -42 9 -126v-7q0 -52 1 -77q3 -40 11 -68q19 -64 80 -87q7 -3 10 -9.5t0.5 -13t-9.5 -9.5t-13 -1q-77 29 -101 111q-10 31 -13 75
q-1 26 -1 78v8q-1 81 -8 119q-12 58 -45 89q-11 9 -4 21q2 5 6 7q25 19 38 71q10 39 14 115q1 10 2 32q3 54 6 80q4 42 14 67q27 73 101 42q7 -2 9.5 -9t-0.5 -13.5t-9.5 -9.5t-13.5 0z" />
    <glyph glyph-name="bar" unicode="|" horiz-adv-x="224" 
d="M129 749v-2v-9v-32v-113v-343v-344v-113v-32v-8v-3q0 -7 -5.5 -12.5t-12.5 -5.5t-12 5.5t-5 12.5v3v8v32v113v344v343v113v32v9v2q0 8 5 13t12 5t12.5 -5t5.5 -13z" />
    <glyph glyph-name="braceright" unicode="}" horiz-adv-x="338" 
d="M53 738q76 30 105 -42q9 -25 14 -68q3 -25 6 -80q2 -22 2 -31q5 -76 15 -116q13 -52 40 -70q6 -4 7.5 -11t-2.5 -13q-3 -4 -7 -6q-32 -31 -43 -87q-7 -39 -8 -120v-7q0 -53 -1 -79q-3 -44 -12 -75q-24 -82 -100 -110q-7 -3 -13.5 0t-9 9.5t0.5 13.5t10 9q59 23 78 88
q8 27 11 67q1 25 1 77v8q1 84 9 126q11 59 43 95q-25 26 -38 77q-11 42 -16 122q0 9 -2 31q-3 54 -5 78q-5 38 -13 58.5t-20 26.5q-14 6 -39 -4q-7 -2 -13.5 1t-9 9.5t0 13t9.5 9.5z" />
    <glyph glyph-name="asciitilde" unicode="~" horiz-adv-x="674" 
d="M85 263q61 92 133 92q29 0 63 -14q20 -9 56 -30q15 -9 22 -13q57 -31 91 -26q49 9 96 91q3 6 10 8t13.5 -1.5t8.5 -10.5t-2 -14q-55 -96 -120 -107q-28 -5 -60 5q-22 7 -54 25q-7 4 -22 13q-35 20 -53 28q-27 11 -49 11q-53 0 -103 -76q-4 -6 -11.5 -7.5t-13.5 2.5
t-7.5 11t2.5 13z" />
    <glyph glyph-name="exclamdown" unicode="&#xa1;" horiz-adv-x="268" 
d="M165 462q-2 -6 -7 -10q-5 -3 -12 -3q-3 0 -6 1.5l-7 3.5q-7 7 -14 18q-9 15 -8 27q1 11 9 18t20 8q16 0 25 -11q7 -8 7 -21q1 -16 -7 -31zM154 325q7 -168 7 -265q0 -149 -12 -266q0 -7 -6 -11.5t-13 -4t-11.5 6t-3.5 13.5q11 115 11 262q0 97 -7 263q0 8 5 13t12 5.5
t12.5 -4.5t5.5 -12z" />
    <glyph glyph-name="cent" unicode="&#xa2;" horiz-adv-x="459" 
d="M206 32q2 27 2 57q0 52 -7 156v1q-6 103 -7 155q0 29 1 56q-22 -10 -40 -26q-47 -39 -59 -102q-10 -53 15 -134t67 -134q14 -18 28 -29zM292 392q26 42 10 63q-16 20 -58 15q-7 0 -13 -2q-2 -31 -2 -67q1 -51 7 -153q7 -106 7 -158q0 -40 -3 -74q7 -1 14 1q44 11 75 115
q2 7 8.5 10.5t13.5 1.5t10.5 -8.5t1.5 -13.5q-38 -123 -100 -139q-13 -3 -26 -2q-2 -25 -7 -49q-1 -7 -7 -11t-13 -2.5t-11 7t-3 13.5q5 25 7 53q-27 14 -53 47q-46 59 -73 147.5t-15 148.5q14 75 70 123q30 25 66 38q3 30 8 59q1 7 7 11.5t13 3t11 -7.5t3 -13
q-4 -22 -6 -45q3 1 6 1q62 6 89 -29q32 -40 -8 -103q-3 -6 -10 -7.5t-13.5 2.5t-8 11t2.5 13z" />
    <glyph glyph-name="sterling" unicode="&#xa3;" horiz-adv-x="495" 
d="M98 344q5 -68 22 -147q16 -73 43 -153q37 -5 91 -22q2 0 17.5 -5t18.5 -6q19 -6 30 -9q23 -4 31 2q10 8 10 43q-1 43 -20 129q-1 7 2.5 13t10.5 7.5t13.5 -2.5t7.5 -11q21 -91 20.5 -139.5t-22.5 -66.5q-20 -17 -60 -9q-13 3 -33 9q-4 1 -19.5 6t-17.5 6q-57 18 -97 21
q-56 5 -104 -17q-6 -3 -13 -0.5t-10 9t-0.5 13t9.5 9.5q45 22 97 22q-24 75 -39 144q-18 80 -23 150q-11 -2 -21 -5q-7 -2 -13.5 1t-8.5 10t1.5 13.5t10.5 8.5q14 5 30 7q-3 102 23 178q31 91 101 146q36 28 79 36.5t86 -4.5q17 -6 30 -19.5t16 -30.5q5 -21 -2 -41
q-4 -14 -16 -32l-3 -3q0 -1 -1 -3l-1 -1q-8 -13 -12 -20q-3 -6 -10 -8.5t-13.5 1t-8.5 10t1 13.5q4 9 14 23l1 2q1 1 1 2q1 2 2 3q18 28 14 47q-3 17 -23 24q-70 22 -133 -27q-115 -90 -110 -292q19 1 44 0q10 0 30 -1q45 -1 66 0q32 2 53 10q6 2 13 -1t9.5 -9.5t-0.5 -13
t-9 -9.5q-26 -10 -64 -12q-22 -1 -69 0q-20 1 -30 1q-24 1 -42 0z" />
    <glyph glyph-name="currency" unicode="&#xa4;" horiz-adv-x="510" 
d="M313 151q38 56 41 135q3 80 -33 135q-39 59 -108 61q-3 0 -6 1q-48 -3 -81 -57q-35 -58 -39 -143t26 -141q31 -58 89 -56q61 3 102 53q1 6 5 10zM55 537l25 -32q19 -24 29 -41l1 -1q44 57 106 55q3 0 6 -2q65 -5 109 -51l4 6q6 9 20 24q0 1 1 1q19 22 25 34q4 7 10.5 9
t13 -1t9 -10t-0.5 -13q-9 -17 -31 -42l-1 -1q-22 -25 -27 -38q38 -63 35 -150q-3 -85 -44 -148q16 -19 40 -55q1 -1 5.5 -7t5.5 -8q7 -11 13 -18q4 -6 3 -13.5t-7 -11.5t-13.5 -3t-11.5 7q-5 8 -13 19q-1 2 -5.5 8.5t-4.5 7.5q-21 30 -34 45q-49 -53 -120 -56
q-61 -2 -101 45q-23 -24 -45 -67q-3 -6 -10 -8.5t-13.5 0.5t-8.5 10t1 14q26 52 56 81q-34 64 -30 159q4 83 37 145q-4 7 -9 15q-10 15 -28 38q-15 20 -25 33q-4 6 -3 13t6.5 11.5t13 3.5t11.5 -7z" />
    <glyph glyph-name="yen" unicode="&#xa5;" horiz-adv-x="512" 
d="M67 362q52 1 140 5h3h3q0 51 -4 92q-115 -1 -140 -4q-7 0 -12.5 4.5t-6.5 11.5t4 12.5t12 6.5q24 2 120 4q-39 34 -77 79q-63 74 -77 124q-2 7 1.5 13t10.5 8t13.5 -1.5t8.5 -10.5q12 -43 70 -111q43 -51 85 -85q11 13 27 31q8 8 21 22q16 17 21 22q45 47 65 76
q20 26 28 48q3 7 9.5 10t13 0.5t9.5 -9t1 -13.5q-10 -26 -32 -56.5t-69 -79.5l-21 -23q-12 -13 -20 -21q-12 -12 -20 -22q92 1 93 1h25q7 1 12.5 -4t5.5 -12.5t-5 -12.5t-12 -6h-25q-5 0 -22 -0.5t-42.5 -0.5h-39.5q3 -41 4 -91h1q91 5 126 6q8 1 13 -4t5.5 -12.5
t-4.5 -12.5t-12 -6q-36 -1 -126 -6h-3q-1 -29 -3 -92q-1 -26 -2 -38q-4 -125 5 -200q1 -7 -4 -12.5t-12 -6.5t-12.5 3.5t-6.5 12.5q-9 77 -5 204q1 13 2 38q2 61 2 89h-4q-88 -4 -141 -5q-7 0 -12.5 5.5t-5.5 12.5t5 12t13 5z" />
    <glyph glyph-name="brokenbar" unicode="&#xa6;" horiz-adv-x="231" 
d="M129 667q-2 -43 1 -132v-12q3 -113 -4 -175q-1 -7 -6.5 -11.5t-13 -3.5t-12 6.5t-3.5 12.5q7 59 4 171v11q-3 90 -1 135q1 7 6 12t12.5 4.5t12 -5.5t4.5 -13zM130 153q0 -31 3 -115v-18q2 -76 2 -114q0 -59 -6 -82q-1 -7 -7.5 -10.5t-13.5 -2t-10.5 8t-2.5 13.5
q5 18 5 73q0 38 -2 113v18q-3 84 -3 116q0 7 5.5 12.5t12.5 5.5t12 -5.5t5 -12.5z" />
    <glyph glyph-name="section" unicode="&#xa7;" horiz-adv-x="479" 
d="M190 459q-64 -10 -85 -63q-28 -67 -1 -112q11 -20 34 -39q17 -14 49 -36q2 -1 8.5 -5.5t8.5 -5.5q18 -12 29 -20q10 10 31 26l3 2q39 31 54 52q24 32 25 58q2 21 -12 41q-14 19 -42 39q-19 14 -60 38h-1q-28 17 -41 25zM344 654q10 17 -5 28q-22 16 -63 15
q-47 -1 -83 -24q-42 -26 -56 -74q-11 -38 22 -71q15 -15 40 -32q16 -11 50 -31l1 -1q43 -25 62 -39q33 -24 50 -47q45 -63 -12 -141q-12 -16 -30 -32q-11 -10 -31 -26l-3 -2q-17 -13 -25 -21q24 -20 39 -41q44 -60 40 -145q-2 -57 -49 -86q-40 -25 -95 -20q-54 5 -92 36
q-44 35 -44 88q0 8 5 13t12 5t12.5 -5t5.5 -13q0 -36 31 -61q30 -24 73.5 -28t73.5 14q30 20 32 58q3 73 -34 124q-14 19 -38 39q-17 14 -49 35q-1 1 -8 5.5t-8 5.5q-34 23 -52 38q-28 23 -42 48q-36 60 -2 144q22 54 81 76q-11 9 -19 18q-47 48 -31 104q18 61 71 95
q45 28 101 29q53 1 85 -22q18 -14 22.5 -33.5t-7.5 -40.5q-4 -6 -11 -8t-13.5 1.5t-8 10.5t1.5 14z" />
    <glyph glyph-name="dieresis" unicode="&#xa8;" horiz-adv-x="315" 
d="M43 641q1 1 1 2v6q-1 10 -3 14q-7 -4 -10 -8q-2 -2 -2 -4q0 -3 6 -7q5 -3 8 -3zM20 691q6 15 22 11q33 -11 37 -49q3 -34 -23 -44q-19 -8 -41 6t-21 37t26 39zM184 644q0 1 1 2v7q-1 9 -4 13q-6 -4 -9 -8q-2 -2 -2 -4q0 -3 5 -7q6 -3 9 -3zM161 694q6 16 22 11
q33 -11 36 -49q4 -34 -22 -44q-20 -8 -41 6q-22 14 -21.5 37t26.5 39z" />
    <glyph glyph-name="copyright" unicode="&#xa9;" horiz-adv-x="710" 
d="M323 700q-104 0 -177 -104q-70 -100 -78 -241q-9 -143 54 -240q70 -106 209 -109q118 -1 186 104q64 98 62.5 241.5t-67.5 242.5q-70 106 -188 106h-1zM326 735q135 0 215 -122q72 -107 73 -261q2 -154 -67 -261q-79 -122 -217 -120q-157 3 -237 125q-70 106 -60 262
q9 150 84 258q84 120 208 119h1zM387 523q1 9 -3 13q-3 4 -17 9q-56 19 -94 -15q-36 -33 -52 -103q-15 -67 -6 -136.5t37 -104.5q28 -34 74 -22q44 11 67 51q3 6 10 8t13.5 -1.5t8.5 -10.5t-2 -13q-14 -25 -37.5 -43t-51.5 -25q-67 -17 -109 34q-33 41 -44 119t6 152
q19 81 63 121q53 48 128 22q22 -8 32 -18q14 -15 12 -40q-1 -7 -6.5 -11.5t-12.5 -4t-12 6t-4 12.5z" />
    <glyph glyph-name="ordfeminine" unicode="&#xaa;" horiz-adv-x="380" 
d="M237 581q-72 17 -101 -17q-25 -29 -12 -74q6 -19 17 -31t24 -13q14 -1 31 12q22 18 43 57q1 1 1 2v10q-1 27 -2 39q0 8 -1 15zM86 691q14 21 37 31q18 8 44 10q61 6 86 -53q16 -36 20 -111q1 -13 2 -40q2 -65 8 -84q2 -6 -1 -12.5t-10 -9t-13.5 1t-8.5 9.5q-3 11 -6 26
q-39 -51 -82 -48q-25 2 -44 21t-27 48q-9 28 -4 57t22 50q40 46 125 31q-5 29 -13 47q-15 36 -50 33q-42 -4 -56 -26q-4 -6 -11 -7.5t-13 2.5t-7.5 11t2.5 13z" />
    <glyph glyph-name="guillemotleft" unicode="&#xab;" horiz-adv-x="389" 
d="M150 263q6 8 21.5 29.5t17.5 23.5q28 40 44 68q17 29 27 52q2 7 9 10t13.5 0t9.5 -9.5t0 -13.5q-10 -26 -29 -57q-17 -29 -46 -70q-2 -2 -14 -19.5t-18 -25.5q16 -14 30 -36q16 -25 31 -62q6 -16 19 -53q10 -29 15 -39q1 -2 1 -3q4 -7 2 -13.5t-8.5 -10t-13.5 -1.5t-11 9
q0 2 -1 4q-6 12 -17 43q-13 36 -19 51q-28 72 -63 93q-6 3 -8 10t2 14q2 4 6 6zM27 255q4 6 22 31t19 27q28 40 45 68t26 52q3 6 9.5 9t13.5 0.5t9.5 -9.5t0.5 -13q-11 -26 -29 -57q-17 -29 -46 -71q-2 -2 -7 -9t-12.5 -17t-11.5 -17q34 -29 63 -96q11 -24 23 -61l4 -10
q3 -11 4 -13q3 -11 5 -16q3 -7 0.5 -13.5t-9.5 -9.5t-13.5 0t-9.5 9q-2 6 -7 18q0 3 -4 13l-4 11q-11 35 -21 59q-29 68 -63 89q-2 0 -3 1q-6 4 -7.5 11.5t3.5 13.5z" />
    <glyph glyph-name="logicalnot" unicode="&#xac;" horiz-adv-x="681" 
d="M93 406q19 -3 86 -2q44 1 141 5h6q114 5 157 5q35 1 55 0q11 -1 18 -2q12 -2 17 -7q7 -7 10 -24q2 -11 2 -29q1 -30 -1 -78q-3 -75 -8 -119q-1 -7 -6.5 -11.5t-13 -3.5t-12 6.5t-3.5 12.5q5 42 8 117q2 46 1 74q0 16 -2 25v3q-5 1 -12 1q-19 1 -53 0q-42 0 -156 -5h-3h-2
q-98 -4 -142 -5q-70 -1 -93 3q-7 1 -11 7t-3 13t7 11.5t13 2.5z" />
    <glyph glyph-name="registered" unicode="&#xae;" horiz-adv-x="528" 
d="M239 712q-63 0 -107 -64q-44 -62 -49 -150q-6 -90 34 -150q43 -65 128 -67q72 -1 114 64q39 61 38 150.5t-42 151.5q-43 65 -114 65h-2zM242 747q89 0 143 -81q46 -70 47 -170q1 -101 -44 -170q-52 -81 -144 -80q-103 2 -157 83q-45 69 -39 171q6 98 55 168q56 80 138 79
h1zM204 601q-3 -11 1 -42q0 -5 1 -13q2 -14 3 -20q13 1 24 4q3 2 6 2q11 3 19 9q18 11 20 27q2 13 -10 23q-14 12 -41 11h-6h-11t-6 -1zM174 388q3 23 2 54v29q-1 23 -1 35q0 7 -3 35q-1 9 -2 14q-5 46 3 64q5 11 18 15q7 2 16 3h14h4q42 2 66 -20q26 -22 22 -54
q-4 -31 -35 -51q-4 -3 -8 -5q7 -8 12 -18q8 -14 18 -40q11 -27 18 -39q3 -6 6 -11q4 -6 2 -13t-8 -11t-13 -2.5t-11 8t-7 12.5q-8 14 -19 43q-10 24 -16 36q-8 13 -17 23q-11 -3 -25 -4q1 -6 1 -19v-29q1 -34 -3 -59q-1 -7 -6.5 -11.5t-12.5 -3.5t-11.5 6.5t-3.5 12.5z" />
    <glyph glyph-name="macron" unicode="&#xaf;" horiz-adv-x="320" 
d="M-3 646q32 -2 72 -1q31 1 82 5q22 1 28 2q16 1 27 2q7 0 12.5 -4.5t6 -12t-4.5 -13t-12 -5.5q-11 -1 -26 -2l-29 -2q-51 -4 -82 -5q-43 -2 -76 1q-7 0 -12 5.5t-4.5 13t6 12t12.5 4.5z" />
    <glyph glyph-name="degree" unicode="&#xb0;" horiz-adv-x="355" 
d="M141 723q4 2 8 3q50 4 81 -38q27 -35 29 -87q2 -53 -23 -92q-29 -45 -83 -48q-51 -2 -78 40q-21 34 -18 86q2 48 25 87q23 41 59 49zM152 690q-23 -4 -40.5 -34.5t-19.5 -70.5q-2 -41 13.5 -65.5t45.5 -23.5q36 2 56 32q19 29 17 71q-2 41 -22 68q-18 24 -45 24
q-2 -1 -5 -1z" />
    <glyph glyph-name="plusminus" unicode="&#xb1;" horiz-adv-x="669" 
d="M345 559q9 -78 7 -194q13 -1 29 -1q137 -4 172 -4q7 0 12.5 -5t5.5 -12.5t-5.5 -12.5t-12.5 -5q-36 0 -173 4q-16 0 -29 1q0 -16 -1 -49q-3 -89 -3 -131q0 -8 -5 -13t-12.5 -5t-12.5 5t-5 13q0 43 3 132q1 33 1 49q-154 4 -212 0q-7 0 -12.5 4.5t-6 12t4.5 13t12 5.5
q59 4 215 0q2 113 -6 189q-1 7 3.5 12.5t11.5 6.5t13 -3.5t6 -11.5zM98 73q41 8 105 8q44 1 121 -2q7 -1 20 -1q80 -4 116 -4q59 0 94 5q7 1 13 -3t7 -11.5t-3.5 -13t-11.5 -6.5q-37 -6 -100 -6q-36 0 -117 4q-12 0 -19 1q-77 3 -119 2q-62 0 -99 -7q-7 -1 -13 3t-7.5 11
t2.5 13t11 7z" />
    <glyph glyph-name="uni00B2" unicode="&#xb2;" horiz-adv-x="346" 
d="M62 654q20 43 51 60t63 5q31 -11 47.5 -44t12.5 -76q-1 -16 -22 -55q-7 -14 -20 -36q-2 -4 -5 -9l-1 -2q-1 -2 -2.5 -4.5t-2.5 -3.5q-6 -12 -11 -20q-7 -13 -13 -24q-37 -69 -44 -102q-4 -17 -1 -23q2 -4 12 -4q11 0 30 -2h3q42 -3 52 2q3 1 4 5q2 10 -5 29q-3 7 0 13.5
t10 9t13.5 -0.5t8.5 -10q11 -28 8 -47q-4 -21 -24 -31q-13 -6 -34 -6q-11 -1 -36 1h-3q-18 2 -27 2q-31 0 -43 23q-9 17 -3 47q9 38 48 111q6 11 14 24q4 8 11 20q0 1 1.5 3.5t2.5 4.5l1 2q4 5 6 9q12 22 19 35q17 33 18 42q3 31 -7.5 54t-29.5 31q-17 6 -34 -3
q-21 -12 -36 -45q-3 -6 -10 -8.5t-13.5 0.5t-9 9.5t0.5 13.5z" />
    <glyph glyph-name="uni00B3" unicode="&#xb3;" horiz-adv-x="342" 
d="M87 656q-11 29 5 52q14 18 40 24t50.5 -3t35.5 -31q0 -1 1 -2q2 -3 5 -8q0 -1 1 -2t1 -2q2 -2 3 -4q9 -14 10 -31q0 -18 -10 -39q-10 -19 -32 -45l-7 -7q-6 -8 -13 -16t-9 -10v-1q2 -1 6 -2l1 -1q1 -1 2 -1l4 -2q22 -11 34 -28q12 -18 21 -51t10 -67q1 -39 -8 -66
q-11 -35 -39 -47q-23 -9 -50 -2q-20 6 -42 22q-26 19 -56 53q-5 5 -4.5 12.5t6 12t13 4t12.5 -5.5q27 -31 49 -48q36 -25 59 -16q28 12 25 80q-1 29 -8.5 57.5t-16.5 42.5q-7 9 -21 16q-1 0 -3 1q-1 1 -2 1l-1 1q-15 7 -22 12q-7 6 -8 15q-1 6 2 13q2 7 10 16q1 3 6 8.5
l10 11t9 10.5l4 5q20 23 28 38q6 13 6 22q-1 7 -5 14q-1 1 -2 3l-1 2l-2 2q-3 6 -6 11q-1 1 -2 3q-5 9 -18 13.5t-28 1.5q-14 -3 -19 -11q-5 -7 -1 -19q3 -6 0 -13t-10 -9.5t-13.5 0.5t-9.5 10z" />
    <glyph glyph-name="acute" unicode="&#xb4;" horiz-adv-x="284" 
d="M185 692q-15 -18 -41 -58v-1q-32 -47 -50 -69q-5 -5 -12.5 -6t-13 4t-6 12t4.5 13q17 20 47 66h1q27 42 43 61q4 6 11.5 6.5t13 -4t6 -11.5t-3.5 -13z" />
    <glyph glyph-name="uni00B5" unicode="&#xb5;" horiz-adv-x="468" 
d="M78 -206q8 109 15 332q9 257 3 326v1q0 7 4.5 12t11.5 6h2q6 0 11 -5t6 -11q6 -65 19 -151q18 -122 40 -193q13 -42 25 -62q6 -9 11 -12l1 -1h1q1 0 2 1q3 2 6 6q8 10 16 28q19 43 38 127q3 12 7 27l5 19q4 19 5 24q12 50 17 86q7 50 7 106q0 7 5.5 12t12.5 5t12 -5
t5 -12q0 -55 4 -208q1 -48 1 -77q2 -92 2 -154q0 -7 -5.5 -12.5t-12.5 -5.5t-12 5.5t-5 12.5q0 62 -2 153q0 25 -1 60q-4 -16 -4 -17q-4 -15 -7 -27q-20 -88 -40 -133q-21 -48 -47 -55q-16 -4 -31 6q-11 7 -20 22q-16 24 -30 71q-13 43 -25 106q-1 -39 -3 -82
q-7 -224 -15 -334q-1 -7 -6.5 -12t-12.5 -4.5t-12 6t-4 13.5z" />
    <glyph glyph-name="paragraph" unicode="&#xb6;" horiz-adv-x="601" 
d="M283 685q-47 -7 -88.5 -29.5t-67.5 -55.5q-31 -39 -31 -82q-1 -47 37 -90q24 -29 55 -42q21 -10 64 -19q2 0 6 -1h2q2 -1 3 -1q7 -1 11 -2q5 -1 9 -2v216v37v32v39zM459 -113q0 129 4 387t4 387q0 2 1 8q0 1 0.5 3t0.5 4v3q1 3 1 5.5v4.5q-6 1 -13 1q-26 1 -61.5 1
t-60.5 -1q-7 0 -11 -1q-3 -1 -6 -1v-42v-31.5v-37.5q1 -165 0 -280q0 -173 -2 -274q-2 -129 -7 -144q-3 -7 -9.5 -10t-13 -0.5t-9.5 9t-1 13.5v2q1 3 1 8q1 11 2 29q1 34 2 94q2 101 2 273v28q-7 2 -16 4q-4 1 -11 2h-3q-1 1 -2 1q-4 1 -6 1q-47 10 -71 21q-38 17 -68 51
q-44 51 -45.5 109t39.5 108q34 42 87.5 69t113.5 32h3q3 1 8 1q8 0 22 1q26 1 62 1t62 -1q13 -1 21 -1q5 0 7 -1q8 -1 12 -5q6 -5 7 -13q1 -3 1 -8q0 -6 -1 -16q-1 -3 -1 -7v-2q-1 -2 -1 -4v-3q0 -2 -1 -3v-1q0 -129 -4 -387t-4 -387q0 -7 -5 -12.5t-12 -5.5t-12.5 5.5
t-5.5 12.5z" />
    <glyph glyph-name="periodcentered" unicode="&#xb7;" horiz-adv-x="237" 
d="M62 286q2 1 3 3q23 15 49 3q30 -13 28 -44q-2 -30 -29 -38q-20 -7 -42 3q-24 11 -28 32q-5 23 19 41zM87 260q-7 -4 -10 -8v-1q1 -1 1 -2q3 -2 7 -4q10 -4 18 -2q4 1 4 7q0 7 -7 11q-6 2 -12 0q-1 0 -1 -1z" />
    <glyph glyph-name="cedilla" unicode="&#xb8;" horiz-adv-x="288" 
d="M20 -184q48 -26 89 -10q35 13 46 44q9 25 -9 35q-27 18 -94 -5q-11 -4 -19 5l-1 1q-6 5 -7 12t3 13q12 16 32 51q17 31 27 45q4 6 11 7.5t13 -2.5t7.5 -11t-2.5 -13q-9 -14 -25 -43q-8 -13 -13 -22q56 12 87 -8q19 -12 25 -33.5t-2 -43.5q-17 -46 -66 -65
q-56 -21 -118 12q-7 3 -9 10t1.5 13.5t10.5 8.5t13 -1z" />
    <glyph glyph-name="uni00B9" unicode="&#xb9;" horiz-adv-x="286" 
d="M79 661q12 13 38 30l1 1h1q16 11 23 16q0 1 2 3q1 3 2 4q2 3 4 5q6 5 12 6q11 1 18 -7q6 -7 8 -32q1 -18 2 -48q1 -51 0 -139q-1 -38 -2 -89v-24.5v-30.5l-1 -15q-1 -33 -1 -42q0 -7 -5 -12.5t-12 -5.5t-12.5 5.5t-5.5 12.5q0 10 1 42q0 1 0.5 15.5t0.5 31v23.5
q1 51 2 90q1 87 0 137q-1 21 -1 35q-6 -4 -16 -10l-1 -1q-1 0 -1 -1q-23 -14 -32 -24q-5 -5 -12 -5t-12.5 5t-5.5 12t5 12z" />
    <glyph glyph-name="ordmasculine" unicode="&#xba;" horiz-adv-x="396" 
d="M171 689q-29 -6 -51 -44q-23 -39 -26 -90q-3 -52 17 -84q20 -33 61 -31q46 2 72 42q24 36 22 89t-28 87t-66 31h-1zM171 724q58 4 95 -45q32 -43 35 -106q2 -64 -28 -110q-35 -55 -99 -58q-61 -3 -93 47q-25 42 -22 105q4 59 30 106q31 53 79 61h3z" />
    <glyph glyph-name="guillemotright" unicode="&#xbb;" horiz-adv-x="362" 
d="M169 439q18 -38 55 -110q0 -1 2 -4q1 -2 1 -3q2 -3 3 -6q22 -42 34 -67q3 -5 2 -10q1 -6 -2 -11q-12 -25 -35 -66q-2 -3 -6 -11q-41 -73 -58 -112q-3 -6 -9.5 -9t-13 0t-9.5 9.5t0 13.5q17 40 59 115q5 8 6 11q21 38 33 60q-12 22 -32 61q-1 3 -3 6q0 1 -1 2q-2 4 -2 5
q-37 72 -56 110q-3 7 -0.5 14t9 10t13 0.5t10.5 -8.5zM68 442q19 -38 56 -110q0 -1 1.5 -3.5t1.5 -3.5q2 -3 3 -6q22 -42 34 -67q3 -5 2 -10q1 -6 -2 -11q-12 -25 -35 -66q-2 -3 -7 -11q-40 -73 -57 -112q-3 -6 -9.5 -9t-13.5 0t-9.5 9.5t0.5 13.5q17 40 59 115q4 8 6 11
q21 38 32 60q-11 23 -31 61q-1 3 -3 6q0 1 -1.5 3.5t-1.5 3.5q-38 72 -56 110q-3 7 -0.5 14t9 10t13 0.5t9.5 -8.5z" />
    <glyph glyph-name="onequarter" unicode="&#xbc;" horiz-adv-x="770" 
d="M440 110q28 -5 66 3q21 5 54 16q0 4 -1 11q-6 42 -7 65v1q-1 1 -1 2v3q-3 38 -4 60q-1 23 -1 44l-22 -38q-7 -11 -13 -21q-41 -72 -59 -112q-10 -22 -12 -34zM79 661q12 13 38 30l1 1h1q16 11 23 16q0 1 2 3q1 3 2 4q2 3 4 5q6 5 12 6q11 1 18 -7q6 -7 8 -32q1 -18 2 -48
q1 -51 0 -139q-1 -38 -2 -89v-24.5v-30.5l-1 -15q-1 -33 -1 -42q0 -7 -5 -12.5t-12 -5.5t-12.5 5.5t-5.5 12.5q0 10 1 42q0 1 0.5 15.5t0.5 31v23.5q1 51 2 90q1 87 0 137q-1 21 -1 35q-6 -4 -16 -10l-1 -1q-1 0 -1 -1q-23 -14 -32 -24q-5 -5 -12 -5t-12.5 5t-5.5 12t5 12z
M501 731q-61 -159 -138 -382q-7 -19 -15 -42l-13 -39l-7 -20q-4 -11 -7 -20q-16 -47 -27 -80q-33 -92 -59 -166q-2 -7 -8.5 -10t-13.5 -0.5t-10 9t-1 13.5q26 73 59 166q11 32 27 80q3 8 7 20q5 15 7 19q8 24 13 40q8 23 15 42q77 223 139 382q2 7 8.5 10t13.5 0.5t10 -9
t0 -13.5zM566 5q4 37 -2 89q-29 -11 -51 -15q-51 -11 -90 -1q-13 4 -17 18q-2 8 0 20q2 16 14 42q18 42 61 115q6 11 13 22q16 27 48 80q10 16 16 26q4 14 10 27t19 10q6 1 11 -2q7 -3 9 -10t-2 -13q-5 -9 -15 -26q-11 -43 -8 -115q1 -21 4 -58v-3q0 -2 1 -4q1 -21 7 -62v-4
q9 3 19 6q23 8 41 10q7 2 13 -2.5t7.5 -11.5t-3 -13t-11.5 -7q-15 -3 -37 -9q-10 -3 -25 -9q7 -60 3 -104q0 -7 -6 -11.5t-13 -4t-11.5 6t-4.5 13.5z" />
    <glyph glyph-name="onehalf" unicode="&#xbd;" horiz-adv-x="755" 
d="M79 661q12 13 38 30l1 1h1q16 11 23 16q0 1 2 3q1 3 2 4q2 3 4 5q6 5 12 6q11 1 18 -7q6 -7 8 -32q1 -18 2 -48q1 -51 0 -139q-1 -38 -2 -89v-24.5v-30.5l-1 -15q-1 -33 -1 -42q0 -7 -5 -12.5t-12 -5.5t-12.5 5.5t-5.5 12.5q0 10 1 42q0 1 0.5 15.5t0.5 31v23.5
q1 51 2 90q1 87 0 137q-1 21 -1 35q-6 -4 -16 -10l-1 -1q-1 0 -1 -1q-23 -14 -32 -24q-5 -5 -12 -5t-12.5 5t-5.5 12t5 12zM501 731q-61 -159 -138 -382q-7 -19 -15 -42l-13 -39l-7 -20q-4 -11 -7 -20q-16 -47 -27 -80q-33 -92 -59 -166q-2 -7 -8.5 -10t-13.5 -0.5t-10 9
t-1 13.5q26 73 59 166q11 32 27 80q3 8 7 20q5 15 7 19q8 24 13 40q8 23 15 42q77 223 139 382q2 7 8.5 10t13.5 0.5t10 -9t0 -13.5zM470 365q20 43 52 60q31 17 63 5q31 -11 47.5 -44t12.5 -76q-2 -16 -22 -55q-8 -14 -20 -36q-2 -4 -6 -9v-1q-4 -7 -5 -9q-7 -12 -11 -20
q-8 -13 -13 -23q-38 -70 -45 -103q-4 -17 -1 -23q2 -4 13 -4q10 0 29 -2h3q43 -3 53 2q3 2 4 5q2 10 -6 29q-2 7 1 13.5t9.5 9t13.5 -0.5t9 -10q11 -28 8 -47q-4 -21 -24 -31q-13 -6 -34 -6q-12 -1 -36 1h-3q-18 2 -27 2q-32 0 -44 23q-9 17 -2 47q8 38 48 111q6 11 13 24
q5 8 11 20q6 9 6 10q3 6 5 9q13 22 20 35q17 33 18 42q3 32 -7.5 54.5t-29.5 30.5q-17 6 -35 -3q-21 -12 -36 -45q-3 -6 -10 -8.5t-13.5 0.5t-9 10t0.5 13z" />
    <glyph glyph-name="threequarters" unicode="&#xbe;" horiz-adv-x="770" 
d="M440 110q28 -5 66 3q21 5 54 16q0 4 -1 11q-6 42 -7 65v1q-1 1 -1 2v3q-3 38 -4 60q-1 23 -1 44l-22 -38q-7 -11 -13 -21q-41 -72 -59 -112q-10 -22 -12 -34zM501 731q-61 -159 -138 -382q-7 -19 -15 -42l-13 -39l-7 -20q-4 -11 -7 -20q-16 -47 -27 -80q-33 -92 -59 -166
q-2 -7 -8.5 -10t-13.5 -0.5t-10 9t-1 13.5q26 73 59 166q11 32 27 80q3 8 7 20q5 15 7 19q8 24 13 40q8 23 15 42q77 223 139 382q2 7 8.5 10t13.5 0.5t10 -9t0 -13.5zM566 5q4 37 -2 89q-29 -11 -51 -15q-51 -11 -90 -1q-13 4 -17 18q-2 8 0 20q2 16 14 42q18 42 61 115
q6 11 13 22q16 27 48 80q10 16 16 26q4 14 10 27t19 10q6 1 11 -2q7 -3 9 -10t-2 -13q-5 -9 -15 -26q-11 -43 -8 -115q1 -21 4 -58v-3q0 -2 1 -4q1 -21 7 -62v-4q9 3 19 6q23 8 41 10q7 2 13 -2.5t7.5 -11.5t-3 -13t-11.5 -7q-15 -3 -37 -9q-10 -3 -25 -9q7 -60 3 -104
q0 -7 -6 -11.5t-13 -4t-11.5 6t-4.5 13.5zM87 656q-11 29 5 52q14 18 40 24t50.5 -3t35.5 -31q8 -15 8 -36q0 -14 -4 -33q-8 -42 -43 -90q-3 -3 -6 -7q1 0 2 -1q11 -3 19 -7q11 -6 18 -17q28 -41 32 -120q1 -39 -7 -68q-11 -37 -36 -52q-18 -10 -45 -2q-18 6 -42 21
q-39 26 -63 53q-5 5 -4.5 12.5t6 12t13 4t12.5 -5.5q20 -23 55 -46q20 -13 34 -17q12 -4 16 -2q29 17 26 88q-2 30 -9 59t-17 43q-5 7 -17 11q-1 0 -4 1q-18 4 -27 12q-9 7 -9.5 9t5.5 13q0 1 0.5 1.5t0.5 1.5l3 3q2 3 6 8v1q3 3 6 8q1 0 2 2l1 2q31 41 38 76q6 31 -2 47
q-5 9 -18 13.5t-28 1.5q-14 -3 -19 -11q-5 -7 -1 -19q3 -6 0 -13t-10 -9.5t-13.5 0.5t-9.5 10z" />
    <glyph glyph-name="questiondown" unicode="&#xbf;" horiz-adv-x="387" 
d="M178 471q0 3 -2 7q-7 -3 -11 -7h2q4 -1 8 0h3zM147 502q1 13 15 15q12 1 19 0q15 -3 23 -17q20 -35 -2 -55q-17 -14 -43 -8q-12 2 -20 9q-11 8 -13 22q-1 13 11 26q4 4 10 8zM189 294q3 -55 -21 -113q-15 -35 -52 -96q0 -1 -1 -2t-1 -2q-2 -3 -3 -5q-3 -5 -6 -9
q-34 -57 -46 -93q-17 -50 -7 -98q11 -57 47 -80q32 -20 70 -8q40 13 65 52q27 44 21 103q0 7 4.5 12.5t11.5 6.5t12.5 -3.5t6.5 -12.5q7 -71 -27 -125q-31 -50 -83 -66q-54 -17 -99 12q-49 30 -63 102q-12 57 8 117q13 39 49 99q3 4 6 9q1 2 3 5l1 2q1 2 2 2q35 59 48 91
q21 51 19 99q0 7 5 12t12 5.5t12.5 -4.5t5.5 -12z" />
    <glyph glyph-name="Agrave" unicode="&#xc0;" horiz-adv-x="508" 
d="M94 231q132 -14 222 9q-32 116 -47 182q-7 29 -15 90q-2 18 -3 25q-13 92 -33 135q-1 2 -1 4q-2 2 -2 4l-3 3q-3 -3 -7 -11q-1 -2 -2.5 -5.5t-2.5 -6.5l-2 -4q-32 -71 -55 -165q-14 -58 -34 -174v-3q-10 -55 -15 -83zM-5 21q7 3 10 6.5t6 14.5q0 1 1 2v1l1 2q1 4 2 7
q19 57 34 130q10 45 25 136q1 1 1 3q20 117 34 176q24 98 57 171q5 13 7 17q7 14 15 22q15 13 33 9q9 -2 16 -10q5 -5 8 -12q2 -2 3 -5l2 -5q14 -29 23 -70q6 -29 13 -74q1 -7 3 -25q8 -59 14 -87q16 -68 53 -203l2 -6q38 -137 54 -209q2 -7 -2 -13t-11 -7.5t-13 2t-8 11.5
q-15 70 -52 201q-98 -24 -238 -9l-4 -20q-16 -76 -36 -134l-4 -12q-5 -16 -11 -24q-10 -13 -27 -19q-7 -2 -13.5 1t-9 10t1 13.5t10.5 8.5zM151 900q8 -11 19 -24q7 -9 17 -20q6 -7 15 -16q1 -1 7 -7.5t7 -8.5l10 -10q1 -1 2 -1.5t2 -1.5v-1l2 -2q3 -2 5 -6q0 -1 1 -2
q3 -5 3 -11q0 -8 -7 -14q-5 -3 -10 -3q-9 0 -15 7q-4 6 -18 22q-2 1 -8 7.5t-7 7.5q-9 10 -15 17q-10 11 -18 20q-12 15 -21 27q-4 6 -2.5 13.5t7.5 11.5t13 2.5t11 -7.5z" />
    <glyph glyph-name="Aacute" unicode="&#xc1;" horiz-adv-x="508" 
d="M94 231q132 -14 222 9q-32 116 -47 182q-7 29 -15 90q-2 18 -3 25q-13 92 -33 135q-1 2 -1 4q-2 2 -2 4l-3 3q-3 -3 -7 -11q-1 -2 -2.5 -5.5t-2.5 -6.5l-2 -4q-32 -71 -55 -165q-14 -58 -34 -174v-3q-10 -55 -15 -83zM-5 21q7 3 10 6.5t6 14.5q0 1 1 2v1l1 2q1 4 2 7
q19 57 34 130q10 45 25 136q1 1 1 3q20 117 34 176q24 98 57 171q5 13 7 17q7 14 15 22q15 13 33 9q9 -2 16 -10q5 -5 8 -12q2 -2 3 -5l2 -5q14 -29 23 -70q6 -29 13 -74q1 -7 3 -25q8 -59 14 -87q16 -68 53 -203l2 -6q38 -137 54 -209q2 -7 -2 -13t-11 -7.5t-13 2t-8 11.5
q-15 70 -52 201q-98 -24 -238 -9l-4 -20q-16 -76 -36 -134l-4 -12q-5 -16 -11 -24q-10 -13 -27 -19q-7 -2 -13.5 1t-9 10t1 13.5t10.5 8.5zM225 771l-4 -4q-5 -6 -13 -6q-6 0 -11 4q-6 5 -6 13q0 7 4 12q2 2 24.5 29.5t28.5 35.5l8 8q17 20 29 34q5 5 12.5 5t12.5 -4.5
t5.5 -12t-4.5 -12.5q-12 -13 -29 -32q-3 -5 -7 -9l-46 -56v-1l-2.5 -2.5z" />
    <glyph glyph-name="Acircumflex" unicode="&#xc2;" horiz-adv-x="508" 
d="M94 231q132 -14 222 9q-32 116 -47 182q-7 29 -15 90q-2 18 -3 25q-13 92 -33 135q-1 2 -1 4q-2 2 -2 4l-3 3q-3 -3 -7 -11q-1 -2 -2.5 -5.5t-2.5 -6.5l-2 -4q-32 -71 -55 -165q-14 -58 -34 -174v-3q-10 -55 -15 -83zM-5 21q7 3 10 6.5t6 14.5q0 1 1 2v1l1 2q1 4 2 7
q19 57 34 130q10 45 25 136q1 1 1 3q20 117 34 176q24 98 57 171q5 13 7 17q7 14 15 22q15 13 33 9q9 -2 16 -10q5 -5 8 -12q2 -2 3 -5l2 -5q14 -29 23 -70q6 -29 13 -74q1 -7 3 -25q8 -59 14 -87q16 -68 53 -203l2 -6q38 -137 54 -209q2 -7 -2 -13t-11 -7.5t-13 2t-8 11.5
q-15 70 -52 201q-98 -24 -238 -9l-4 -20q-16 -76 -36 -134l-4 -12q-5 -16 -11 -24q-10 -13 -27 -19q-7 -2 -13.5 1t-9 10t1 13.5t10.5 8.5zM108 776q17 29 34 59q5 11 12 24l5 10t5 9q10 21 16 29q11 15 24 17q8 1 17 -4q5 -3 10 -9q7 -7 20 -26l5 -9q6 -8 12.5 -17.5
t9.5 -14.5q20 -30 40 -57q5 -6 4 -13t-7 -11.5t-13 -3.5t-12 7q-21 28 -41 59q-3 4 -9.5 14t-12 18t-5.5 9q-10 14 -14 19q-4 -6 -13 -23q-1 -1 -5 -9l-5 -10q-7 -13 -13 -24q-16 -31 -34 -61q-4 -6 -11 -8t-13.5 2t-8 11t2.5 13z" />
    <glyph glyph-name="Atilde" unicode="&#xc3;" horiz-adv-x="508" 
d="M94 231q132 -14 222 9q-32 116 -47 182q-7 29 -15 90q-2 18 -3 25q-13 92 -33 135q-1 2 -1 4q-2 2 -2 4l-3 3q-3 -3 -7 -11q-1 -2 -2.5 -5.5t-2.5 -6.5l-2 -4q-32 -71 -55 -165q-14 -58 -34 -174v-3q-10 -55 -15 -83zM-5 21q7 3 10 6.5t6 14.5q0 1 1 2v1l1 2q1 4 2 7
q19 57 34 130q10 45 25 136q1 1 1 3q20 117 34 176q24 98 57 171q5 13 7 17q7 14 15 22q15 13 33 9q9 -2 16 -10q5 -5 8 -12q2 -2 3 -5l2 -5q14 -29 23 -70q6 -29 13 -74q1 -7 3 -25q8 -59 14 -87q16 -68 53 -203l2 -6q38 -137 54 -209q2 -7 -2 -13t-11 -7.5t-13 2t-8 11.5
q-15 70 -52 201q-98 -24 -238 -9l-4 -20q-16 -76 -36 -134l-4 -12q-5 -16 -11 -24q-10 -13 -27 -19q-7 -2 -13.5 1t-9 10t1 13.5t10.5 8.5zM97 800q4 53 46 58q24 4 67 -14q6 -2 14 -6q26 -11 35 -14q7 -3 12 -4h4h1q7 1 22 19l2 2l1 2q2 2 3 4l7 7q5 5 9 8q6 5 13 4
t11.5 -7t3.5 -13t-7 -12q-2 -1 -5 -4t-12 -13q-9 -12 -16 -18q-12 -11 -24 -13q-14 -3 -37 5q-10 3 -37 15q-8 3 -13 5q-35 15 -50 13q-6 -1 -9 -5q-5 -6 -6 -22q0 -7 -5.5 -11.5t-13 -4t-12 6t-4.5 12.5z" />
    <glyph glyph-name="Adieresis" unicode="&#xc4;" horiz-adv-x="508" 
d="M94 231q132 -14 222 9q-32 116 -47 182q-7 29 -15 90q-2 18 -3 25q-13 92 -33 135q-1 2 -1 4q-2 2 -2 4l-3 3q-3 -3 -7 -11q-1 -2 -2.5 -5.5t-2.5 -6.5l-2 -4q-32 -71 -55 -165q-14 -58 -34 -174v-3q-10 -55 -15 -83zM283 825q-1 -1 -2 -1q-7 -4 -14.5 -2t-11.5 9
q-2 2 -3 6q-3 4 -5 8q-5 11 -1 22.5t16 16.5q11 5 20.5 1t13.5 -15q3 -11 -1 -25q1 -1 1 -3q0 -13 -13 -17zM163 828q-1 -1 -2 -1q-7 -4 -14.5 -2t-12.5 9l-2 6q-3 4 -5 8q-5 11 -1 22.5t15 16.5t21 1t13 -15q4 -10 0 -25v-2q1 -14 -12 -18zM-5 21q7 3 10 6.5t6 14.5
q0 1 1 2v1l1 2q1 4 2 7q19 57 34 130q10 45 25 136q1 1 1 3q20 117 34 176q24 98 57 171q5 13 7 17q7 14 15 22q15 13 33 9q9 -2 16 -10q5 -5 8 -12q2 -2 3 -5l2 -5q14 -29 23 -70q6 -28 13 -74q1 -12 3 -25q8 -59 14 -87q16 -68 53 -203l2 -6q38 -137 54 -209q2 -7 -2 -13
t-11 -7.5t-13 2t-8 11.5q-15 70 -52 201q-98 -24 -238 -9l-4 -20q-16 -76 -36 -134l-4 -12q-5 -16 -11 -24q-10 -13 -27 -19q-7 -2 -13.5 1t-9 10t1 13.5t10.5 8.5z" />
    <glyph glyph-name="Aring" unicode="&#xc5;" horiz-adv-x="508" 
d="M94 231q132 -14 222 9q-32 116 -47 182q-7 29 -15 90q-2 18 -3 25q-13 92 -33 135q-1 2 -1 4q-2 2 -2 4l-3 3q-3 -3 -7 -11q-1 -2 -2.5 -5.5t-2.5 -6.5l-2 -4q-32 -71 -55 -165q-14 -58 -34 -174v-3q-10 -55 -15 -83zM212 953q1 1 2 1q49 0 70 -35q20 -32 6 -75
q-23 -70 -73 -70q-41 0 -70 45q-30 45 -17 85q15 49 82 49zM-5 21q7 3 10 6.5t6 14.5q0 1 1 2v1l1 2q1 4 2 7q19 57 34 130q10 45 25 136q1 1 1 3q20 117 34 176q24 98 57 171q5 13 7 17q7 14 15 22q15 13 33 9q9 -2 16 -10q5 -5 8 -12q2 -2 3 -5l2 -5q14 -29 23 -70
q6 -29 13 -74q1 -7 3 -25q8 -59 14 -87q16 -68 53 -203l2 -6q38 -137 54 -209q2 -7 -2 -13t-11 -7.5t-13 2t-8 11.5q-15 70 -52 201q-98 -24 -238 -9l-4 -20q-16 -76 -36 -134l-4 -12q-5 -16 -11 -24q-10 -13 -27 -19q-7 -2 -13.5 1t-9 10t1 13.5t10.5 8.5zM214 918
q-24 0 -37 -8q-10 -6 -14 -17q-7 -24 13 -54q19 -30 41 -30q10 0 19 8q12 12 20 38q9 27 -2 45t-38 19z" />
    <glyph glyph-name="AE" unicode="&#xc6;" horiz-adv-x="695" 
d="M151 225q29 6 71 4q18 -1 50 -5h4h2q1 -1 2 -1q5 0 8 -1q-7 55 -10 114q-7 127 3 228q7 70 22 108q-20 -17 -39 -53q-34 -65 -67 -194q-9 -34 -19 -80q-1 -5 -3 -14t-4.5 -19t-4.5 -19t-4 -15l-1 -7q-6 -28 -10 -46zM536 684q-47 15 -100 17q-50 2 -75 -11q-2 -1 -3 -2
q-6 -3 -9 -6q-23 -22 -33 -122q-8 -79 -5 -180q38 12 106 14q89 1 126 -15q7 -2 10 -9t0 -13.5t-10 -9.5t-13 0q-31 13 -113 12q-75 -2 -104 -15v-6q7 -127 28 -216q11 -46 24 -73q13 -25 23 -30q29 -12 73 0q24 7 63 25q2 1 13 6t13 6q15 7 25 11q7 3 14 0t9.5 -9.5
t-0.5 -13.5t-10 -9q-9 -4 -23 -11q-3 -1 -14 -6t-12 -6q-42 -19 -69 -27q-55 -15 -95 2q-42 18 -68 127q-7 33 -14 73q-4 0 -8 1q-4 0 -9 1h-2h-2q-3 0 -4 1q-30 3 -48 4q-51 2 -80 -8q-4 -13 -7 -22q-12 -29 -31 -59q-13 -19 -37 -49l-3 -3q-2 -3 -5 -7t-6.5 -8.5
t-5.5 -5.5q-13 -18 -23 -31q-4 -6 -11 -7t-13 3t-7.5 11t3.5 13q10 14 24 32q2 2 5 6.5t6.5 8.5t6.5 7l2 3q45 57 62 99q9 23 27 102l1 7q2 6 4 15t4 19t4.5 19t3.5 14q10 46 19 81q34 133 70 201q24 45 51 67q30 24 64 21q33 15 89 13q58 -2 110 -19q7 -2 10 -8.5t1 -13
t-8.5 -10t-13.5 -1.5z" />
    <glyph glyph-name="Ccedilla" unicode="&#xc7;" horiz-adv-x="562" 
d="M409 620q-32 55 -97 76q-74 22 -136 -64q-60 -85 -82 -224q-22 -143 12 -251q36 -116 125 -137q61 -15 99 2q30 13 63 55q8 11 20 28q17 24 22 31q4 6 11 7t13 -3t7 -11.5t-3 -13.5l-22 -31q-12 -17 -20 -28q-39 -50 -77 -67q-25 -10 -55 -11q-6 -11 -23 -39
q-5 -8 -11 -17q81 1 113 -24q21 -16 19 -41q-2 -20 -20 -39q-34 -36 -93 -45q-68 -10 -120 28q-5 5 -6.5 12t3 13t11.5 7t13 -4q40 -29 94 -21q46 7 72 34q10 11 11 18q0 6 -6 11q-27 21 -121 14q-11 -1 -16.5 8t-0.5 19q1 0 1 1l1 1q0 1 1 1q3 6 6 11q10 17 19 31
q8 14 14 24q-13 1 -27 5q-109 26 -151 161q-36 116 -12 266q22 148 88 239q77 107 174 77q79 -24 117 -92q4 -6 2 -13t-8.5 -10.5t-13.5 -1.5t-10 8z" />
    <glyph glyph-name="Egrave" unicode="&#xc8;" horiz-adv-x="466" 
d="M336 678q-11 0 -31 2q-7 1 -17 2q-2 0 -9.5 1t-9.5 1q-24 3 -40 4q-81 7 -99 -12q-2 -2 -5 -9q-3 -9 -6 -23q-6 -30 -9 -77q-3 -31 -4 -67q40 11 100 10q63 -2 120 -15q7 -1 11 -7t2.5 -13.5t-8 -11t-13.5 -2.5q-53 12 -113 14q-64 1 -100 -12q0 -55 1 -115
q4 -125 15 -217q6 -46 13 -75q3 -14 7 -22q2 -6 4 -7q10 -9 46 -8q15 0 36 2q2 1 9 1.5t8 0.5q2 0 12 1t11 1q16 1 27 3q38 5 49 14q5 4 12.5 3t12 -6.5t3.5 -13t-7 -11.5q-18 -14 -65 -21q-12 -1 -29 -3q-1 0 -10.5 -1t-12.5 -1q-1 0 -8 -0.5t-9 -0.5q-22 -3 -38 -3
q-50 -1 -70 16q-22 19 -36 127q-11 94 -15 220q-3 128 4 222q8 110 30 132q18 18 57 23q28 3 70 -1q16 -1 41 -4q51 -6 63 -6q7 0 12 -5t5 -12.5t-5 -12.5t-12 -5zM132 897q18 -18 69 -62q2 -2 4 -5q4 -3 13 -10.5t17 -14.5l8 -7q5 -4 5.5 -11.5t-4 -13t-12 -6t-12.5 4.5
l-8 7q-8 7 -17 14.5t-12 10.5q-3 2 -5 4q-52 45 -72 65q-5 5 -4.5 12.5t5.5 12.5t12.5 5t12.5 -6z" />
    <glyph glyph-name="Eacute" unicode="&#xc9;" horiz-adv-x="466" 
d="M336 678q-11 0 -31 2q-7 1 -17 2q-2 0 -9.5 1t-9.5 1q-24 3 -40 4q-81 7 -99 -12q-2 -2 -5 -9q-3 -9 -6 -23q-6 -30 -9 -77q-3 -31 -4 -67q40 11 100 10q63 -2 120 -15q7 -1 11 -7t2.5 -13.5t-8 -11t-13.5 -2.5q-53 12 -113 14q-64 1 -100 -12q0 -55 1 -115
q4 -125 15 -217q6 -46 13 -75q3 -14 7 -22q2 -6 4 -7q10 -9 46 -8q15 0 36 2q2 1 9 1.5t8 0.5q2 0 12 1t11 1q16 1 27 3q38 5 49 14q5 4 12.5 3t12 -6.5t3.5 -13t-7 -11.5q-18 -14 -65 -21q-12 -1 -29 -3q-1 0 -10.5 -1t-12.5 -1q-1 0 -8 -0.5t-9 -0.5q-22 -3 -38 -3
q-50 -1 -70 16q-22 19 -36 127q-11 94 -15 220q-3 128 4 222q8 110 30 132q18 18 57 23q28 3 70 -1q16 -1 41 -4q51 -6 63 -6q7 0 12 -5t5 -12.5t-5 -12.5t-12 -5zM183 808q15 16 37 33q8 6 19 14l18 13q20 14 29 22q5 4 8 8q5 5 12 5.5t12.5 -4.5t6 -12t-4.5 -13
q-5 -5 -11 -10q-10 -9 -32 -25q-13 -10 -17 -12q-11 -8 -19 -14q-19 -15 -33 -29q-5 -6 -12.5 -6t-12.5 5t-5 12.5t5 12.5z" />
    <glyph glyph-name="Ecircumflex" unicode="&#xca;" horiz-adv-x="466" 
d="M336 678q-11 0 -31 2q-7 1 -17 2q-2 0 -9.5 1t-9.5 1q-24 3 -40 4q-81 7 -99 -12q-2 -2 -5 -9q-3 -9 -6 -23q-6 -30 -9 -77q-3 -31 -4 -67q40 11 100 10q63 -2 120 -15q7 -1 11 -7t2.5 -13.5t-8 -11t-13.5 -2.5q-53 12 -113 14q-64 1 -100 -12q0 -55 1 -115
q4 -125 15 -217q6 -46 13 -75q3 -14 7 -22q2 -6 4 -7q10 -9 46 -8q15 0 36 2q2 1 9 1.5t8 0.5q2 0 12 1t11 1q16 1 27 3q38 5 49 14q5 4 12.5 3t12 -6.5t3.5 -13t-7 -11.5q-18 -14 -65 -21q-12 -1 -29 -3q-1 0 -10.5 -1t-12.5 -1q-1 0 -8 -0.5t-9 -0.5q-22 -3 -38 -3
q-50 -1 -70 16q-22 19 -36 127q-11 94 -15 220q-3 128 4 222q8 110 30 132q18 18 57 23q28 3 70 -1q16 -1 41 -4q51 -6 63 -6q7 0 12 -5t5 -12.5t-5 -12.5t-12 -5zM121 798q18 29 34 59q6 11 12 24q1 2 5.5 10t4.5 9q11 21 16 29q11 15 24 17q9 1 17 -4q5 -3 11 -9
q7 -7 19 -26q1 0 6 -8.5t11.5 -18t9.5 -14.5q20 -30 41 -57q4 -6 3 -13t-7 -11.5t-13 -3.5t-11 7q-21 28 -42 59q-3 4 -9.5 14t-12 18t-5.5 9q-9 14 -14 19q-4 -6 -13 -23q0 -1 -4 -9t-6 -10q-6 -13 -12 -24q-17 -31 -35 -61q-4 -6 -11 -8t-13 2t-8 11t2 13z" />
    <glyph glyph-name="Edieresis" unicode="&#xcb;" horiz-adv-x="466" 
d="M245 875v4q0 7 5 12.5t12 5.5q25 0 45 -16q16 -11 25 -30q8 -17 9 -31q0 -10 -5 -17q-11 -15 -27.5 -4.5t-40.5 35.5l-1.5 1.5l-1.5 1.5q-1 2 -2 3q-9 8 -14 13q-11 10 -4 22zM157 843q0 1 -1 2q-5 7 -13 12q7 -8 14 -14zM99 865q-5 10 2 19q10 12 26 13q11 1 24 -5
q21 -9 33 -27q22 -31 18 -48q-3 -16 -18 -20q-9 -2 -21 2q-18 6 -36.5 24t-26.5 39q-1 2 -1 3zM336 678q-11 0 -31 2q-7 1 -17 2q-2 0 -9.5 1t-9.5 1q-24 3 -40 4q-81 7 -99 -12q-2 -2 -5 -9q-3 -9 -6 -23q-6 -30 -9 -77q-3 -31 -4 -67q40 11 100 10q63 -2 120 -15
q7 -1 11 -7t2.5 -13.5t-8 -11t-13.5 -2.5q-53 12 -113 14q-64 1 -100 -12q0 -55 1 -115q4 -125 15 -217q6 -46 13 -75q3 -14 7 -22q2 -6 4 -7q10 -9 46 -8q15 0 36 2q2 1 9 1.5t8 0.5q2 0 12 1t11 1q16 1 27 3q38 5 49 14q5 4 12.5 3t12 -6.5t3.5 -13t-7 -11.5
q-18 -14 -65 -21q-12 -1 -29 -3q-1 0 -10.5 -1t-12.5 -1q-1 0 -8 -0.5t-9 -0.5q-22 -3 -38 -3q-50 -1 -70 16q-22 19 -36 127q-11 94 -15 220q-3 128 4 222q8 110 30 132q18 18 57 23q28 3 70 -1q16 -1 41 -4q51 -6 63 -6q7 0 12 -5t5 -12.5t-5 -12.5t-12 -5z" />
    <glyph glyph-name="Igrave" unicode="&#xcc;" horiz-adv-x="238" 
d="M33 909q3 -3 19 -19.5t19 -20.5q30 -32 48 -68q3 -7 1 -14t-8.5 -10t-13.5 -1t-10 9q-16 32 -42 60q-4 4 -20 20.5t-19 19.5q-5 5 -4.5 12.5t5.5 12.5t12.5 4.5t12.5 -5.5zM115 710q15 -80 17 -180q2 -60 -1 -180q0 -7 -1 -10q-2 -106 -1 -162q2 -89 13 -161
q1 -7 -3.5 -12.5t-11.5 -7t-13 3t-7 11.5q-11 74 -13 165q-1 57 1 164q1 3 1 10q3 119 1 178q-2 98 -16 175q-1 7 3 13t11 7.5t13 -2.5t7 -12z" />
    <glyph glyph-name="Iacute" unicode="&#xcd;" horiz-adv-x="289" 
d="M112 717q14 -80 17 -180q2 -62 0 -180v-5q-2 -113 -1 -169q3 -93 14 -166q1 -7 -3.5 -12.5t-11.5 -7t-13 3t-7 11.5q-11 75 -14 170q-1 57 1 171v4q2 118 0 179q-3 98 -17 175q-1 7 3 13t11.5 7t13 -3t7.5 -11zM189 873q-32 -32 -41 -47q-2 -2 -3 -5q-14 -26 -22 -39
q-3 -6 -10.5 -8t-13.5 2t-8 11t2 13l21 38q3 4 5 7q11 18 45 52q5 6 12 6t12.5 -5t5.5 -12.5t-5 -12.5z" />
    <glyph glyph-name="Icircumflex" unicode="&#xce;" horiz-adv-x="311" 
d="M112 717q14 -80 17 -180q2 -62 0 -180v-5q-2 -113 -1 -169q3 -93 14 -166q1 -7 -3.5 -12.5t-11.5 -7t-13 3t-7 11.5q-11 75 -14 170q-1 57 1 171v4q2 118 0 179q-3 98 -17 175q-1 7 3 13t11.5 7t13 -3t7.5 -11zM1 772q17 29 34 59q5 11 12 23q1 3 5.5 11t4.5 9
q11 21 16 29q11 15 24 17q9 1 17 -4q5 -3 11 -9q6 -7 19 -26q0 -1 5.5 -9t12 -18t9.5 -14q20 -30 41 -58q4 -5 3 -12.5t-7 -11.5t-13 -3t-12 7q-20 28 -41 58q-3 5 -9.5 14.5t-12.5 17.5l-5 9q-9 14 -14 20q-4 -6 -13 -23q0 -1 -4.5 -9t-5.5 -11q-7 -13 -12 -24
q-17 -31 -35 -61q-4 -6 -11 -7.5t-13 2t-8 10.5t2 14z" />
    <glyph glyph-name="Idieresis" unicode="&#xcf;" horiz-adv-x="326" 
d="M155 888h2q24 0 45 -18q17 -14 25 -33q4 -10 4 -17t-3 -13q-5 -8 -15 -9q-10 -2 -22 6q-9 6 -20 18q-1 2 -15 19h-1q-4 6 -10 12l-5 6q-5 6 -4 13t6.5 12t12.5 4zM2 872q0 6 5 10.5t12 4.5q37 0 57 -22q19 -21 14 -45q-3 -14 -15 -20.5t-27 0.5q-23 10 -48 52q-6 10 2 20
zM112 717q14 -80 17 -180q2 -62 0 -180v-5q-2 -113 -1 -169q3 -93 14 -166q1 -7 -3.5 -12.5t-11.5 -7t-13 3t-7 11.5q-11 75 -14 170q-1 57 1 171v4q2 118 0 179q-3 98 -17 175q-1 7 3 13t11.5 7t13 -3t7.5 -11z" />
    <glyph glyph-name="Eth" unicode="&#xd0;" horiz-adv-x="542" 
d="M118 32q95 -7 156 31q65 41 106 167.5t29 249.5q-14 134 -88 191q-75 57 -205 19q9 -80 11 -297q64 1 155 1q7 0 12 -5t5 -12t-5 -12.5t-12 -5.5q-91 0 -155 -1v-5q1 -232 -9 -321zM82 678h-2q-7 -3 -13.5 0t-9 10t0.5 13.5t10 9.5q173 65 275 -13q86 -65 101 -214
q13 -132 -31 -266q-44 -137 -120 -185q-74 -46 -185 -35q-6 -5 -14 -3q-7 1 -11 7.5t-2 13.5q13 58 11 337v5l-48 -2q-7 0 -12.5 5t-5.5 12t5 12.5t12 5.5q24 1 49 2q-2 203 -10 285z" />
    <glyph glyph-name="Ntilde" unicode="&#xd1;" horiz-adv-x="558" 
d="M141 804q31 69 73 69q17 0 36 -12q10 -6 28 -21q7 -6 10 -9q23 -19 34 -16q7 2 16 12q11 16 23 46q3 7 9.5 10t13.5 0.5t10 -9.5t0 -13q-28 -71 -64 -80q-17 -5 -36 4q-12 6 -28 19q-3 2 -11 9q-29 25 -41 25q-7 0 -15 -8q-13 -12 -26 -41q-3 -6 -9.5 -9t-13 0t-9.5 10
t0 14zM452 705q4 -26 1 -61q-3 -23 -10 -61q-1 -4 -2 -10q-12 -61 -13 -88q-4 -134 1 -236q8 -133 33 -232q2 -7 -2 -13.5t-11 -8t-13 2t-8 10.5q-26 103 -33 239q-6 92 -3 207q-36 17 -75 46q-32 23 -74 61q-3 2 -8.5 7.5t-12 11t-12 10.5t-9.5 8l-4 4q-26 23 -42 37
q-23 18 -40 29q12 -106 15 -316q3 -287 -16 -343q-2 -7 -8.5 -10.5t-13.5 -1t-10 9t-1 13.5q17 51 14 332q-3 243 -17 333q-10 7 -7 19q2 7 9 11q3 3 8 4q13 3 19 -8q30 -12 70 -45q17 -14 44 -38l4 -4q4 -3 9.5 -8t11.5 -10.5t11.5 -10.5t8.5 -8q76 -67 127 -94q2 26 13 87
q2 6 2 10q7 37 10 58q3 30 0 52q-1 7 3 12.5t11.5 7t13 -3t6.5 -11.5z" />
    <glyph glyph-name="Ograve" unicode="&#xd2;" horiz-adv-x="585" 
d="M95 534q-22 -137 11 -250q13 -47 37 -96q18 -35 48 -83q63 -101 117 -89q29 6 56 48q32 51 58 147q16 60 24 120q12 85 6 154q-6 85 -39 139q-37 63 -109 84q-35 10 -60 6q-19 -3 -40 -18q-6 -4 -14 -10l-15 -12q-28 -22 -50 -59.5t-29 -77.5q-1 -2 -1 -3zM62 547
q9 45 34 87t57 68q12 9 16 11q8 7 15 12q28 19 54 23q33 6 75 -6q86 -25 130 -100q37 -62 44 -155q6 -72 -6 -161q-9 -62 -25 -124q-54 -202 -141 -221q-41 -9 -84 23q-35 27 -70 82q-30 50 -49 87q-26 51 -40 101q-35 123 -11 269q0 2 1 4zM178 909.5q6 -4.5 22 -20.5
q22 -22 29 -30q5 -4 9 -8q16 -16 28 -25q5 -5 6 -12.5t-4 -13t-12 -6t-13 4.5q-12 10 -30 27l-9 9l-29 30q-14 14 -18 17q-6 4 -7 11.5t3.5 13t11.5 6.5t13 -3.5z" />
    <glyph glyph-name="Oacute" unicode="&#xd3;" horiz-adv-x="585" 
d="M95 534q-22 -137 11 -250q13 -47 37 -96q18 -35 48 -83q63 -101 117 -89q29 6 56 48q32 51 58 147q16 60 24 120q12 85 6 154q-6 85 -39 139q-37 63 -109 84q-35 10 -60 6q-19 -3 -40 -18q-6 -4 -14 -10l-15 -12q-28 -22 -50 -59.5t-29 -77.5q-1 -2 -1 -3zM62 547
q9 45 34 87t57 68q12 9 16 11q8 7 15 12q28 19 54 23q33 6 75 -6q86 -25 130 -100q37 -62 44 -155q6 -72 -6 -161q-9 -62 -25 -124q-54 -202 -141 -221q-41 -9 -84 23q-35 27 -70 82q-30 50 -49 87q-26 51 -40 101q-35 123 -11 269q0 2 1 4zM266 821q15 20 40 43l22 21
q14 13 24 22q5 6 12.5 6t12.5 -5.5t5 -12.5t-5 -12q-10 -11 -25 -24q-17 -16 -22 -20q-23 -22 -36 -39q-5 -6 -12 -7t-13 3.5t-6.5 11.5t3.5 13z" />
    <glyph glyph-name="Ocircumflex" unicode="&#xd4;" horiz-adv-x="585" 
d="M95 534q-22 -137 11 -250q13 -47 37 -96q18 -35 48 -83q63 -101 117 -89q29 6 56 48q32 51 58 147q16 60 24 120q12 85 6 154q-6 85 -39 139q-37 63 -109 84q-35 10 -60 6q-19 -3 -40 -18q-6 -4 -14 -10l-15 -12q-28 -22 -50 -59.5t-29 -77.5q-1 -2 -1 -3zM62 547
q9 45 34 87t57 68q12 9 16 11q8 7 15 12q28 19 54 23q33 6 75 -6q86 -25 130 -100q37 -62 44 -155q6 -72 -6 -161q-9 -62 -25 -124q-54 -202 -141 -221q-41 -9 -84 23q-35 27 -70 82q-30 50 -49 87q-26 51 -40 101q-35 123 -11 269q0 2 1 4zM166 806q17 29 34 59q5 11 12 24
l5 10t5 9q10 21 16 29q11 15 24 17q9 1 17 -4q5 -3 10 -9q7 -7 20 -26l5 -9q6 -8 12.5 -17.5t9.5 -14.5q20 -30 40 -57q5 -6 4 -13.5t-7 -11.5t-13 -3t-12 7q-21 28 -41 58q-3 5 -9.5 15t-11.5 18l-6 8q-10 14 -14 20q-4 -6 -13 -23q-1 -1 -5 -9l-5 -10q-7 -14 -13 -24
q-16 -32 -34 -61q-4 -7 -11 -8.5t-13.5 2.5t-8 11t2.5 13z" />
    <glyph glyph-name="Otilde" unicode="&#xd5;" horiz-adv-x="585" 
d="M95 534q-22 -137 11 -250q13 -47 37 -96q18 -35 48 -83q63 -101 117 -89q29 6 56 48q32 51 58 147q16 60 24 120q12 85 6 154q-6 85 -39 139q-37 63 -109 84q-35 10 -60 6q-19 -3 -40 -18q-6 -4 -14 -10l-15 -12q-28 -22 -50 -59.5t-29 -77.5q-1 -2 -1 -3zM62 547
q9 45 34 87t57 68q12 9 16 11q8 7 15 12q28 19 54 23q33 6 75 -6q86 -25 130 -100q37 -62 44 -155q6 -72 -6 -161q-9 -62 -25 -124q-54 -202 -141 -221q-41 -9 -84 23q-35 27 -70 82q-30 50 -49 87q-26 51 -40 101q-35 123 -11 269q0 2 1 4zM119 823q31 52 77 52q18 0 40 -7
q12 -4 37 -15q41 -18 60 -20q10 0 18 2q27 5 38 41q2 7 8.5 10.5t13.5 1.5t10 -8.5t1 -13.5q-17 -55 -63 -66q-13 -3 -28 -2q-17 2 -38 9q-12 4 -34 14q-24 10 -34 14q-17 5 -29 5q-26 0 -46 -34q-4 -7 -11 -8.5t-13.5 2t-8 10.5t1.5 13z" />
    <glyph glyph-name="Odieresis" unicode="&#xd6;" horiz-adv-x="585" 
d="M95 534q-22 -137 11 -250q13 -47 37 -96q18 -35 48 -83q63 -101 117 -89q29 6 56 48q32 51 58 147q16 60 24 120q12 85 6 154q-6 85 -39 139q-37 63 -109 84q-35 10 -60 6q-19 -3 -40 -18q-6 -4 -14 -10l-15 -12q-28 -22 -50 -59.5t-29 -77.5q-1 -2 -1 -3zM62 547
q9 45 34 87t57 68q12 9 16 11q8 7 15 12q28 19 54 23q33 6 75 -6q86 -25 130 -100q37 -62 44 -155q6 -72 -6 -161q-9 -62 -25 -124q-54 -202 -141 -221q-41 -9 -84 23q-35 27 -70 82q-30 50 -49 87q-26 51 -40 101q-35 123 -11 269q0 2 1 4zM345 858q-1 1 -2 3q-4 6 -12 11
q6 -8 14 -14zM287 880q-5 10 2 19q10 12 26 13q11 1 24 -4q21 -9 33 -28q22 -30 18 -48q-3 -16 -18 -19q-9 -2 -21 1q-18 7 -36.5 25t-26.5 39q-1 1 -1 2zM191 857q-1 1 -2 3q-4 6 -12 12q6 -8 14 -15zM133 880q-5 10 2 18q10 12 26 14q11 1 24 -5q21 -9 33 -27
q22 -31 18 -49q-3 -16 -18 -19q-9 -2 -21 2q-18 6 -36.5 24t-26.5 39q-1 1 -1 3z" />
    <glyph glyph-name="multiply" unicode="&#xd7;" horiz-adv-x="643" 
d="M175 490q13 -31 58 -79q31 -34 82 -80q119 118 189 178q6 5 13 4.5t12 -6t4 -12.5t-6 -12q-69 -59 -186 -176q12 -10 26 -22l51 -45q30 -26 48 -43q52 -47 77 -75q5 -5 4.5 -12.5t-6 -12t-13 -4t-11.5 5.5q-24 27 -74 72q-19 17 -48 43q-40 34 -51 44q-15 14 -27 24
q-125 -126 -149 -168q-4 -6 -11 -8t-13 1.5t-8 10.5t2 14q26 46 153 174q-52 47 -84 81q-49 53 -64 90q-3 6 0 13t9.5 9.5t13 0t9.5 -9.5z" />
    <glyph glyph-name="Oslash" unicode="&#xd8;" horiz-adv-x="585" 
d="M416 619q-11 -23 -24 -49q-10 -23 -39 -82q-82 -171 -124 -262q-25 -55 -48 -105l10 -16q63 -101 117 -89q29 6 56 48q32 51 58 147q16 60 24 120q12 85 6 154q-6 81 -36 134zM393 652q-35 40 -89 56q-35 10 -60 6q-19 -3 -40 -18q-6 -4 -14 -10l-15 -12
q-28 -22 -50 -59.5t-29 -77.5q-1 -2 -1 -3q-22 -137 11 -250q13 -47 37 -96q8 -15 17 -30q17 40 37 83q42 91 125 262q28 59 39 82q18 37 32 67zM142 118q-17 29 -30 55q-26 51 -40 101q-35 123 -11 269q0 2 1 4q9 45 34 87t57 68q12 9 16 11q8 7 15 12q28 19 54 23
q33 6 75 -6q57 -17 96 -56q13 27 24 52q3 6 10 8.5t13.5 -0.5t9 -10t-0.5 -13q-15 -32 -31 -66q5 -7 9 -15q37 -62 44 -155q6 -72 -6 -161q-9 -62 -25 -124q-54 -202 -141 -221q-41 -9 -84 23q-34 26 -67 78q-26 -62 -50 -120q-2 -7 -9 -10t-13.5 -0.5t-9.5 9.5t0 14
q27 68 60 143z" />
    <glyph glyph-name="Ugrave" unicode="&#xd9;" horiz-adv-x="559" 
d="M445 700q-2 -65 8 -185q0 -6 1 -18q9 -103 10 -153q1 -84 -12 -148q-12 -58 -31 -99q-25 -53 -64 -83q-30 -23 -72.5 -30.5t-75.5 5.5q-85 33 -115 124q-21 65 -16 174q2 30 7 83q8 83 8 114q0 36 -7 107l-3 30q-5 48 -5 81q0 7 5 12t12.5 5t12.5 -5t5 -12q0 -31 5 -77
l3 -30q7 -74 7 -111q0 -32 -8 -117q-5 -52 -7 -82q-5 -102 14 -161q25 -75 95 -103q24 -9 57.5 -3t55.5 24q33 25 55 70q17 37 28 91q12 60 11 141q-1 48 -10 150q-1 12 -1 18q-10 122 -8 189q1 7 6 12t12.5 5t12.5 -5.5t4 -12.5zM178 912q36 -21 79 -60.5t67 -72.5
q4 -6 3 -13.5t-7 -11.5t-13 -3t-12 7q-22 31 -62 68t-72 56q-7 4 -8.5 11t2 13t10.5 8t13 -2z" />
    <glyph glyph-name="Uacute" unicode="&#xda;" horiz-adv-x="559" 
d="M445 700q-2 -65 8 -185q0 -6 1 -18q9 -103 10 -153q1 -84 -12 -148q-12 -58 -31 -99q-25 -53 -64 -83q-30 -23 -72.5 -30.5t-75.5 5.5q-85 33 -115 124q-21 65 -16 174q2 30 7 83q8 83 8 114q0 36 -7 107l-3 30q-5 48 -5 81q0 7 5 12t12.5 5t12.5 -5t5 -12q0 -31 5 -77
l3 -30q7 -74 7 -111q0 -32 -8 -117q-5 -52 -7 -82q-5 -102 14 -161q25 -75 95 -103q24 -9 57.5 -3t55.5 24q33 25 55 70q17 37 28 91q12 60 11 141q-1 48 -10 150q-1 12 -1 18q-10 122 -8 189q1 7 6 12t12.5 5t12.5 -5.5t4 -12.5zM366 880q-21 -18 -55 -63l-1 -1v-1
q-19 -26 -30 -39q-5 -5 -12 -6t-12.5 4t-6 12t3.5 13q10 12 29 36q0 1 1 3q18 24 28 36q17 20 33 33q6 4 13 3.5t11.5 -6t4 -13t-6.5 -11.5z" />
    <glyph glyph-name="Ucircumflex" unicode="&#xdb;" horiz-adv-x="559" 
d="M445 700q-2 -65 8 -185q0 -6 1 -18q9 -103 10 -153q1 -84 -12 -148q-12 -58 -31 -99q-25 -53 -64 -83q-30 -23 -72.5 -30.5t-75.5 5.5q-85 33 -115 124q-21 65 -16 174q2 30 7 83q8 83 8 114q0 36 -7 107l-3 30q-5 48 -5 81q0 7 5 12t12.5 5t12.5 -5t5 -12q0 -31 5 -77
l3 -30q7 -74 7 -111q0 -32 -8 -117q-5 -52 -7 -82q-5 -102 14 -161q25 -75 95 -103q24 -9 57.5 -3t55.5 24q33 25 55 70q17 37 28 91q12 60 11 141q-1 48 -10 150q-1 12 -1 18q-10 122 -8 189q1 7 6 12t12.5 5t12.5 -5.5t4 -12.5zM169 774q17 29 34 60q5 10 12 23l5 10l5 10
q11 20 16 28q11 16 24 17q9 1 17 -3q5 -4 10 -9q7 -8 20 -27l6 -9q5 -8 11.5 -17.5t9.5 -14.5q20 -29 41 -57q4 -6 3 -13t-7 -11.5t-13 -3.5t-12 7q-20 28 -41 59q-3 5 -9.5 14.5t-12.5 18.5l-5 8q-10 14 -14 20q-4 -7 -13 -23q0 -1 -4.5 -9.5t-5.5 -10.5q-7 -13 -12 -24
q-17 -31 -35 -61q-4 -6 -11 -8t-13.5 2t-8 11t2.5 13z" />
    <glyph glyph-name="Udieresis" unicode="&#xdc;" horiz-adv-x="559" 
d="M326 898q5 2 9 2q9 0 17 -5q10 -8 14 -23q7 -32 -17 -48q-18 -11 -33 -1q-12 7 -15 24q-4 22 11 40q3 5 8 8q3 2 6 3zM197 892q4 2 9 2q9 0 16 -5q11 -8 14 -23q7 -32 -17 -48q-17 -11 -33 -2q-12 8 -14 25q-4 22 11 40q2 5 7 8q3 2 7 3zM445 700q-2 -65 8 -185
q0 -6 1 -18q9 -103 10 -153q1 -84 -12 -148q-12 -58 -31 -99q-25 -53 -64 -83q-30 -23 -72.5 -30.5t-75.5 5.5q-85 33 -115 124q-21 65 -16 174q2 30 7 83q8 83 8 114q0 36 -7 107l-3 30q-5 48 -5 81q0 7 5 12t12.5 5t12.5 -5t5 -12q0 -31 5 -77l3 -30q7 -74 7 -111
q0 -32 -8 -117q-5 -52 -7 -82q-5 -102 14 -161q25 -75 95 -103q24 -9 57.5 -3t55.5 24q33 25 55 70q17 37 28 91q12 60 11 141q-1 48 -10 150q-1 12 -1 18q-10 122 -8 189q1 7 6 12t12.5 5t12.5 -5.5t4 -12.5z" />
    <glyph glyph-name="Yacute" unicode="&#xdd;" horiz-adv-x="479" 
d="M24 713q19 -25 64 -71q1 -1 2 -1q34 -34 50 -53q24 -28 39 -54q8 17 21 32q21 26 66 58q1 1 10 7.5t11 8.5q27 19 40 32q17 17 23 34q2 7 8.5 10t13.5 1t10 -8.5t1 -13.5q-8 -25 -31 -48q-15 -15 -44 -36q-2 -1 -11 -7.5t-10 -7.5q-42 -30 -60 -52q-24 -29 -27 -65
q7 -31 10 -76q3 -48 1 -158q-2 -87 0 -127q2 -65 11 -103q2 -7 -1.5 -13.5t-11 -8t-13.5 2t-8 10.5q-10 42 -12 111q-2 41 0 128v1q2 108 -1 155q-2 37 -8 64q-2 5 -2 10v1q-5 21 -13 35q-14 26 -38 54q-15 18 -48 51l-2 2q-47 47 -68 74q-4 5 -3 12.5t7 12t13 3t11 -6.5z
M291 879q-1 -2 -13 -15.5t-15 -16.5q-40 -46 -57 -77q-4 -7 -11 -9t-13 2t-8 10.5t1 13.5q19 34 61 83q3 3 15 16.5t14 15.5q5 6 12 6.5t12.5 -4.5t6 -12t-4.5 -13z" />
    <glyph glyph-name="Thorn" unicode="&#xde;" horiz-adv-x="479" 
d="M133 213q11 2 41 6q47 6 70 12q33 8 53 23q48 35 51 135q2 51 -23 85q-22 31 -61 46q-35 14 -70.5 12t-52.5 -17q-2 -1 -3 -2q0 -74 -3 -193q0 -10 -1 -30q-1 -45 -1 -77zM137 714q2 -76 1 -159q28 12 66 12t73 -14q48 -19 76 -58q32 -45 30 -107q-3 -117 -65 -163
q-26 -18 -66 -28q-24 -6 -73 -13q-34 -4 -47 -6q-2 -94 -2 -167q0 -7 -5 -12t-12 -5t-12.5 5t-5.5 12q0 93 4 280q1 20 1 30q5 254 2 392q-1 7 4 12.5t12.5 5.5t12.5 -5t6 -12z" />
    <glyph glyph-name="germandbls" unicode="&#xdf;" horiz-adv-x="469" 
d="M79 2q0 75 -3 215v42q-5 262 -3 319q5 159 80 194q32 14 67 4.5t65 -39.5q30 -29 43 -64.5t5 -66.5q-9 -38 -47 -59q-12 -7 -27 -12q44 -25 73 -75q46 -80 41 -191q-4 -111 -57 -189q-60 -89 -156 -90q-8 0 -13 5t-5 12.5t5 12.5t12 5q78 1 128 75q47 69 52 170
q4 101 -37 173q-44 76 -124 81q-3 0 -6 1t-6 4t-4 7q-1 2 -1 5t1 6q2 4 4.5 6.5t6.5 4.5h6q58 1 90 19q25 14 30 37q6 22 -4.5 49t-33.5 49t-48 30t-45 -2q-24 -11 -39 -46q-19 -43 -21 -117q-2 -56 3 -317v-42q3 -140 3 -215q0 -8 -5 -13t-12 -5t-12.5 5t-5.5 12z" />
    <glyph glyph-name="agrave" unicode="&#xe0;" horiz-adv-x="432" 
d="M269 238q-4 -3 -9 -6q-14 -10 -39 -25q-35 -19 -45 -25q-63 -37 -87 -65q-28 -33 -10 -65q7 -14 30 -24q28 -13 60 -10q24 1 45 31q19 27 30 63q1 4 3 10l5 19q4 11 6 18q8 30 11 52v27zM62 431q17 42 52 61t77 11q39 -8 69 -36t39 -66q5 -19 5 -65q1 -26 0 -92v-27v-5
v-3v-5q-1 -97 4 -141q3 -28 9 -41q1 -3 2 -4v-1q15 0 17 -14q1 -7 -3 -13t-11 -7q-14 -3 -25 7q-7 6 -12 18q-8 17 -12 51q-1 11 -2 24q-11 -31 -28 -54q-31 -43 -71 -46q-41 -4 -78 13q-33 16 -46 38q-30 54 14 106q28 32 96 72l45 26q25 14 37 22q11 8 17 14q8 8 12 15
q0 1 1 2q0 25 -1 44q0 42 -4 58q-7 28 -29.5 49t-51.5 26q-30 6 -53.5 -7t-35.5 -43q-3 -6 -9.5 -9t-13.5 -0.5t-9.5 9.5t-0.5 13zM115 724q59 -71 103 -153q3 -6 1 -13t-8 -10.5t-13 -1.5t-11 9q-42 78 -99 146q-4 6 -3.5 13t6 12t13 4t11.5 -6z" />
    <glyph glyph-name="aacute" unicode="&#xe1;" horiz-adv-x="432" 
d="M269 238q-4 -3 -9 -6q-14 -10 -39 -25q-35 -19 -45 -25q-63 -37 -87 -65q-28 -33 -10 -65q7 -14 30 -24q28 -13 60 -10q24 1 45 31q19 27 30 63q1 4 3 10l5 19q4 11 6 18q8 30 11 52v27zM62 431q17 42 52 61t77 11q39 -8 69 -36t39 -66q5 -19 5 -65q1 -26 0 -92v-27v-5
v-3v-5q-1 -97 4 -141q3 -28 9 -41q1 -3 2 -4v-1q15 0 17 -14q1 -7 -3 -13t-11 -7q-14 -3 -25 7q-7 6 -12 18q-8 17 -12 51q-1 11 -2 24q-11 -31 -28 -54q-31 -43 -71 -46q-41 -4 -78 13q-33 16 -46 38q-30 54 14 106q28 32 96 72l45 26q25 14 37 22q11 8 17 14q8 8 12 15
q0 1 1 2q0 25 -1 44q0 42 -4 58q-7 28 -29.5 49t-51.5 26q-30 6 -53.5 -7t-35.5 -43q-3 -6 -9.5 -9t-13.5 -0.5t-9.5 9.5t-0.5 13zM297 678q-6 -1 -13 -6q-21 -15 -49 -54q-11 -16 -30 -45q-4 -6 -11 -8t-13 2t-7.5 11t2.5 13q18 31 30 48q32 44 58 62q12 8 24 11
q7 2 13 -1.5t8 -10.5t-1.5 -13.5t-10.5 -8.5z" />
    <glyph glyph-name="acircumflex" unicode="&#xe2;" horiz-adv-x="432" 
d="M269 238q-4 -3 -9 -6q-14 -10 -39 -25q-35 -19 -45 -25q-63 -37 -87 -65q-28 -33 -10 -65q7 -14 30 -24q28 -13 60 -10q24 1 45 31q19 27 30 63q1 4 3 10l5 19q4 11 6 18q8 30 11 52v27zM62 431q17 42 52 61t77 11q39 -8 69 -36t39 -66q5 -19 5 -65q1 -26 0 -92v-27v-5
v-3v-5q-1 -97 4 -141q3 -28 9 -41q1 -3 2 -4v-1q15 0 17 -14q1 -7 -3 -13t-11 -7q-14 -3 -25 7q-7 6 -12 18q-8 17 -12 51q-1 11 -2 24q-11 -31 -28 -54q-31 -43 -71 -46q-41 -4 -78 13q-33 16 -46 38q-30 54 14 106q28 32 96 72l45 26q25 14 37 22q11 8 17 14q8 8 12 15
q0 1 1 2q0 25 -1 44q0 42 -4 58q-7 28 -29.5 49t-51.5 26q-30 6 -53.5 -7t-35.5 -43q-3 -6 -9.5 -9t-13.5 -0.5t-9.5 9.5t-0.5 13zM81 573q18 29 34 59q6 11 12 24q1 2 5.5 10t4.5 9q11 21 16 29q11 15 24 17q9 1 17 -4q5 -3 11 -9q6 -7 19 -26q0 -1 5.5 -9t12 -17.5
t9.5 -14.5q20 -30 41 -57q4 -6 3 -13.5t-7 -11.5t-13 -3t-11 7q-21 28 -42 58q-3 5 -9.5 15t-12.5 18l-5 8q-9 14 -14 20q-4 -6 -13 -23q0 -1 -4.5 -9t-5.5 -11q-6 -13 -12 -24q-17 -31 -35 -60q-4 -7 -11 -8.5t-13 2t-8 11t2 13.5z" />
    <glyph glyph-name="atilde" unicode="&#xe3;" horiz-adv-x="441" 
d="M269 238q-4 -3 -9 -6q-14 -10 -39 -25q-35 -19 -45 -25q-63 -37 -87 -65q-28 -33 -10 -65q7 -14 30 -24q28 -13 60 -10q24 1 45 31q19 27 30 63q1 4 3 10l5 19q4 11 6 18q8 30 11 52v27zM62 431q17 42 52 61t77 11q39 -8 69 -36t39 -66q5 -19 5 -65q1 -26 0 -92v-27v-5
v-3v-5q-1 -97 4 -141q3 -28 9 -41q1 -3 2 -4v-1q15 0 17 -14q1 -7 -3 -13t-11 -7q-14 -3 -25 7q-7 6 -12 18q-8 17 -12 51q-1 11 -2 24q-11 -31 -28 -54q-31 -43 -71 -46q-41 -4 -78 13q-33 16 -46 38q-30 54 14 106q28 32 96 72l45 26q25 14 37 22q11 8 17 14q8 8 12 15
q0 1 1 2q0 25 -1 44q0 42 -4 58q-7 28 -29.5 49t-51.5 26q-30 6 -53.5 -7t-35.5 -43q-3 -6 -9.5 -9t-13.5 -0.5t-9.5 9.5t-0.5 13zM56 620q31 28 63 31q24 2 56 -10q5 -2 16 -6q37 -15 57 -14q32 2 68 38q5 5 12 5t12.5 -5t5.5 -12.5t-6 -12.5q-45 -45 -90 -48q-19 -1 -39 5
q-12 3 -33 11q-11 5 -15 6q-25 9 -40 8q-21 -2 -43 -22q-5 -5 -12.5 -4.5t-12.5 5.5t-4.5 12.5t5.5 12.5z" />
    <glyph glyph-name="adieresis" unicode="&#xe4;" horiz-adv-x="432" 
d="M269 238q-4 -3 -9 -6q-14 -10 -39 -25q-35 -19 -45 -25q-63 -37 -87 -65q-28 -33 -10 -65q7 -14 30 -24q28 -13 60 -10q24 1 45 31q19 27 30 63q1 4 3 10l5 19q4 11 6 18q8 30 11 52v27zM246 670q-1 -2 -3 -5q9 -14 19 -23v1q1 3 -3 11q-5 9 -12 15q0 1 -1 1zM216 689
q9 19 27 19q14 0 29 -14q27 -26 25 -53q0 -13 -4 -22q-6 -13 -18 -16q-10 -2 -21 3q-7 3 -14 9q-12 10 -22.5 26t-13.5 27q-2 7 1.5 13t10.5 8zM101 664q-1 -3 -3 -5q10 -14 19 -23l1 1q0 3 -4 11q-5 9 -12 15q0 1 -1 1zM71 683q9 19 27 19q14 0 29 -14q27 -26 25 -53
q0 -13 -4 -22q-6 -13 -18 -16q-10 -3 -21 2q-7 4 -14 10q-12 10 -22.5 25.5t-13.5 26.5q-2 7 1.5 13.5t10.5 8.5zM62 431q17 42 52 61t77 11q39 -8 69 -36t39 -66q5 -19 5 -65q1 -26 0 -92v-27v-5v-3v-5q-1 -97 4 -141q3 -28 9 -41q1 -3 2 -4v-1q15 0 17 -14q1 -7 -3 -13
t-11 -7q-14 -3 -25 7q-7 6 -12 18q-8 17 -12 51q-1 11 -2 24q-11 -31 -28 -54q-31 -43 -71 -46q-41 -4 -78 13q-33 16 -46 38q-30 54 14 106q28 32 96 72l45 26q25 14 37 22q11 8 17 14q8 8 12 15q0 1 1 2q0 25 -1 44q0 42 -4 58q-7 28 -29.5 49t-51.5 26q-30 6 -53.5 -7
t-35.5 -43q-3 -6 -9.5 -9t-13.5 -0.5t-9.5 9.5t-0.5 13z" />
    <glyph glyph-name="aring" unicode="&#xe5;" horiz-adv-x="432" 
d="M269 238q-4 -3 -9 -6q-14 -10 -39 -25q-35 -19 -45 -25q-63 -37 -87 -65q-28 -33 -10 -65q7 -14 30 -24q28 -13 60 -10q24 1 45 31q19 27 30 63q1 4 3 10l5 19q4 11 6 18q8 30 11 52v27zM181 745h2q46 1 67.5 -35t7.5 -84q-23 -78 -72 -78q-42 0 -71 51q-29 48 -17 91
q15 54 83 55zM62 431q17 42 52 61t77 11q39 -8 69 -36t39 -66q5 -19 5 -65q1 -26 0 -92v-27v-5v-3v-5q-1 -97 4 -141q3 -28 9 -41q1 -3 2 -4v-1q15 0 17 -14q1 -7 -3 -13t-11 -7q-14 -3 -25 7q-7 6 -12 18q-8 17 -12 51q-1 11 -2 24q-11 -31 -28 -54q-31 -43 -71 -46
q-41 -4 -78 13q-33 16 -46 38q-30 54 14 106q28 32 96 72l45 26q25 14 37 22q11 8 17 14q8 8 12 15q0 1 1 2q0 25 -1 44q0 42 -4 58q-7 28 -29.5 49t-51.5 26q-30 6 -53.5 -7t-35.5 -43q-3 -6 -9.5 -9t-13.5 -0.5t-9.5 9.5t-0.5 13zM183 710q-43 0 -51 -29t13 -64
q19 -34 41 -34q9 0 17 9q13 14 22 44q9 32 -3 53q-11 21 -37 21h-2z" />
    <glyph glyph-name="ae" unicode="&#xe6;" horiz-adv-x="669" 
d="M534 267q11 81 -21 143q-30 57 -78 65t-82 -45q-33 -50 -41 -141q56 -1 135 -11l11 -2q10 -1 22 -2.5t24.5 -3t16.5 -2.5q8 -1 13 -1zM273 253q-137 -5 -183 -71q-33 -46 -7 -104q11 -26 31 -45.5t43 -26.5q48 -17 80 29q37 56 37 184v4v15q0 7 -1 15zM60 431
q20 38 52.5 58.5t70.5 19.5q37 0 65.5 -19t38.5 -50q6 -18 10 -46q11 32 26 55q23 35 53.5 50.5t64.5 10.5q31 -5 58 -27.5t45 -56.5q40 -77 23 -176q-2 -12 -14 -16q-5 -2 -11 -2q-9 0 -25 1q-3 1 -12 2t-19 2.5t-19.5 2.5t-16.5 2t-8 1q-77 10 -132 11q1 -9 2 -22
q11 -119 37 -170q33 -64 102 -48q28 6 52 31t37 59q3 7 9.5 10t13 0.5t9.5 -9t1 -13.5q-16 -43 -46.5 -73.5t-67.5 -38.5q-96 -22 -141 66q-12 23 -20 52q-11 -50 -32 -82q-23 -33 -55 -44.5t-66 0.5q-29 11 -54.5 35.5t-39.5 56.5q-33 76 10 138q34 48 104 70q45 14 107 16
q0 5 -1 13q-7 98 -17 128q-7 20 -26.5 32.5t-44.5 12.5q-29 0 -53 -15t-38 -44q-4 -6 -10.5 -8.5t-13 1t-9 10.5t0.5 13z" />
    <glyph glyph-name="ccedilla" unicode="&#xe7;" horiz-adv-x="422" 
d="M298 431q-62 41 -108 37q-37 -3 -62 -38q-24 -34 -33.5 -91t-2.5 -123q6 -64 25.5 -115t46.5 -74q25 -22 53 -11q37 13 77 77q4 6 11 7.5t13 -2.5t7.5 -11t-2.5 -13q-46 -73 -94 -91q-13 -5 -26 -6q-2 -11 -8 -28q-2 -6 -5 -12q-2 -5 -5 -10q0 -1 -1 -2h14h12q24 0 38 -8
q21 -13 27 -42q9 -40 -20 -71q-23 -26 -60 -33q-39 -8 -66 10q-31 23 -24 70q1 7 7 11.5t13 3t11.5 -7t3.5 -13.5q-4 -25 10 -35t38 -5q26 5 42 23t11 40q-3 13 -9.5 17.5t-21.5 4.5h-11q-18 0 -26 1q-18 3 -26 17q-3 5 -2 10q0 2 0.5 4t0.5 4q1 2 3 7q1 1 3 5l1 3l5 10
q2 6 4 11q4 9 5 15q1 3 1 5v1q-14 6 -27 17q-32 28 -54.5 85t-29.5 127q-7 73 3.5 136t38.5 102q34 49 88 53q58 5 130 -43q7 -3 8.5 -10.5t-2.5 -13.5t-11.5 -7.5t-13.5 2.5z" />
    <glyph glyph-name="egrave" unicode="&#xe8;" horiz-adv-x="424" 
d="M91 354q11 3 15 4q39 10 67 19q64 21 90 40q12 10 13 16t-8 15q-44 41 -98 16q-57 -26 -78 -103q0 -3 -1 -7zM50 327q0 6 2 10q2 17 7 33q24 93 97 126q35 16 71 10t65 -33q23 -21 19 -46q-4 -20 -27 -37q-30 -24 -100 -46q-29 -9 -69 -20l-26 -6q-3 -1 -5 -1
q-5 -55 5 -117q15 -83 50 -141t68 -54q35 3 59 44q22 36 27 83q1 7 6.5 12t13 4t12 -6.5t3.5 -13.5q-6 -54 -32 -97q-33 -56 -85 -61q-54 -5 -100 68q-40 64 -56 156q-12 71 -5 133zM113 746q18 -19 37 -44q11 -15 31 -45l1 -2q1 -2 2 -3q24 -36 40 -55q4 -6 3.5 -13.5
t-6.5 -12t-13 -3.5t-12 7q-16 20 -41 58q-1 1 -2 3l-1 2q-39 58 -64 84q-5 5 -5 12t5.5 12t12.5 5t12 -5z" />
    <glyph glyph-name="eacute" unicode="&#xe9;" horiz-adv-x="424" 
d="M91 354q11 3 15 4q39 10 67 19q64 21 90 40q12 10 13 16t-8 15q-44 41 -98 16q-57 -26 -78 -103q0 -3 -1 -7zM50 327q0 6 2 10q2 17 7 33q24 93 97 126q35 16 71 10t65 -33q23 -21 19 -46q-4 -20 -27 -37q-30 -24 -100 -46q-29 -9 -69 -20l-26 -6q-3 -1 -5 -1
q-5 -55 5 -117q15 -83 50 -141t68 -54q35 3 59 44q22 36 27 83q1 7 6.5 12t13 4t12 -6.5t3.5 -13.5q-6 -54 -32 -97q-33 -56 -85 -61q-54 -5 -100 68q-40 64 -56 156q-12 71 -5 133zM318 701q-1 0 -3.5 -2.5l-4.5 -4.5l-2 -2q-6 -7 -11 -11q-13 -14 -23 -25q-22 -23 -36 -42
q-16 -24 -22 -41q-2 -7 -8 -10.5t-13 -1.5t-10.5 8.5t-1.5 13.5q7 23 27 51q15 21 38 46q11 12 24 25l11 11l3 3l4 4l3 3q5 5 12.5 5t12.5 -5t5 -12.5t-5 -12.5z" />
    <glyph glyph-name="ecircumflex" unicode="&#xea;" horiz-adv-x="424" 
d="M91 354q11 3 15 4q39 10 67 19q64 21 90 40q12 10 13 16t-8 15q-44 41 -98 16q-57 -26 -78 -103q0 -3 -1 -7zM50 327q0 6 2 10q2 17 7 33q24 93 97 126q35 16 71 10t65 -33q23 -21 19 -46q-4 -20 -27 -37q-30 -24 -100 -46q-29 -9 -69 -20l-26 -6q-3 -1 -5 -1
q-5 -55 5 -117q15 -83 50 -141t68 -54q35 3 59 44q22 36 27 83q1 7 6.5 12t13 4t12 -6.5t3.5 -13.5q-6 -54 -32 -97q-33 -56 -85 -61q-54 -5 -100 68q-40 64 -56 156q-12 71 -5 133zM103 573q17 29 33 59q6 11 13 24l5 10t5 9q10 21 16 29q11 15 24 17q8 1 16 -4q6 -3 11 -9
q7 -7 20 -26q0 -1 5.5 -9t12 -17.5t9.5 -14.5q20 -30 40 -57q5 -6 3.5 -13.5t-7 -11.5t-13 -3t-11.5 7q-21 28 -41 58q-3 5 -9.5 15t-12 18t-6.5 8q-9 14 -14 20q-4 -6 -12 -23q-1 -1 -5 -9t-5 -11q-7 -13 -13 -24q-16 -31 -35 -60q-3 -7 -10 -8.5t-13.5 2t-8 11t2.5 13.5z
" />
    <glyph glyph-name="edieresis" unicode="&#xeb;" horiz-adv-x="424" 
d="M91 354q11 3 15 4q39 10 67 19q64 21 90 40q12 10 13 16t-8 15q-44 41 -98 16q-57 -26 -78 -103q0 -3 -1 -7zM50 327q0 6 2 10q2 17 7 33q24 93 97 126q35 16 71 10t65 -33q23 -21 19 -46q-4 -20 -27 -37q-30 -24 -100 -46q-29 -9 -69 -20l-26 -6q-3 -1 -5 -1
q-5 -55 5 -117q15 -83 50 -141t68 -54q35 3 59 44q22 36 27 83q1 7 6.5 12t13 4t12 -6.5t3.5 -13.5q-6 -54 -32 -97q-33 -56 -85 -61q-54 -5 -100 68q-40 64 -56 156q-12 71 -5 133zM122 651q-1 1 -2 3q-4 6 -12 11q6 -8 14 -14zM63 673q-4 10 3 19q10 12 25 13q12 1 25 -4
q20 -9 33 -28q21 -31 18 -48q-3 -16 -19 -19q-9 -3 -20 1q-19 7 -37 25t-27 38q0 2 -1 3zM276 659l-2 2q-4 7 -12 12q6 -8 14 -14zM217 681q-4 10 3 19q10 12 25 13q12 1 25 -5q20 -9 33 -27q21 -31 18 -48q-3 -16 -19 -20q-9 -2 -20 2q-19 6 -37 24t-27 39q0 2 -1 3z" />
    <glyph glyph-name="igrave" unicode="&#xec;" horiz-adv-x="211" 
d="M111 495q4 -98 4 -249v-125q-1 -82 -1 -119q0 -7 -5 -12.5t-12 -5.5t-12.5 5.5t-5.5 12.5q0 38 1 119v125q0 150 -4 248q0 7 5 12t12 5.5t12.5 -4.5t5.5 -12zM20 719q11 -18 28 -43q2 -4 9 -14.5t13.5 -20t7.5 -10.5q16 -24 26 -41q4 -6 2.5 -13.5t-7.5 -11t-13 -2
t-11 7.5q-11 17 -26 40q-1 1 -7.5 11t-13.5 20t-9 14q-17 26 -29 44q-3 6 -1.5 13.5t7.5 11t13 2t11 -7.5z" />
    <glyph glyph-name="iacute" unicode="&#xed;" horiz-adv-x="286" 
d="M111 495q4 -98 4 -249v-125q-1 -82 -1 -119q0 -7 -5 -12.5t-12 -5.5t-12.5 5.5t-5.5 12.5q0 38 1 119v125q0 150 -4 248q0 7 5 12t12 5.5t12.5 -4.5t5.5 -12zM187 704q-12 -16 -28 -36q-3 -4 -14.5 -18t-11.5 -15q-32 -40 -49 -63q-5 -6 -12 -7t-13 3.5t-7 11.5t4 13
q18 24 49 64q1 1 12.5 15t14.5 18q16 20 27 35q5 6 12 7t13 -3.5t7 -12t-4 -12.5z" />
    <glyph glyph-name="icircumflex" unicode="&#xee;" horiz-adv-x="305" 
d="M111 495q4 -98 4 -249v-125q-1 -82 -1 -119q0 -7 -5 -12.5t-12 -5.5t-12.5 5.5t-5.5 12.5q0 38 1 119v125q0 150 -4 248q0 7 5 12t12 5.5t12.5 -4.5t5.5 -12zM-5 574q17 29 34 59q5 11 12 23q1 3 5 11t5 9q11 20 16 28q11 16 24 18q9 1 17 -4q5 -3 10 -9q7 -8 20 -26
q0 -1 5.5 -9t12 -18t9.5 -14q20 -30 41 -58q4 -5 3 -12.5t-7 -11.5t-13 -3t-12 7q-20 28 -41 58q-3 5 -9.5 14.5t-12.5 17.5l-5 9q-9 14 -14 20q-4 -6 -13 -23q0 -1 -4.5 -9t-5.5 -11q-7 -13 -12 -24q-17 -31 -35 -61q-4 -6 -11 -7.5t-13 2t-8 10.5t2 14z" />
    <glyph glyph-name="idieresis" unicode="&#xef;" horiz-adv-x="306" 
d="M173 639q0 1 1 1q1 4 1 11q1 9 -8 16q-1 1 -3 2h-1l-2 -2l-4 -2q-3 -17 13 -25q2 -1 3 -1zM132 686q2 4 4 6q12 12 27 12t27 -10q21 -18 20 -44q-1 -29 -18 -40t-38 -1q-18 9 -27 28t-3 39q2 7 8 10zM33 666q-3 -1 -7 -6q1 -4 7 -10.5t11 -9.5q0 4 -1 8q-2 7 -5 13
q-2 4 -5 5zM5 688q6 7 13 10q16 7 31 0q21 -11 28 -42q3 -13 2 -24q-2 -16 -12 -24q-12 -10 -30 -3q-13 5 -29 20q-16 16 -18 36v5v5q0 15 15 17zM111 495q4 -98 4 -249v-125q-1 -82 -1 -119q0 -7 -5 -12.5t-12 -5.5t-12.5 5.5t-5.5 12.5q0 38 1 119v125q0 150 -4 248
q0 7 5 12t12 5.5t12.5 -4.5t5.5 -12z" />
    <glyph glyph-name="eth" unicode="&#xf0;" horiz-adv-x="450" 
d="M254 463q-4 3 -5 8q-6 18 -14 24t-27 6q-58 0 -88 -73q-29 -70 -24 -176q5 -103 37 -175q31 -70 69 -66q92 8 112 100q18 83 -19 226q-16 59 -41 126zM93 598q19 15 43 35q1 1 6.5 5.5t12.5 11t13 10.5q-32 61 -55 94q-4 5 -2.5 12.5t7.5 11.5t13 2.5t11 -6.5
q23 -33 53 -91q29 23 56 41q16 11 32 21q6 4 13.5 2t11 -8t1.5 -13t-8 -11l-30 -20q-28 -19 -60 -44l24 -50q62 -136 94 -255q39 -151 19 -242q-26 -118 -143 -128q-33 -3 -62 23q-24 22 -42 64q-35 78 -40 187q-5 114 27 191q39 95 120 95q10 0 18 -1q-11 25 -23 51
q-9 21 -19 42q-5 -4 -11 -9t-10 -8.5t-4 -4.5q-25 -20 -44 -36q-6 -4 -13.5 -3.5t-12 6.5t-3.5 13t7 12z" />
    <glyph glyph-name="ntilde" unicode="&#xf1;" horiz-adv-x="486" 
d="M90 206v28q-1 146 -26 242q-2 7 1.5 13t10.5 8t13.5 -1.5t8.5 -10.5q15 -58 21 -131q14 38 29 68q24 50 51 72q37 32 75 11q41 -22 56 -99q5 -29 9 -71q2 -25 4 -77q1 -18 1 -26q4 -82 12 -125q10 -61 31 -91q5 -6 3.5 -13t-7 -11.5t-13 -3.5t-11.5 7q-26 37 -38 106
q-8 45 -12 129q0 8 -1 26q-5 102 -13 143q-11 61 -38 76q-16 9 -36 -8q-21 -17 -42 -60q-18 -36 -32 -81q-12 -37 -15 -59q-5 -31 -7 -63q-1 -76 -9 -195q-1 -7 -6 -11.5t-12 -4.5h-1q-7 0 -11.5 5.5t-4.5 11.5v2q3 48 6 125q1 37 2 57q0 6 1 12zM97 606q31 60 72 60
q17 0 35 -10q10 -6 28 -19q7 -5 11 -7q23 -17 35 -14q19 4 40 49q3 7 9.5 9.5t13 -0.5t9 -10t-0.5 -13q-28 -62 -64 -70q-16 -3 -34 4q-12 5 -28 16q-4 2 -11 8q-30 22 -43 22q-8 0 -16 -7q-13 -11 -25 -35q-4 -6 -10.5 -8t-13 1t-9 10t1.5 14z" />
    <glyph glyph-name="ograve" unicode="&#xf2;" 
d="M186 -21q-63 46 -103 136q-38 86 -41 178q-3 97 36 156q46 70 134 64q82 -6 122 -65q32 -49 31 -129q0 -65 -22 -140q-19 -65 -45 -110l-1 -1l-1 -2l-2 -4q-3 -6 -6 -11q-9 -14 -17 -26q-13 -20 -25 -32q-14 -14 -26 -19q-19 -7 -34 5zM207 7q5 2 14 11q9 10 21 27
q8 11 16 24l6 10l2 4l1 1l1 2q23 42 41 103q21 70 21 131q1 69 -26 109q-29 44 -95 49q-67 5 -102 -48q-33 -50 -30 -136q3 -87 39 -167.5t91 -119.5zM135 737q5 -9 11 -21q1 -2 6 -11t6 -10q35 -64 53 -101q3 -6 1 -13t-8.5 -10.5t-13.5 -1t-10 8.5q-18 36 -53 100
q-1 2 -5.5 10.5t-5.5 10.5q-7 12 -12 21q-3 6 -1 13t8.5 10.5t13.5 1.5t10 -8z" />
    <glyph glyph-name="oacute" unicode="&#xf3;" 
d="M186 -21q-63 46 -103 136q-38 86 -41 178q-3 97 36 156q46 70 134 64q82 -6 122 -65q32 -49 31 -129q0 -65 -22 -140q-19 -65 -45 -110l-1 -1l-1 -2l-2 -4q-3 -6 -6 -11q-9 -14 -17 -26q-13 -20 -25 -32q-14 -14 -26 -19q-19 -7 -34 5zM207 7q5 2 14 11q9 10 21 27
q8 11 16 24l6 10l2 4l1 1l1 2q23 42 41 103q21 70 21 131q1 69 -26 109q-29 44 -95 49q-67 5 -102 -48q-33 -50 -30 -136q3 -87 39 -167.5t91 -119.5zM299 714q-19 -23 -49 -73q-1 -1 -1 -2q-25 -41 -40 -61q-4 -6 -11.5 -7t-13 3.5t-6.5 11.5t3 13q14 19 38 58q1 1 1 2
q32 53 53 77q4 6 11.5 6.5t13 -4t6 -12t-4.5 -12.5z" />
    <glyph glyph-name="ocircumflex" unicode="&#xf4;" 
d="M186 -21q-63 46 -103 136q-38 86 -41 178q-3 97 36 156q46 70 134 64q82 -6 122 -65q32 -49 31 -129q0 -65 -22 -140q-19 -65 -45 -110l-1 -1l-1 -2l-2 -4q-3 -6 -6 -11q-9 -14 -17 -26q-13 -20 -25 -32q-14 -14 -26 -19q-19 -7 -34 5zM207 7q5 2 14 11q9 10 21 27
q8 11 16 24l6 10l2 4l1 1l1 2q23 42 41 103q21 70 21 131q1 69 -26 109q-29 44 -95 49q-67 5 -102 -48q-33 -50 -30 -136q3 -87 39 -167.5t91 -119.5zM100 577q18 29 34 59q5 11 12 24q1 2 5.5 10t4.5 9q11 21 16 29q11 16 24 17q9 1 17 -4q5 -3 11 -9q6 -7 19 -26l5 -8
q6 -9 12.5 -18.5t9.5 -14.5q20 -30 41 -57q4 -6 3 -13t-7 -11.5t-13 -3.5t-11 7q-21 28 -42 59q-3 4 -9.5 14t-12 18t-5.5 9q-9 14 -14 19q-4 -6 -13 -23q0 -1 -4.5 -9t-5.5 -10q-7 -13 -12 -24q-17 -31 -35 -61q-4 -6 -11 -8t-13 2t-8 11t2 13z" />
    <glyph glyph-name="otilde" unicode="&#xf5;" 
d="M186 -21q-63 46 -103 136q-38 86 -41 178q-3 97 36 156q46 70 134 64q82 -6 122 -65q32 -49 31 -129q0 -65 -22 -140q-19 -65 -45 -110l-1 -1l-1 -2l-2 -4q-3 -6 -6 -11q-9 -14 -17 -26q-13 -20 -25 -32q-14 -14 -26 -19q-19 -7 -34 5zM207 7q5 2 14 11q9 10 21 27
q8 11 16 24l6 10l2 4l1 1l1 2q23 42 41 103q21 70 21 131q1 69 -26 109q-29 44 -95 49q-67 5 -102 -48q-33 -50 -30 -136q3 -87 39 -167.5t91 -119.5zM74 632q46 27 81 28q15 0 30 -5q9 -3 23 -9h1q1 -1 2 -1q1 -1 2 -1q24 -11 41 -8q30 6 77 47q6 4 13 3.5t12 -6t4.5 -12.5
t-6.5 -12q-55 -47 -94 -54q-18 -4 -35 0q-11 3 -27 10q-1 0 -2 1l-2 1q-24 11 -39 11q-25 -1 -63 -23q-6 -4 -13 -2.5t-11 8t-2 13.5t8 11z" />
    <glyph glyph-name="odieresis" unicode="&#xf6;" 
d="M186 -21q-63 46 -103 136q-38 86 -41 178q-3 97 36 156q46 70 134 64q82 -6 122 -65q32 -49 31 -129q0 -65 -22 -140q-19 -65 -45 -110l-1 -1l-1 -2l-2 -4q-3 -6 -6 -11q-9 -14 -17 -26q-13 -20 -25 -32q-14 -14 -26 -19q-19 -7 -34 5zM207 7q5 2 14 11q9 10 21 27
q8 11 16 24l6 10l2 4l1 1l1 2q23 42 41 103q21 70 21 131q1 69 -26 109q-29 44 -95 49q-67 5 -102 -48q-33 -50 -30 -136q3 -87 39 -167.5t91 -119.5zM269 667h-1q-1 -3 -3 -7q0 -1 -1 -2q3 -4 6 -6q0 1 1 1q3 10 -2 14zM236 681q7 13 19 18q16 8 32 -2q13 -8 17.5 -24
t-1.5 -32q-7 -18 -22 -23t-29 4q-25 16 -25 44q0 10 9 15zM143 666q-2 -2 -4 -7v-1q2 -4 5 -7q1 1 1 2q3 9 -2 13zM111 680q7 13 18 19q16 7 32 -2q13 -9 18 -24.5t-1 -32.5q-7 -18 -22 -23t-30 5q-25 16 -25 43q0 11 10 15z" />
    <glyph glyph-name="divide" unicode="&#xf7;" horiz-adv-x="681" 
d="M319 143q-8 -11 -10 -18v-2h-1q1 0 1 -1q2 -1 5 -1q8 -1 17 0q20 4 25 12v1q-3 6 -16 13q-6 4 -21 -4zM296 171q5 5 12 6q7 3 14 4q20 6 36 -4q21 -12 29 -27q9 -17 0 -33q-13 -23 -50 -30q-38 -7 -55 13q-12 14 -7 34q3 11 12 24q1 8 8 12q1 0 1 1zM324 484
q-8 -11 -10 -18q0 -1 -1 -2v-1h1q2 -1 5 -2q8 -1 17 1q20 4 25 12l-1 1q-3 5 -15 13q-6 3 -21 -4zM301 511q5 5 12 6q7 3 13 5q21 5 37 -4q21 -12 28 -27q9 -17 1 -34q-13 -23 -50 -29q-38 -7 -55 13q-12 14 -7 34q3 11 12 24q1 7 8 11zM96 322q101 10 256 8q25 -1 75 -2
q95 -2 141 -2q8 0 13 -5t5 -12.5t-5 -12.5t-13 -5q-47 0 -141 2q-51 1 -76 2q-153 2 -251 -8q-7 0 -13 4.5t-6.5 11.5t4 13t11.5 6z" />
    <glyph glyph-name="oslash" unicode="&#xf8;" 
d="M325 460q4 -6 9 -12q32 -49 31 -129q0 -65 -22 -140q-19 -65 -45 -110l-1 -1l-1 -2l-2 -4q-3 -6 -6 -11q-9 -14 -17 -26q-13 -20 -25 -32q-14 -14 -26 -19q-19 -7 -34 5q-33 24 -60 61q-13 -27 -25 -55q-3 -7 -10 -9.5t-13.5 0.5t-9 9.5t0.5 13.5q17 39 34 76
q-11 19 -20 40q-38 86 -41 178q-3 97 36 156q46 70 134 64q51 -4 86 -28q3 8 7 16q3 6 9.5 9t13 0t9.5 -10t0 -13q-6 -14 -12 -27zM122 114q20 43 59 123q0 1 1 1q70 146 101 214q-28 23 -74 26q-67 5 -102 -48q-33 -50 -30 -136q3 -95 45 -180zM143 77q29 -45 64 -70
q5 2 14 11q9 10 21 27q8 11 16 24l6 10l2 4l1 1l1 2q23 42 41 103q21 70 21 131q1 64 -22 103q-29 -64 -95 -200q0 -1 -1 -1q-46 -97 -69 -145z" />
    <glyph glyph-name="ugrave" unicode="&#xf9;" horiz-adv-x="472" 
d="M107 480q10 -44 10 -101q0 -33 -5 -100l-3 -48q-6 -111 16 -178q19 -55 67 -39q22 8 43 27.5t31 42.5t17 47q11 40 16 89q1 12 2 22q1 35 4 76q2 49 4 76q3 39 8 73q1 4 1 8q0 5 3 9q6 11 18 9q8 -1 12 -7t3 -13l-2 -10q-1 -21 -7 -90q-3 -35 -5 -57v-4q-2 -48 -4 -71
q-3 -147 39 -231q3 -7 0.5 -13.5t-9 -10t-13 -1t-10.5 8.5q-23 47 -33 106q-5 -15 -12 -30q-12 -29 -38.5 -54t-56.5 -35q-37 -13 -67 2.5t-44 57.5q-15 44 -18 97q-3 40 0 95q1 16 3 49q5 65 5 97q0 53 -9 93q-1 7 2.5 13.5t10.5 8t13.5 -2.5t7.5 -11zM132 728
q12 -23 39 -67q1 -1 1 -2q20 -32 29 -48q16 -28 25 -52q3 -7 0 -13.5t-9.5 -9t-13.5 0t-9 9.5q-13 33 -52 95q0 1 -1 2q-28 45 -40 70q-3 6 -1 13t8.5 10t13.5 1t10 -9z" />
    <glyph glyph-name="uacute" unicode="&#xfa;" horiz-adv-x="472" 
d="M107 480q10 -44 10 -101q0 -33 -5 -100l-3 -48q-6 -111 16 -178q19 -55 67 -39q22 8 43 27.5t31 42.5t17 47q11 40 16 89q1 12 2 22q1 35 4 76q2 49 4 76q3 39 8 73q1 4 1 8q0 5 3 9q6 11 18 9q8 -1 12 -7t3 -13l-2 -10q-1 -21 -7 -90q-3 -35 -5 -57v-4q-2 -48 -4 -71
q-3 -147 39 -231q3 -7 0.5 -13.5t-9 -10t-13 -1t-10.5 8.5q-23 47 -33 106q-5 -15 -12 -30q-12 -29 -38.5 -54t-56.5 -35q-37 -13 -67 2.5t-44 57.5q-15 44 -18 97q-3 40 0 95q1 16 3 49q5 65 5 97q0 53 -9 93q-1 7 2.5 13.5t10.5 8t13.5 -2.5t7.5 -11zM337 707
q-20 -16 -39 -40q-13 -17 -34 -49q-1 -1 -4 -6l-3 -4q-19 -29 -30 -44q-4 -6 -11.5 -7t-13 3.5t-6.5 11.5t3 13q11 15 29 42l3 5q3 4 3 5q22 33 36 51q22 28 45 46q5 5 12.5 4t12 -6.5t3.5 -13t-6 -11.5z" />
    <glyph glyph-name="ucircumflex" unicode="&#xfb;" horiz-adv-x="472" 
d="M107 480q10 -44 10 -101q0 -33 -5 -100l-3 -48q-6 -111 16 -178q19 -55 67 -39q22 8 43 27.5t31 42.5t17 47q11 40 16 89q1 12 2 22q1 35 4 76q2 49 4 76q3 39 8 73q1 4 1 8q0 5 3 9q6 11 18 9q8 -1 12 -7t3 -13l-2 -10q-1 -21 -7 -90q-3 -35 -5 -57v-4q-2 -48 -4 -71
q-3 -147 39 -231q3 -7 0.5 -13.5t-9 -10t-13 -1t-10.5 8.5q-23 47 -33 106q-5 -15 -12 -30q-12 -29 -38.5 -54t-56.5 -35q-37 -13 -67 2.5t-44 57.5q-15 44 -18 97q-3 40 0 95q1 16 3 49q5 65 5 97q0 53 -9 93q-1 7 2.5 13.5t10.5 8t13.5 -2.5t7.5 -11zM107 574q17 29 34 59
q5 11 12 23q1 3 5 11t5 9q11 20 16 28q11 16 24 18q9 1 17 -4q5 -3 10 -9q7 -8 20 -26q0 -1 5.5 -9t12 -18t9.5 -14q20 -30 41 -58q4 -5 3 -12.5t-7 -11.5t-13 -3t-12 7q-20 28 -41 58q-3 5 -9.5 14.5t-12.5 17.5l-5 9q-10 14 -14 20q-4 -6 -13 -23q0 -1 -4.5 -9t-5.5 -11
q-7 -13 -12 -24q-17 -31 -35 -61q-4 -6 -11 -7.5t-13.5 2t-8 10.5t2.5 14z" />
    <glyph glyph-name="udieresis" unicode="&#xfc;" horiz-adv-x="472" 
d="M285 665v-1q-2 -2 -4 -6q0 -1 -1 -2q3 -4 6 -6l1 1q3 9 -2 14zM252 679q8 13 19 18q16 8 32 -2q13 -8 18 -24t-2 -32q-6 -19 -21 -24t-30 5q-25 16 -25 43q0 11 9 16zM146 666q-2 -2 -4 -7v-1q2 -4 5 -7q1 1 1 2q3 9 -2 13zM114 680q7 13 18 19q16 7 32 -2
q13 -9 18 -24.5t-1 -32.5q-7 -18 -22 -23t-30 5q-25 16 -25 43q0 11 10 15zM107 480q10 -44 10 -101q0 -33 -5 -100l-3 -48q-6 -111 16 -178q19 -55 67 -39q22 8 43 27.5t31 42.5t17 47q11 40 16 89q1 12 2 22q1 35 4 76q2 49 4 76q3 39 8 73q1 4 1 8q0 5 3 9q6 11 18 9
q8 -1 12 -7t3 -13l-2 -10q-1 -21 -7 -90q-3 -35 -5 -57v-4q-2 -48 -4 -71q-3 -147 39 -231q3 -7 0.5 -13.5t-9 -10t-13 -1t-10.5 8.5q-23 47 -33 106q-5 -15 -12 -30q-12 -29 -38.5 -54t-56.5 -35q-37 -13 -67 2.5t-44 57.5q-15 44 -18 97q-3 40 0 95q1 16 3 49q5 65 5 97
q0 53 -9 93q-1 7 2.5 13.5t10.5 8t13.5 -2.5t7.5 -11z" />
    <glyph glyph-name="yacute" unicode="&#xfd;" horiz-adv-x="403" 
d="M50 476q4 -105 41 -149q28 -33 69 -21q42 12 76 60q27 39 34 87q1 12 2 25q1 7 6 11.5t12 4.5h1q7 0 11.5 -5t4.5 -12q0 -14 -2 -28q-8 -90 -27 -168q-2 -9 -10.5 -42.5t-9.5 -38.5q-1 -6 -3 -12q-16 -76 -82 -227q-74 -172 -118 -204q-6 -4 -13 -3t-11.5 7t-3 13t7.5 11
q36 27 106 189q64 149 80 222q1 6 3 12q1 5 9.5 38.5t10.5 42.5q5 22 10 43q-38 -47 -85 -60q-63 -17 -105 33q-45 53 -49 170q0 7 4.5 12.5t12 5.5t13 -4.5t5.5 -12.5zM267 691q-32 -54 -95 -142q-4 -6 -11 -7.5t-13 3t-7.5 11.5t3.5 13q61 87 93 140q3 6 10 8t13.5 -1.5
t8.5 -10.5t-2 -14z" />
    <glyph glyph-name="thorn" unicode="&#xfe;" horiz-adv-x="468" 
d="M130 156q2 -3 3 -7q12 -64 48 -105q39 -45 93 -37q37 7 54.5 86t3.5 181q-14 105 -51 162q-38 58 -86 38q-33 -14 -49 -65q-11 -33 -15 -90q0 -68 -1 -157v-6zM115 760q-4 -57 4 -155q1 -8 2 -24q7 -78 8 -118v-4q20 34 52 47q75 31 129 -50q42 -65 57 -178
q14 -108 -5 -194q-10 -45 -28 -73q-22 -33 -55 -38q-72 -12 -125 48q-14 16 -26 37v-8v-6q-3 -178 -3 -266q0 -7 -5 -12t-12 -5t-12.5 5t-5.5 12q0 89 3 266q1 79 2 119q1 84 1 150q-1 2 -1 4q1 2 1 4q0 75 -2 142q-1 38 -8 115q-1 16 -2 24q-9 101 -4 161q1 7 6.5 12
t12.5 4.5t12 -6t4 -13.5z" />
    <glyph glyph-name="ydieresis" unicode="&#xff;" horiz-adv-x="403" 
d="M105 664l-1 -1l-3 -6q0 -1 -1 -2q3 -4 6 -6q0 1 1 1q3 10 -2 14zM72 678q7 13 19 18q16 8 32 -2q13 -8 17.5 -24t-1.5 -32q-7 -18 -22 -23t-29 4q-25 16 -25 43q0 11 9 16zM241 669v-1q-2 -2 -4 -6v-2q2 -4 6 -6v1q4 9 -2 14zM209 683q7 13 18 18q17 7 32 -2
q13 -8 18 -24t-1 -33q-7 -18 -22 -23t-30 5q-25 16 -25 43q0 11 10 16zM50 476q4 -105 41 -149q28 -33 69 -21q42 12 76 60q27 39 34 87q1 12 2 25q1 7 6 11.5t12 4.5h1q7 0 11.5 -5t4.5 -12q0 -14 -2 -28q-8 -90 -27 -168q-2 -9 -10.5 -42.5t-9.5 -38.5q-1 -6 -3 -12
q-16 -76 -82 -227q-74 -172 -118 -204q-6 -4 -13 -3t-11.5 7t-3 13t7.5 11q36 27 106 189q64 149 80 222q1 6 3 12q1 5 9.5 38.5t10.5 42.5q5 22 10 43q-38 -47 -85 -60q-63 -17 -105 33q-45 53 -49 170q0 7 4.5 12.5t12 5.5t13 -4.5t5.5 -12.5z" />
    <glyph glyph-name="Amacron" unicode="&#x100;" horiz-adv-x="508" 
d="M164 476q-22 -100 -28 -129q-17 -76 -31 -128q20 4 43 6q23 3 68 5q40 1 60 3q25 3 45 8q-20 82 -40 162q-33 128 -54 205q-9 34 -15 55q-9 -25 -22 -75q-10 -39 -26 -112zM-9 19q23 16 54 115q8 25 17 56q-1 0 -1 1q-2 10 5 17q16 58 36 147l28 129q16 73 26 113
q14 54 24 81q7 17 13 26q4 6 9 9q8 6 16 6q10 -1 12 -3t7 -15q2 -7 6 -19q7 -23 18 -65q21 -77 54 -205q70 -278 97 -400q2 -7 -2 -13t-11 -7.5t-13 2t-8 11.5q-13 61 -48 202q-23 -5 -50 -8q-21 -3 -63 -4q-44 -2 -66 -5q-30 -3 -55 -8q-9 -32 -18 -59q-34 -111 -68 -133
q-6 -4 -13.5 -2.5t-11.5 7.5t-2.5 13t8.5 11zM109 845q32 3 76 2q27 -1 69 -3q1 0 14 -1t16 -1q16 0 25 -1q7 0 12 -5.5t5 -12.5t-5.5 -12t-12.5 -5q-10 1 -26 1q-3 1 -16 1l-13 1q-42 2 -68 3q-43 0 -73 -1q-8 -1 -13 4t-5.5 12t4 12.5t11.5 5.5z" />
    <glyph glyph-name="amacron" unicode="&#x101;" horiz-adv-x="432" 
d="M265 239q-4 -3 -13 -9q-11 -7 -36 -20q-28 -16 -39 -23q-61 -35 -85 -65q-29 -35 -12 -72q8 -17 30 -28q27 -13 56 -5q21 6 42.5 32.5t35.5 63.5q9 24 14 52q3 16 7 44v30zM62 431q17 42 53.5 62.5t78.5 13.5t71 -36.5t34 -71.5q3 -21 2 -103q1 -6 0 -11v-6
q-1 -37 -1 -58q1 -3 1 -7q-1 -4 -1 -7v-2q0 -92 6 -138q4 -28 10 -42q2 -6 4 -8h1q6 0 10.5 -5t4.5 -12t-5 -12t-12 -5q-13 0 -23 9q-7 7 -12 19q-8 18 -13 51q-1 9 -2 20q-14 -30 -32 -53q-29 -37 -62 -46q-42 -11 -80 7q-34 17 -47 46q-26 56 17 109q28 34 94 72
q12 8 40 23q24 13 35 20t16 11q11 9 16 20q1 85 -1 104q-4 30 -25 51t-51 26q-31 5 -56.5 -9t-37.5 -45q-3 -6 -9.5 -9t-13.5 -0.5t-9.5 9.5t-0.5 13zM77 638q40 12 98 16q39 3 98 3q7 0 12 -5t5 -12.5t-5 -12.5t-12 -5q-57 0 -96 -3q-54 -4 -91 -14q-7 -2 -13 1.5t-8 10.5
t1.5 13t10.5 8z" />
    <glyph glyph-name="Abreve" unicode="&#x102;" horiz-adv-x="508" 
d="M164 476q-22 -100 -28 -129q-17 -76 -31 -128q20 4 43 6q23 3 68 5q40 1 60 3q25 3 45 8q-20 82 -40 162q-33 128 -54 205q-9 34 -15 55q-9 -25 -22 -75q-10 -39 -26 -112zM-9 19q23 16 54 115q8 25 17 56q-1 0 -1 1q-2 10 5 17q16 58 36 147l28 129q16 73 26 113
q14 54 24 81q7 17 13 26q4 6 9 9q8 6 16 6q10 -1 12 -3t7 -15q2 -7 6 -19q7 -23 18 -65q21 -77 54 -205q70 -278 97 -400q2 -7 -2 -13t-11 -7.5t-13 2t-8 11.5q-13 61 -48 202q-23 -5 -50 -8q-21 -3 -63 -4q-44 -2 -66 -5q-30 -3 -55 -8q-9 -32 -18 -59q-34 -111 -68 -133
q-6 -4 -13.5 -2.5t-11.5 7.5t-2.5 13t8.5 11zM132 891q11 -42 32.5 -65.5t46.5 -24.5t47.5 22t36.5 65q2 7 8.5 10t13.5 1t10 -8.5t1 -13.5q-18 -53 -49.5 -82.5t-68.5 -28.5q-38 1 -67.5 32t-44.5 84q-2 7 1.5 13.5t10.5 8t13.5 -2t8.5 -10.5z" />
    <glyph glyph-name="abreve" unicode="&#x103;" horiz-adv-x="432" 
d="M265 239q-4 -3 -13 -9q-11 -7 -36 -20q-28 -16 -39 -23q-61 -35 -85 -65q-29 -35 -12 -72q8 -17 30 -28q27 -13 56 -5q21 6 42.5 32.5t35.5 63.5q9 24 14 52q3 16 7 44v30zM62 431q17 42 53.5 62.5t78.5 13.5t71 -36.5t34 -71.5q3 -21 2 -103q1 -6 0 -11v-6
q-1 -37 -1 -58q1 -3 1 -7q-1 -4 -1 -7v-2q0 -92 6 -138q4 -28 10 -42q2 -6 4 -8h1q6 0 10.5 -5t4.5 -12t-5 -12t-12 -5q-13 0 -23 9q-7 7 -12 19q-8 18 -13 51q-1 9 -2 20q-14 -30 -32 -53q-29 -37 -62 -46q-42 -11 -80 7q-34 17 -47 46q-26 56 17 109q28 34 94 72
q12 8 40 23q24 13 35 20t16 11q11 9 16 20q1 85 -1 104q-4 30 -25 51t-51 26q-31 5 -56.5 -9t-37.5 -45q-3 -6 -9.5 -9t-13.5 -0.5t-9.5 9.5t-0.5 13zM101 695q10 -34 33 -55.5t50 -24.5q29 -2 52.5 17.5t36.5 58.5q2 7 8.5 10.5t13.5 1t10.5 -9t0.5 -13.5
q-16 -50 -49.5 -76.5t-75.5 -23.5q-38 4 -69.5 32.5t-44.5 72.5q-2 7 1.5 13.5t10.5 8.5t13.5 -1.5t8.5 -10.5z" />
    <glyph glyph-name="Aogonek" unicode="&#x104;" horiz-adv-x="563" 
d="M164 476q-22 -100 -28 -129q-17 -76 -31 -128q20 4 43 6q23 3 68 5q40 1 60 3q25 3 45 8q-20 82 -40 162q-33 128 -54 205q-9 34 -15 55q-9 -25 -22 -75q-10 -39 -26 -112zM381 -16v14v1q-2 2 -3 6q-13 61 -48 202q-23 -5 -50 -8q-21 -3 -63 -4q-44 -2 -66 -5
q-30 -3 -55 -8q-9 -32 -18 -59q-34 -111 -68 -133q-6 -4 -13.5 -2.5t-11.5 7.5t-2.5 13t8.5 11q23 16 54 115q8 25 17 56q-1 0 -1 1q-2 10 5 17q16 58 36 147l28 129q16 73 26 113q14 54 24 81q7 17 13 26q4 6 9 9q8 6 16 6q10 -1 12 -3t7 -15q2 -7 6 -19q7 -23 18 -65
q21 -77 54 -205q70 -278 97 -400q1 -2 1 -4q3 -5 3 -10v-14v-7v-2q0 -10 -8 -15q-32 -19 -50 -62q-17 -40 -12 -72q1 -13 6 -19q4 -4 10 -3q26 2 75 57q5 6 12 6.5t12.5 -4.5t6 -12t-4.5 -13q-58 -66 -99 -69q-23 -2 -38 15q-12 14 -15 37q-6 41 15 90q20 47 55 73z" />
    <glyph glyph-name="aogonek" unicode="&#x105;" horiz-adv-x="484" 
d="M265 239q-4 -3 -13 -9q-11 -7 -36 -20q-28 -16 -39 -23q-61 -35 -85 -65q-29 -35 -12 -72q8 -17 30 -28q27 -13 56 -5q21 6 42.5 32.5t35.5 63.5q9 24 14 52q3 16 7 44v30zM329 -16q-31 -19 -50 -62q-17 -40 -12 -73q2 -12 7 -18q3 -4 9 -3q26 2 75 57q5 6 12 6.5
t12.5 -4.5t6 -12t-3.5 -13q-59 -66 -100 -69q-23 -2 -38 15q-11 14 -15 37q-6 41 15 90q17 39 44 64q-4 5 -7 12q-8 18 -13 51q-1 9 -2 20q-14 -30 -32 -53q-29 -37 -62 -46q-42 -11 -80 7q-34 17 -47 46q-26 56 17 109q28 34 94 72q12 8 40 23q24 13 35 20t16 11
q11 9 16 20q1 85 -1 104q-4 30 -25 51t-51 26q-31 5 -56.5 -9t-37.5 -45q-3 -6 -9.5 -9t-13.5 -0.5t-9.5 9.5t-0.5 13q17 42 53.5 62.5t78.5 13.5t71 -36.5t34 -71.5q3 -21 2 -103q1 -6 0 -11v-6q-1 -37 -1 -58q1 -3 1 -7q-1 -4 -1 -7v-2q0 -92 6 -138q4 -28 10 -42
q2 -6 4 -8h1q7 0 11 -6q2 -1 3 -3q4 -6 2 -13.5t-8 -10.5z" />
    <glyph glyph-name="Cacute" unicode="&#x106;" horiz-adv-x="537" 
d="M396 616q2 35 -17 56q-17 20 -50 25q-33 6 -69 -3.5t-60 -31.5q-59 -52 -91 -140q-27 -76 -31 -170q-6 -109 47 -203q48 -83 119 -120q67 -35 111 -6q52 34 52 141q0 7 5 12.5t12 5.5t12.5 -5.5t5.5 -12.5q0 -126 -68 -170q-61 -40 -146 4q-80 42 -133 134
q-58 103 -52 222q5 99 33 179q35 97 100 155q31 27 74.5 39t84.5 5q47 -8 73 -39.5t22 -78.5q0 -8 -5.5 -12.5t-13 -4t-12 6t-3.5 12.5zM338 898q-12 -14 -33 -48v-1q-13 -21 -20 -32q-13 -18 -25 -30q-5 -5 -12.5 -5t-12.5 5t-5 12.5t5 12.5q15 15 40 55q0 1 1 1
q21 37 35 53q5 5 12 5.5t12.5 -4t6.5 -11.5t-4 -13z" />
    <glyph glyph-name="cacute" unicode="&#x107;" horiz-adv-x="421" 
d="M256 389q25 43 10 64q-14 19 -52 15q-45 -5 -82 -39q-43 -39 -54 -103q-10 -52 13.5 -133.5t62.5 -134.5q38 -52 68 -44q40 11 69 115q2 7 8.5 10.5t13 1.5t10.5 -8t2 -13q-35 -123 -94 -139q-28 -8 -58 10q-24 15 -47 46q-44 59 -68.5 147.5t-14.5 147.5q14 75 66 123
q45 41 101 48q58 6 84 -30q29 -39 -7 -102q-4 -6 -11 -8t-13.5 2t-8 11t1.5 13zM289 693q-17 -21 -44 -67q-23 -38 -36 -56q-4 -6 -11.5 -7.5t-13 3t-7 11.5t2.5 13q13 17 35 54q29 48 46 71q5 5 12 6t13 -3.5t6.5 -11.5t-3.5 -13z" />
    <glyph glyph-name="Ccircumflex" unicode="&#x108;" horiz-adv-x="537" 
d="M396 616q2 35 -17 56q-17 20 -50 25q-33 6 -69 -3.5t-60 -31.5q-59 -52 -91 -140q-27 -76 -31 -170q-6 -109 47 -203q48 -83 119 -120q67 -35 111 -6q52 34 52 141q0 7 5 12.5t12 5.5t12.5 -5.5t5.5 -12.5q0 -126 -68 -170q-61 -40 -146 4q-80 42 -133 134
q-58 103 -52 222q5 99 33 179q35 97 100 155q31 27 74.5 39t84.5 5q47 -8 73 -39.5t22 -78.5q0 -8 -5.5 -12.5t-13 -4t-12 6t-3.5 12.5zM180 794q18 28 34 59q6 10 13 23q1 2 5 10.5t5 9.5q10 20 16 28q10 16 24 17q8 1 16 -3q6 -3 11 -9q7 -8 19 -26q1 -1 6.5 -9t11.5 -18
t10 -14q20 -30 40 -58q4 -6 3 -13t-6.5 -11t-13 -3t-11.5 6q-21 29 -41 59q-4 5 -10.5 14.5t-11.5 18t-6 8.5q-9 14 -14 20q-4 -6 -12 -23q-1 -1 -5 -9.5t-5 -10.5q-7 -13 -13 -24q-17 -31 -35 -61q-4 -6 -11 -7.5t-13 2t-7.5 10.5t1.5 14z" />
    <glyph glyph-name="ccircumflex" unicode="&#x109;" horiz-adv-x="421" 
d="M256 389q25 43 10 64q-14 19 -52 15q-45 -5 -82 -39q-43 -39 -54 -103q-10 -52 13.5 -133.5t62.5 -134.5q38 -52 68 -44q40 11 69 115q2 7 8.5 10.5t13 1.5t10.5 -8t2 -13q-35 -123 -94 -139q-28 -8 -58 10q-24 15 -47 46q-44 59 -68.5 147.5t-14.5 147.5q14 75 66 123
q45 41 101 48q58 6 84 -30q29 -39 -7 -102q-4 -6 -11 -8t-13.5 2t-8 11t1.5 13zM99 575q18 29 34 60q6 10 12 23q1 2 5.5 10.5t4.5 9.5q11 20 16 28q11 16 24 17q9 1 17 -3q5 -3 11 -9q7 -8 19 -27l6 -8q5 -9 11.5 -18.5t9.5 -14.5q20 -29 41 -57q4 -6 3 -13t-7 -11.5
t-13 -3.5t-11 7q-21 29 -42 59q-3 5 -9.5 14.5t-12.5 17.5l-5 9q-9 14 -14 20q-4 -7 -13 -23q0 -1 -4.5 -9.5t-5.5 -10.5q-6 -13 -12 -24q-17 -31 -35 -61q-4 -6 -11 -7.5t-13 2t-8 10.5t2 13z" />
    <glyph glyph-name="Cdotaccent" unicode="&#x10a;" horiz-adv-x="537" 
d="M266 890q21 12 38 6q14 -5 18 -19q3 -12 -3 -27q-14 -38 -38 -42q-13 -2 -24 7q-8 6 -13 16q-11 23 -1 42q7 14 23 17zM396 616q2 35 -17 56q-17 20 -50 25q-33 6 -69 -3.5t-60 -31.5q-59 -52 -91 -140q-27 -76 -31 -170q-6 -109 47 -203q48 -83 119 -120q67 -35 111 -6
q52 34 52 141q0 7 5 12.5t12 5.5t12.5 -5.5t5.5 -12.5q0 -126 -68 -170q-61 -40 -146 4q-80 42 -133 134q-58 103 -52 222q5 99 33 179q35 97 100 155q31 27 74.5 39t84.5 5q47 -8 73 -39.5t22 -78.5q0 -8 -5.5 -12.5t-13 -4t-12 6t-3.5 12.5zM281 855q-3 1 -6 1h-1v-3
q0 -3 2 -7q0 -1 1 -2v1q3 3 6 10h-2z" />
    <glyph glyph-name="cdotaccent" unicode="&#x10b;" horiz-adv-x="421" 
d="M164 659q-4 6 -4 13t6 12q1 0 2 2q7 6 11 9q36 20 58 1q24 -20 5 -58q-12 -24 -33 -29t-36 11q-16 16 -9 38v1zM256 389q25 43 10 64q-14 19 -52 15q-45 -5 -82 -39q-43 -39 -54 -103q-10 -52 13.5 -133.5t62.5 -134.5q38 -52 68 -44q40 11 69 115q2 7 8.5 10.5t13 1.5
t10.5 -8t2 -13q-35 -123 -94 -139q-28 -8 -58 10q-24 15 -47 46q-44 59 -68.5 147.5t-14.5 147.5q14 75 66 123q45 41 101 48q58 6 84 -30q29 -39 -7 -102q-4 -6 -11 -8t-13.5 2t-8 11t1.5 13zM213 660q-14 -7 -16 -13q0 -2 1 -3t3 -1q5 1 10 11q2 3 3 6h-1z" />
    <glyph glyph-name="Ccaron" unicode="&#x10c;" horiz-adv-x="537" 
d="M396 616q2 35 -17 56q-17 20 -50 25q-33 6 -69 -3.5t-60 -31.5q-59 -52 -91 -140q-27 -76 -31 -170q-6 -109 47 -203q48 -83 119 -120q67 -35 111 -6q52 34 52 141q0 7 5 12.5t12 5.5t12.5 -5.5t5.5 -12.5q0 -126 -68 -170q-61 -40 -146 4q-80 42 -133 134
q-58 103 -52 222q5 99 33 179q35 97 100 155q31 27 74.5 39t84.5 5q47 -8 73 -39.5t22 -78.5q0 -8 -5.5 -12.5t-13 -4t-12 6t-3.5 12.5zM389 908q-20 -25 -38 -52q-7 -9 -14 -20q-2 -2 -6.5 -9.5t-5.5 -8.5q-12 -18 -18 -25q-12 -13 -25 -14q-14 0 -26 14q-6 7 -17 26
q-1 0 -5.5 8t-10.5 17.5t-8 13.5q-18 29 -36 56q-4 6 -2.5 13t7.5 11t13 3t11 -7q19 -28 37 -57q2 -5 8 -14.5t11 -17.5l4 -8q9 -14 13 -20q5 6 15 21q1 1 5.5 8t6.5 9q7 12 14 21q19 28 40 54q4 6 11 6.5t13 -4t7 -11.5t-4 -13z" />
    <glyph glyph-name="ccaron" unicode="&#x10d;" horiz-adv-x="421" 
d="M256 389q25 43 10 64q-14 19 -52 15q-45 -5 -82 -39q-43 -39 -54 -103q-10 -52 13.5 -133.5t62.5 -134.5q38 -52 68 -44q40 11 69 115q2 7 8.5 10.5t13 1.5t10.5 -8t2 -13q-35 -123 -94 -139q-28 -8 -58 10q-24 15 -47 46q-44 59 -68.5 147.5t-14.5 147.5q14 75 66 123
q45 41 101 48q58 6 84 -30q29 -39 -7 -102q-4 -6 -11 -8t-13.5 2t-8 11t1.5 13zM122 712q20 -28 37 -57q6 -10 14 -22q1 -2 5.5 -9.5t4.5 -8.5q9 -15 13 -21q5 6 15 21q2 2 7 10l6 8q8 12 15 22q21 29 43 56q5 6 12 7t12.5 -3.5t6.5 -12t-4 -12.5q-21 -27 -41 -55
q-7 -10 -15 -22l-6 -8q-6 -8 -7 -10q-13 -19 -19 -26q-13 -13 -26.5 -12.5t-24.5 14.5q-6 7 -17 26q-1 1 -5 8.5t-6 9.5q-7 12 -13 22q-17 28 -35 55q-5 6 -3.5 13.5t7.5 11.5t13 2.5t11 -7.5z" />
    <glyph glyph-name="Dcaron" unicode="&#x10e;" horiz-adv-x="542" 
d="M118 32q95 -7 156 31q65 41 106 167.5t29 249.5q-14 134 -88 191q-75 57 -205 19q10 -90 11 -337q1 -232 -9 -321zM82 678h-2q-7 -3 -13.5 0t-9 10t0.5 13.5t10 9.5q173 65 275 -13q86 -65 101 -214q13 -132 -31 -266q-44 -137 -120 -185q-74 -46 -185 -35q-6 -5 -14 -3
q-7 1 -11 7.5t-2 13.5q13 58 11 337q-1 232 -10 325zM150 930q16 -23 34 -52q2 -3 7.5 -11.5t5.5 -9.5q7 -10 11 -16q10 -14 15 -20q1 0 2 1q5 6 15 20q4 6 11 17l1 1q0 1 1 2.5t2 3.5t2.5 4t2.5 4t2 3.5t2 2.5q19 29 35 53q4 6 11.5 7.5t13 -2.5t7 -11t-2.5 -13
q-16 -24 -34 -53q-3 -4 -14 -20v-1q-7 -11 -11 -17q-11 -17 -19 -25q-12 -13 -26 -13q-13 -1 -26 12q-8 7 -19 24q-4 7 -11 17q-1 2 -6.5 10.5t-6.5 10.5q-18 28 -34 51q-4 6 -3 13t7 11.5t13.5 3t11.5 -7.5z" />
    <glyph glyph-name="dcaron" unicode="&#x10f;" horiz-adv-x="569" 
d="M292 275q-10 -9 -22 -17q-22 -15 -71 -37q-1 0 -2 -1l-2 -1q-51 -22 -72 -38q-32 -23 -42 -55q-12 -36 8 -70q20 -32 56 -43q38 -12 73 9q41 25 64 91q13 39 10 86q0 5 2 9q-2 32 -2 67zM356 747q-26 -208 -29 -379q-5 -247 39 -366q3 -6 0 -13t-10 -9.5t-13.5 0.5
t-9.5 10q-15 41 -25 95q-26 -65 -72 -93q-48 -29 -101 -13q-49 15 -76 59q-28 47 -12 99q14 42 55 72q24 18 78 42q1 1 2 1q1 1 2 1q47 21 67 34q29 20 40 44q0 19 1 38q3 173 29 382q1 7 7 11.5t13 3.5t11.5 -6.5t3.5 -12.5zM472 702q-8 -21 -24 -64v-1q-23 -62 -36 -92
q-3 -7 -10 -9.5t-13.5 0.5t-9 10t0.5 13q13 29 35 90v1q16 43 25 65q2 6 9 9t13.5 0.5t9.5 -9.5t0 -13z" />
    <glyph glyph-name="Dcroat" unicode="&#x110;" horiz-adv-x="542" 
d="M118 32q95 -7 156 31q65 41 106 167.5t29 249.5q-14 134 -88 191q-75 57 -205 19q9 -80 11 -297q64 1 155 1q7 0 12 -5t5 -12t-5 -12.5t-12 -5.5q-91 0 -155 -1v-5q1 -232 -9 -321zM82 678h-2q-7 -3 -13.5 0t-9 10t0.5 13.5t10 9.5q173 65 275 -13q86 -65 101 -214
q13 -132 -31 -266q-44 -137 -120 -185q-74 -46 -185 -35q-6 -5 -14 -3q-7 1 -11 7.5t-2 13.5q13 58 11 337v5l-48 -2q-7 0 -12.5 5t-5.5 12t5 12.5t12 5.5q24 1 49 2q-2 203 -10 285z" />
    <glyph glyph-name="dcroat" unicode="&#x111;" horiz-adv-x="509" 
d="M292 275q-10 -9 -22 -17q-22 -15 -71 -37q-1 0 -2 -1l-2 -1q-51 -22 -72 -38q-32 -23 -42 -55q-12 -36 8 -70q20 -32 56 -43q38 -12 73 9q41 25 64 91q13 39 10 86q0 5 2 9q-2 32 -2 67zM201 589q21 1 63 2q16 1 24 1h16q7 78 17 159q1 7 7 11.5t13 3.5t11.5 -6.5
t3.5 -12.5q-10 -78 -16 -152q29 2 53 6q7 2 13 -2.5t7.5 -11.5t-2.5 -13t-12 -7q-28 -5 -62 -8q-9 -101 -10 -191q-5 -247 39 -366q3 -6 0 -13t-10 -9.5t-13.5 0.5t-9.5 10q-15 41 -25 95q-26 -65 -72 -93q-48 -29 -101 -13q-49 15 -76 59q-28 47 -12 99q14 42 55 72
q24 18 78 42q1 1 2 1q1 1 2 1q47 21 67 34q29 20 40 44q0 19 1 38q1 88 9 188h-11q-8 0 -25 -1q-41 -1 -62 -2q-7 -1 -12.5 4t-6 12t4.5 12.5t12 6.5z" />
    <glyph glyph-name="Emacron" unicode="&#x112;" horiz-adv-x="464" 
d="M336 678q-11 0 -31 2q-7 1 -17 2q-2 0 -9.5 1t-9.5 1q-24 3 -40 4q-81 7 -99 -12q-2 -2 -5 -9q-3 -9 -6 -24q-6 -29 -10 -77q-2 -30 -3 -67q39 12 100 11q63 -2 120 -15q7 -1 11 -7t2.5 -13.5t-8 -11t-13.5 -2.5q-53 12 -113 14q-65 1 -100 -13q-1 -56 0 -116
q3 -126 14 -218q6 -48 13 -76q3 -14 7 -22q2 -6 3 -7t3 -2q4 -1 9 -2q12 -1 32 -1q25 1 94 7q10 1 16 1q33 3 54 5q7 0 12.5 -5t6 -12t-4.5 -12.5t-12 -5.5q-21 -2 -53 -4q-6 -1 -16 -2q-70 -6 -96 -7q-51 -1 -67 13q-23 19 -36 127q-11 94 -14 222q-3 129 4 224
q9 110 31 132q18 18 57 23q28 3 70 -1q16 -1 41 -4q51 -6 63 -6q7 0 12 -5t5 -12.5t-5 -12.5t-12 -5zM114 843q37 0 111 6q76 5 114 5q7 0 12 -5t5 -12t-5 -12.5t-12 -5.5q-37 0 -111 -5q-76 -6 -114 -6q-7 0 -12 5t-5 12.5t5 12.5t12 5z" />
    <glyph glyph-name="emacron" unicode="&#x113;" horiz-adv-x="428" 
d="M91 354q11 3 15 4q39 10 67 19q64 21 90 40q12 10 13 16t-8 15q-44 41 -98 16q-57 -26 -78 -103q0 -3 -1 -7zM50 327q0 6 2 10q2 17 7 33q24 93 97 126q35 16 71 10t65 -33q23 -21 19 -46q-4 -20 -27 -37q-30 -24 -100 -46q-29 -9 -69 -20l-26 -6q-3 -1 -5 -1
q-5 -55 5 -117q15 -83 50 -141t68 -54q35 3 59 44q22 36 27 83q1 7 6.5 12t13 4t12 -6.5t3.5 -13.5q-6 -54 -32 -97q-33 -56 -85 -61q-54 -5 -100 68q-40 64 -56 156q-12 71 -5 133zM107 636q133 15 208 15q7 0 12.5 -5t5.5 -12t-5.5 -12.5t-12.5 -5.5q-74 0 -204 -14
q-7 -1 -13 3.5t-6.5 11.5t4 13t11.5 6z" />
    <glyph glyph-name="Ebreve" unicode="&#x114;" horiz-adv-x="464" 
d="M336 678q-11 0 -31 2q-7 1 -17 2q-2 0 -9.5 1t-9.5 1q-24 3 -40 4q-81 7 -99 -12q-2 -2 -5 -9q-3 -9 -6 -24q-6 -29 -10 -77q-2 -30 -3 -67q39 12 100 11q63 -2 120 -15q7 -1 11 -7t2.5 -13.5t-8 -11t-13.5 -2.5q-53 12 -113 14q-65 1 -100 -13q-1 -56 0 -116
q3 -126 14 -218q6 -48 13 -76q3 -14 7 -22q2 -6 3 -7t3 -2q4 -1 9 -2q12 -1 32 -1q25 1 94 7q10 1 16 1q33 3 54 5q7 0 12.5 -5t6 -12t-4.5 -12.5t-12 -5.5q-21 -2 -53 -4q-6 -1 -16 -2q-70 -6 -96 -7q-51 -1 -67 13q-23 19 -36 127q-11 94 -14 222q-3 129 4 224
q9 110 31 132q18 18 57 23q28 3 70 -1q16 -1 41 -4q51 -6 63 -6q7 0 12 -5t5 -12.5t-5 -12.5t-12 -5zM139 876q12 -32 31 -50.5t41 -19.5q23 -1 44 18t37 58q2 7 9 9.5t13.5 0t9.5 -9t0 -13.5q-19 -49 -49.5 -74.5t-65.5 -23.5q-33 2 -60.5 26.5t-42.5 66.5q-2 7 1 13.5
t10 9t13.5 -0.5t8.5 -10z" />
    <glyph glyph-name="ebreve" unicode="&#x115;" horiz-adv-x="424" 
d="M91 354q11 3 15 4q39 10 67 19q64 21 90 40q12 10 13 16t-8 15q-44 41 -98 16q-57 -26 -78 -103q0 -3 -1 -7zM50 327q0 6 2 10q2 17 7 33q24 93 97 126q35 16 71 10t65 -33q23 -21 19 -46q-4 -20 -27 -37q-30 -24 -100 -46q-29 -9 -69 -20l-26 -6q-3 -1 -5 -1
q-5 -55 5 -117q15 -83 50 -141t68 -54q35 3 59 44q22 36 27 83q1 7 6.5 12t13 4t12 -6.5t3.5 -13.5q-6 -54 -32 -97q-33 -56 -85 -61q-54 -5 -100 68q-40 64 -56 156q-12 71 -5 133zM128 687q12 -32 31 -50.5t41 -19.5q23 -1 44 18.5t36 57.5q3 7 9.5 10t13.5 0t10 -9.5
t0 -13.5q-20 -48 -50 -73.5t-65 -24.5q-33 2 -60.5 27t-42.5 66q-2 7 1 13.5t9.5 9t13.5 -0.5t9 -10z" />
    <glyph glyph-name="Edotaccent" unicode="&#x116;" horiz-adv-x="464" 
d="M181 876q0 7 4.5 12t11.5 5q47 4 60 -17q7 -13 2 -27q-4 -10 -13 -19q-17 -18 -38 -21q-16 -2 -26.5 6.5t-11.5 25.5q-1 21 11 35zM336 678q-11 0 -31 2q-7 1 -17 2q-2 0 -9.5 1t-9.5 1q-24 3 -40 4q-81 7 -99 -12q-2 -2 -5 -9q-3 -9 -6 -24q-6 -29 -10 -77
q-2 -30 -3 -67q39 12 100 11q63 -2 120 -15q7 -1 11 -7t2.5 -13.5t-8 -11t-13.5 -2.5q-53 12 -113 14q-65 1 -100 -13q-1 -56 0 -116q3 -126 14 -218q6 -48 13 -76q3 -14 7 -22q2 -6 3 -7t3 -2q4 -1 9 -2q12 -1 32 -1q25 1 94 7q10 1 16 1q33 3 54 5q7 0 12.5 -5t6 -12
t-4.5 -12.5t-12 -5.5q-21 -2 -53 -4q-6 -1 -16 -2q-70 -6 -96 -7q-51 -1 -67 13q-23 19 -36 127q-11 94 -14 222q-3 129 4 224q9 110 31 132q18 18 57 23q28 3 70 -1q16 -1 41 -4q51 -6 63 -6q7 0 12 -5t5 -12.5t-5 -12.5t-12 -5zM217 857q-12 -1 -12 -13q9 3 16 11q2 1 3 3
h-2q-2 -1 -5 -1z" />
    <glyph glyph-name="edotaccent" unicode="&#x117;" horiz-adv-x="424" 
d="M91 354q11 3 15 4q39 10 67 19q64 21 90 40q12 10 13 16t-8 15q-44 41 -98 16q-57 -26 -78 -103q0 -3 -1 -7zM50 327q0 6 2 10q2 17 7 33q24 93 97 126q35 16 71 10t65 -33q23 -21 19 -46q-4 -20 -27 -37q-30 -24 -100 -46q-29 -9 -69 -20l-26 -6q-3 -1 -5 -1
q-5 -55 5 -117q15 -83 50 -141t68 -54q35 3 59 44q22 36 27 83q1 7 6.5 12t13 4t12 -6.5t3.5 -13.5q-6 -54 -32 -97q-33 -56 -85 -61q-54 -5 -100 68q-40 64 -56 156q-12 71 -5 133zM182 679v1q0 7 4.5 12.5t11.5 6.5q21 1 37 -11q20 -16 15 -40q-5 -27 -26 -34
q-19 -6 -36 6q-19 12 -18 32q1 15 12 27zM214 659q-6 -3 -8 -6l-1 -1v-1l2 -2q3 -2 5 -2q1 0 1 1q2 2 3 6q0 4 -2 6v-1z" />
    <glyph glyph-name="Eogonek" unicode="&#x118;" horiz-adv-x="538" 
d="M351 -9q-68 -36 -86 -91q-15 -45 8 -82q22 -34 57 -32q43 3 80 60q4 7 11 8.5t13 -2.5t7.5 -11t-2.5 -13q-46 -73 -107 -77q-26 -2 -49.5 11t-38.5 37q-32 51 -13 112q15 44 56 80q-2 -1 -4 -1q-70 -6 -96 -7q-51 -1 -67 13q-23 19 -36 127q-11 94 -14 222q-3 129 4 224
q9 110 31 132q18 18 57 23q28 3 70 -1q16 -1 41 -4q51 -6 63 -6q7 0 12 -5t5 -12.5t-5 -12.5t-12 -5q-11 0 -31 2q-7 1 -17 2q-2 0 -9.5 1t-9.5 1q-24 3 -40 4q-81 7 -99 -12q-2 -2 -5 -9q-3 -9 -6 -24q-6 -29 -10 -77q-2 -30 -3 -67q39 12 100 11q63 -2 120 -15q7 -1 11 -7
t2.5 -13.5t-8 -11t-13.5 -2.5q-53 12 -113 14q-65 1 -100 -13q-1 -56 0 -116q3 -126 14 -218q6 -48 13 -76q3 -14 7 -22q2 -6 3 -7t3 -2q4 -1 9 -2q12 -1 32 -1q25 1 94 7q10 1 16 1q33 3 54 5q7 0 12.5 -5t5.5 -12q1 -13 -11 -17q-2 -4 -6 -6z" />
    <glyph glyph-name="eogonek" unicode="&#x119;" horiz-adv-x="424" 
d="M91 354q11 3 15 4q39 10 67 19q64 21 90 40q12 10 13 16t-8 15q-44 41 -98 16q-57 -26 -78 -103q0 -3 -1 -7zM243 -22q-31 -16 -52 -53q-20 -36 -21 -69q0 -28 14 -36q19 -9 62 16q6 3 13 1.5t11 -8t2 -13.5t-8 -11q-60 -34 -96 -16q-33 17 -33 68q1 42 25 85
q10 17 22 31q-38 12 -71 65q-40 64 -56 156q-12 71 -5 133q0 6 2 10q2 17 7 33q24 93 97 126q35 16 71 10t65 -33q23 -21 19 -46q-4 -20 -27 -37q-30 -24 -100 -46q-29 -9 -69 -20l-26 -6q-3 -1 -5 -1q-5 -55 5 -117q15 -83 50 -141t68 -54q35 3 59 44q22 36 27 83
q1 7 6.5 12t13 4t12 -6.5t3.5 -13.5q-6 -54 -32 -97q-20 -34 -48 -50q-2 -2 -5 -3z" />
    <glyph glyph-name="Ecaron" unicode="&#x11a;" horiz-adv-x="464" 
d="M336 678q-11 0 -31 2q-7 1 -17 2q-2 0 -9.5 1t-9.5 1q-24 3 -40 4q-81 7 -99 -12q-2 -2 -5 -9q-3 -9 -6 -24q-6 -29 -10 -77q-2 -30 -3 -67q39 12 100 11q63 -2 120 -15q7 -1 11 -7t2.5 -13.5t-8 -11t-13.5 -2.5q-53 12 -113 14q-65 1 -100 -13q-1 -56 0 -116
q3 -126 14 -218q6 -48 13 -76q3 -14 7 -22q2 -6 3 -7t3 -2q4 -1 9 -2q12 -1 32 -1q25 1 94 7q10 1 16 1q33 3 54 5q7 0 12.5 -5t6 -12t-4.5 -12.5t-12 -5.5q-21 -2 -53 -4q-6 -1 -16 -2q-70 -6 -96 -7q-51 -1 -67 13q-23 19 -36 127q-11 94 -14 222q-3 129 4 224
q9 110 31 132q18 18 57 23q28 3 70 -1q16 -1 41 -4q51 -6 63 -6q7 0 12 -5t5 -12.5t-5 -12.5t-12 -5zM145 916q8 -11 29.5 -45t23.5 -37q9 -13 14 -18l2 -1q1 0 2 1q6 5 15 18q3 4 26 37.5t31 44.5q4 6 11 7t13 -3t7.5 -11.5t-3.5 -13.5q-7 -10 -30.5 -44t-26.5 -38
q-11 -15 -19 -23q-13 -11 -26 -11t-26 12q-8 7 -18 23q-3 4 -25 38t-29 45q-4 6 -2.5 13t7.5 11t13 2.5t11 -7.5z" />
    <glyph glyph-name="ecaron" unicode="&#x11b;" horiz-adv-x="424" 
d="M91 354q11 3 15 4q39 10 67 19q64 21 90 40q12 10 13 16t-8 15q-44 41 -98 16q-57 -26 -78 -103q0 -3 -1 -7zM50 327q0 6 2 10q2 17 7 33q24 93 97 126q35 16 71 10t65 -33q23 -21 19 -46q-4 -20 -27 -37q-30 -24 -100 -46q-29 -9 -69 -20l-26 -6q-3 -1 -5 -1
q-5 -55 5 -117q15 -83 50 -141t68 -54q35 3 59 44q22 36 27 83q1 7 6.5 12t13 4t12 -6.5t3.5 -13.5q-6 -54 -32 -97q-33 -56 -85 -61q-54 -5 -100 68q-40 64 -56 156q-12 71 -5 133zM124 722q16 -22 39 -54q19 -28 26 -37q11 -15 18 -20q2 -3 4 -3t5 3q6 5 17 19q6 8 26 37
q22 30 38 52q4 6 11.5 7t13 -3t6.5 -11.5t-3 -13.5q-16 -21 -37 -51q-21 -29 -27 -38q-13 -17 -22 -25q-14 -12 -28 -12t-27 12q-10 8 -23 26q-7 9 -27 38q-22 32 -38 53q-4 6 -3 13t6.5 11.5t13 3.5t11.5 -7z" />
    <glyph glyph-name="Gcircumflex" unicode="&#x11c;" horiz-adv-x="534" 
d="M386 632q0 13 -8 26t-19 17q-146 55 -213 -21q-60 -67 -54 -216q3 -90 29.5 -182.5t66 -158.5t79.5 -83q36 -15 65 18t49 104q18 62 22 128q3 48 -2 72q-4 0 -10 1q-21 2 -47 3q-70 3 -97 -3q-7 -1 -13 2.5t-7.5 10.5t2 13.5t11.5 7.5q31 7 105 4q28 -1 50 -4
q10 -1 16 -2q4 0 6 -1q9 -2 13 -10q12 -26 7.5 -96t-22.5 -135q-22 -79 -57 -118q-46 -52 -104 -27q-75 31 -135 174q-57 137 -62 281q-6 163 63 240q83 94 251 31q22 -8 36 -30t14 -46q0 -7 -5 -12t-12 -5t-12.5 5t-5.5 12zM167 807q19 28 37 57q7 11 14 23q1 2 6 10t5 9
q12 20 18 27q12 15 25 16q9 0 17 -5q5 -3 10 -9q6 -8 17 -28q1 0 6 -8.5t10.5 -19t8.5 -14.5q18 -31 37 -60q4 -6 2.5 -13.5t-8 -11t-13.5 -2t-11 7.5q-19 29 -37 61l-9 15t-11 18.5t-5 9.5q-8 14 -13 20q-4 -6 -14 -22q0 -1 -5 -9t-6 -10q-7 -13 -14 -23q-19 -30 -39 -59
q-4 -6 -11 -7t-13 3t-7 11t3 13z" />
    <glyph glyph-name="gcircumflex" unicode="&#x11d;" horiz-adv-x="440" 
d="M257 165q36 -13 63 -84q27 -74 24 -151q-3 -91 -52 -135q-59 -52 -168 -16q-62 20 -54 86q5 45 47 115q14 25 35 56q8 10 32 44.5t25 36.5q4 6 7 10q-14 0 -26 5q-25 9 -33 34q-10 31 9 68q-53 2 -81.5 40.5t-21.5 95.5q7 55 41 94q39 43 93 42h3q57 -3 93 -44l2 -2
q4 2 6 5q-10 0 -15 8q-4 6 -2.5 13.5t7.5 10.5q20 13 36 3q14 -9 13 -29q-2 -26 -25 -40q13 -28 14 -58q2 -54 -34 -92q-31 -33 -84 -44q-29 -34 -21 -60q3 -9 12 -12q12 -5 33 -1q3 3 6 4q9 3 16 -3zM256 125q-6 -11 -18 -28q-1 -2 -25.5 -36.5t-31.5 -44.5
q-20 -30 -34 -54q-38 -63 -42 -101q-4 -37 30 -49q90 -30 134 9q37 34 40 111q3 70 -22 137q-11 29 -24 47q-4 5 -7 9zM199 471q-40 1 -68 -31q-28 -30 -33 -74q-6 -44 14 -71q22 -29 69 -26q59 4 89 36q26 27 24 67q-1 38 -27 67t-66 32h-2zM117 573q18 29 34 59
q6 11 12 24q1 2 5.5 10t4.5 9q11 21 16 29q11 15 24 17q9 1 17 -4q5 -3 11 -9q7 -7 19 -26q0 -1 5.5 -9t12 -17.5t9.5 -14.5q20 -30 41 -57q4 -6 3 -13.5t-7 -11.5t-13 -3t-11 7q-21 28 -42 58q-3 5 -9.5 15t-12.5 18l-5 8q-9 14 -14 20q-4 -6 -13 -23q0 -1 -4 -9t-6 -11
q-6 -13 -12 -24q-17 -31 -35 -60q-4 -7 -11 -8.5t-13 2t-8 11t2 13.5z" />
    <glyph glyph-name="Gbreve" unicode="&#x11e;" horiz-adv-x="534" 
d="M386 632q0 13 -8 26t-19 17q-146 55 -213 -21q-60 -67 -54 -216q3 -90 29.5 -182.5t66 -158.5t79.5 -83q36 -15 65 18t49 104q18 62 22 128q3 48 -2 72q-4 0 -10 1q-21 2 -47 3q-70 3 -97 -3q-7 -1 -13 2.5t-7.5 10.5t2 13.5t11.5 7.5q31 7 105 4q28 -1 50 -4
q10 -1 16 -2q4 0 6 -1q9 -2 13 -10q12 -26 7.5 -96t-22.5 -135q-22 -79 -57 -118q-46 -52 -104 -27q-75 31 -135 174q-57 137 -62 281q-6 163 63 240q83 94 251 31q22 -8 36 -30t14 -46q0 -7 -5 -12t-12 -5t-12.5 5t-5.5 12zM194 877q12 -31 31.5 -49.5t40.5 -19.5
q23 -2 44 17.5t37 58.5q2 6 9 9t13.5 0.5t9.5 -9.5t0 -13q-19 -49 -49 -74.5t-66 -23.5q-33 1 -60.5 26t-42.5 67q-2 6 1 12.5t10 9t13.5 -0.5t8.5 -10z" />
    <glyph glyph-name="gbreve" unicode="&#x11f;" horiz-adv-x="440" 
d="M257 165q36 -13 63 -84q27 -74 24 -151q-3 -91 -52 -135q-59 -52 -168 -16q-62 20 -54 86q5 45 47 115q14 25 35 56q8 10 32 44.5t25 36.5q4 6 7 10q-14 0 -26 5q-25 9 -33 34q-10 31 9 68q-53 2 -81.5 40.5t-21.5 95.5q7 55 41 94q39 43 93 42h3q57 -3 93 -44l2 -2
q4 2 6 5q-10 0 -15 8q-4 6 -2.5 13.5t7.5 10.5q20 13 36 3q14 -9 13 -29q-2 -26 -25 -40q13 -28 14 -58q2 -54 -34 -92q-31 -33 -84 -44q-29 -34 -21 -60q3 -9 12 -12q12 -5 33 -1q3 3 6 4q9 3 16 -3zM256 125q-6 -11 -18 -28q-1 -2 -25.5 -36.5t-31.5 -44.5
q-20 -30 -34 -54q-38 -63 -42 -101q-4 -37 30 -49q90 -30 134 9q37 34 40 111q3 70 -22 137q-11 29 -24 47q-4 5 -7 9zM199 471q-40 1 -68 -31q-28 -30 -33 -74q-6 -44 14 -71q22 -29 69 -26q59 4 89 36q26 27 24 67q-1 38 -27 67t-66 32h-2zM130 693q11 -32 30.5 -50.5
t41.5 -19.5t43.5 18.5t36.5 57.5q3 7 9.5 10t13.5 0t9.5 -9.5t0.5 -13.5q-20 -48 -50 -73.5t-65 -24.5q-33 2 -60.5 27t-42.5 66q-3 7 0 13.5t10 9t13.5 -0.5t9.5 -10z" />
    <glyph glyph-name="Gdotaccent" unicode="&#x120;" horiz-adv-x="534" 
d="M279 892q5 4 11 4q31 0 41 -24q8 -19 -4 -40t-34 -24q-25 -3 -46 21q-18 21 -7 41q7 13 27 22q6 2 12 0zM386 632q0 13 -8 26t-19 17q-146 55 -213 -21q-60 -67 -54 -216q3 -90 29.5 -182.5t66 -158.5t79.5 -83q36 -15 65 18t49 104q18 62 22 128q3 48 -2 72q-4 0 -10 1
q-21 2 -47 3q-70 3 -97 -3q-7 -1 -13 2.5t-7.5 10.5t2 13.5t11.5 7.5q31 7 105 4q28 -1 50 -4q10 -1 16 -2q4 0 6 -1q9 -2 13 -10q12 -26 7.5 -96t-22.5 -135q-22 -79 -57 -118q-46 -52 -104 -27q-75 31 -135 174q-57 137 -62 281q-6 163 63 240q83 94 251 31q22 -8 36 -30
t14 -46q0 -7 -5 -12t-12 -5t-12.5 5t-5.5 12zM280 859q-5 -2 -8 -4q0 -2 2 -3q8 -10 14 -9q5 0 9 7q3 5 2 9q-1 0 -1 1q-3 1 -8 1q-3 0 -6 1q-2 -2 -4 -3z" />
    <glyph glyph-name="gdotaccent" unicode="&#x121;" horiz-adv-x="440" 
d="M230 666q-3 1 -8 2q-2 -7 -2 -13q2 2 4 3q4 4 6 7v1zM193 690q3 14 17 14q22 0 35 -6q17 -8 20 -23q6 -24 -19 -44q-10 -8 -20 -11q-16 -4 -27 3q-13 8 -14 27q-1 14 6 36zM257 165q36 -13 63 -84q27 -74 24 -151q-3 -91 -52 -135q-59 -52 -168 -16q-62 20 -54 86
q5 45 47 115q14 25 35 56q8 10 32 44.5t25 36.5q4 6 7 10q-14 0 -26 5q-25 9 -33 34q-10 31 9 68q-53 2 -81.5 40.5t-21.5 95.5q7 55 41 94q39 43 93 42h3q57 -3 93 -44l2 -2q4 2 6 5q-10 0 -15 8q-4 6 -2.5 13.5t7.5 10.5q20 13 36 3q14 -9 13 -29q-2 -26 -25 -40
q13 -28 14 -58q2 -54 -34 -92q-31 -33 -84 -44q-29 -34 -21 -60q3 -9 12 -12q12 -5 33 -1q3 3 6 4q9 3 16 -3zM256 125q-6 -11 -18 -28q-1 -2 -25.5 -36.5t-31.5 -44.5q-20 -30 -34 -54q-38 -63 -42 -101q-4 -37 30 -49q90 -30 134 9q37 34 40 111q3 70 -22 137
q-11 29 -24 47q-4 5 -7 9zM199 471q-40 1 -68 -31q-28 -30 -33 -74q-6 -44 14 -71q22 -29 69 -26q59 4 89 36q26 27 24 67q-1 38 -27 67t-66 32h-2z" />
    <glyph glyph-name="Gcommaaccent" unicode="&#x122;" horiz-adv-x="534" 
d="M386 632q0 13 -8 26t-19 17q-146 55 -213 -21q-60 -67 -54 -216q3 -90 29.5 -182.5t66 -158.5t79.5 -83q36 -15 65 18t49 104q18 62 22 128q3 48 -2 72q-4 0 -10 1q-21 2 -47 3q-70 3 -97 -3q-7 -1 -13 2.5t-7.5 10.5t2 13.5t11.5 7.5q31 7 105 4q28 -1 50 -4
q10 -1 16 -2q4 0 6 -1q9 -2 13 -10q12 -26 7.5 -96t-22.5 -135q-22 -79 -57 -118q-46 -52 -104 -27q-75 31 -135 174q-57 137 -62 281q-6 163 63 240q83 94 251 31q22 -8 36 -30t14 -46q0 -7 -5 -12t-12 -5t-12.5 5t-5.5 12zM299 -83q-2 -23 -13 -57q-2 -7 -7 -20
q-9 -28 -13 -41q-5 -22 -6 -38q0 -7 -5.5 -12t-12.5 -4.5t-12 5.5t-5 13q1 20 7 45q4 14 14 43q4 13 6 20q10 30 12 50q1 7 6.5 11.5t13 4t12 -6.5t3.5 -13z" />
    <glyph glyph-name="gcommaaccent" unicode="&#x123;" horiz-adv-x="440" 
d="M257 165q36 -13 63 -84q27 -74 24 -151q-3 -91 -52 -135q-59 -52 -168 -16q-62 20 -54 86q5 45 47 115q14 25 35 56q8 10 32 44.5t25 36.5q4 6 7 10q-14 0 -26 5q-25 9 -33 34q-10 31 9 68q-53 2 -81.5 40.5t-21.5 95.5q7 55 41 94q39 43 93 42h3q57 -3 93 -44l2 -2
q4 2 6 5q-10 0 -15 8q-4 6 -2.5 13.5t7.5 10.5q20 13 36 3q14 -9 13 -29q-2 -26 -25 -40q13 -28 14 -58q2 -54 -34 -92q-31 -33 -84 -44q-29 -34 -21 -60q3 -9 12 -12q12 -5 33 -1q3 3 6 4q9 3 16 -3zM256 125q-6 -11 -18 -28q-1 -2 -25.5 -36.5t-31.5 -44.5
q-20 -30 -34 -54q-38 -63 -42 -101q-4 -37 30 -49q90 -30 134 9q37 34 40 111q3 70 -22 137q-11 29 -24 47q-4 5 -7 9zM260 737q-6 -74 -31 -166q-2 -7 -8.5 -10.5t-13.5 -2t-10.5 8t-1.5 13.5q24 89 30 160q1 7 6.5 11.5t12.5 4t12 -6t4 -12.5zM199 471q-40 1 -68 -31
q-28 -30 -33 -74q-6 -44 14 -71q22 -29 69 -26q59 4 89 36q26 27 24 67q-1 38 -27 67t-66 32h-2z" />
    <glyph glyph-name="Hcircumflex" unicode="&#x124;" horiz-adv-x="582" 
d="M482 693q-7 -8 -12 -38q-6 -31 -8 -80q-5 -84 -1 -225q2 -64 6 -152q0 -8 2 -56.5t3 -57.5q2 -55 2 -76q0 -7 -5 -12t-12.5 -5t-12.5 5t-5 12q0 21 -2 74q-1 10 -3 58t-2 57q-4 88 -6 152q-2 61 -2 111q-30 0 -97 4q-37 2 -57 2q-86 3 -142 -4q2 -51 2 -105
q0 -154 -20 -348q-1 -7 -6.5 -11.5t-12.5 -4t-11.5 6.5t-4.5 13q20 192 20 344q0 192 -29 341q-1 7 3 13t11 7.5t13 -2.5t8 -11q18 -96 25 -208q58 7 145 4q20 0 58 -2q66 -4 95 -4q1 45 3 81q6 113 29 140q4 6 11.5 6.5t13 -4.5t6 -12t-4.5 -13zM169 774q17 29 34 60
q5 10 12 23l5 10l5 10q11 20 16 28q11 16 24 17q9 1 17 -3q5 -4 10 -9q7 -8 20 -27l6 -9q5 -8 11.5 -17.5t9.5 -14.5q20 -29 41 -57q4 -6 3 -13t-7 -11.5t-13 -3.5t-12 7q-20 28 -41 59q-3 5 -9.5 14.5t-12.5 18.5l-5 8q-10 14 -14 20q-4 -7 -13 -23q0 -1 -4.5 -9.5
t-5.5 -10.5q-7 -13 -12 -24q-17 -31 -35 -61q-4 -6 -11 -8t-13.5 2t-8 11t2.5 13z" />
    <glyph glyph-name="hcircumflex" unicode="&#x125;" horiz-adv-x="451" 
d="M318 7q11 117 -21 163q-13 17 -34 28q-14 7 -46 17q-5 2 -7 2q-29 9 -45 17q-25 13 -43 31q-5 6 -9 12q1 -47 1 -87q0 -101 -9 -183q0 -7 -6 -11.5t-13 -3.5t-11.5 6.5t-3.5 12.5q8 80 8 179q0 67 -5 181q0 9 -1 27q-5 118 -6 177q-1 99 5 177q1 7 6.5 12t13 4t12 -6.5
t3.5 -12.5q-6 -77 -5 -174q1 -57 6 -163q2 -3 2 -7q5 -80 38 -116q13 -14 32 -23q14 -7 40 -15q2 -1 8 -3q34 -10 51 -19q29 -15 46 -39q41 -57 28 -187q-1 -7 -6.5 -11.5t-13 -4t-12 6t-3.5 13.5zM111 833q18 29 34 59q6 11 12 23q1 3 5.5 11t4.5 9q11 21 16 29
q11 15 24 17q9 1 17 -4q5 -3 11 -9q7 -7 19 -26q0 -1 5.5 -9t12 -18t9.5 -14q20 -30 41 -58q4 -5 3 -12.5t-7 -11.5t-13 -3t-11 7q-21 28 -42 58q-3 5 -9.5 15t-12.5 18l-5 8q-9 14 -14 20q-4 -6 -13 -23q0 -1 -4.5 -9t-5.5 -11q-6 -13 -12 -24q-17 -31 -35 -60
q-4 -7 -11 -8.5t-13 2t-8 11t2 13.5z" />
    <glyph glyph-name="Hbar" unicode="&#x126;" horiz-adv-x="582" 
d="M425 548q-56 5 -146 1q-8 0 -25 -1q-86 -4 -132 -2q4 -38 5 -77q43 6 96 5q33 0 97 -5h3q69 -5 101 -5q0 46 1 84zM482 693q-7 -8 -12 -38q-6 -31 -8 -80q-5 -84 -1 -225q2 -64 6 -152q0 -8 2 -56.5t3 -57.5q2 -55 2 -76q0 -7 -5 -12t-12.5 -5t-12.5 5t-5 12q0 21 -2 74
q-1 10 -3 58t-2 57q-4 88 -6 152q-1 43 -2 80q-33 0 -104 5h-1h-1q-63 5 -96 5q-52 1 -93 -5q1 -37 1 -77q0 -154 -20 -348q-1 -7 -6.5 -11.5t-12.5 -4t-11.5 6.5t-4.5 13q20 192 20 344q0 192 -29 341q-1 7 3 13t11 7.5t13 -2.5t8 -11q11 -59 18 -124q46 -2 134 2
q17 1 25 1q91 4 149 -1q6 107 29 133q4 6 11.5 6.5t13 -4.5t6 -12t-4.5 -13z" />
    <glyph glyph-name="hbar" unicode="&#x127;" horiz-adv-x="451" 
d="M318 7q11 117 -21 163q-13 17 -34 28q-14 7 -46 17q-5 2 -7 2q-29 9 -45 17q-25 13 -43 31q-5 6 -9 12q1 -47 1 -87q0 -101 -9 -183q0 -7 -6 -11.5t-13 -3.5t-11.5 6.5t-3.5 12.5q8 80 8 179q0 67 -5 181q0 9 -1 27q-5 115 -6 171q-23 0 -37 -1q-7 -1 -12.5 4t-6 12
t4 12.5t11.5 6.5q16 1 40 1q0 81 5 148q1 7 6.5 12t13 4t12 -6.5t3.5 -12.5q-5 -65 -5 -144h16q33 -1 71 -2h31q4 -1 8 -1h1.5h1.5h1q7 0 12 -5.5t4.5 -12.5t-5.5 -12t-13 -5h-1.5h-1.5q-4 0 -8 1h-31q-38 1 -70 2h-16q1 -54 6 -158q2 -3 2 -7q5 -80 38 -116q13 -14 32 -23
q14 -7 40 -15q2 -1 8 -3q34 -10 51 -19q29 -15 46 -39q41 -57 28 -187q-1 -7 -6.5 -11.5t-13 -4t-12 6t-3.5 13.5z" />
    <glyph glyph-name="Itilde" unicode="&#x128;" horiz-adv-x="359" 
d="M72 719h1h4q6 1 11 1q8 0 13 -1t9 -3q6 -4 9 -11q1 -4 1 -7v-1v-3v-10q-1 -18 -2 -39q-3 -66 -5 -133q-4 -120 -6 -221q-3 -171 1 -271q6 3 12.5 0.5t10 -8.5t1 -13t-8.5 -10q-14 -7 -26 -7q-8 1 -14 5q-9 6 -10 17q-4 103 -1 288q2 101 6 221q2 68 5 134q1 20 2 38h-6
q-1 -1 -2 -1h-1q-7 -1 -13 3.5t-7 12t3.5 13t12.5 6.5zM-19 802q26 43 65 45q15 1 34 -4q10 -2 31 -10q40 -14 61 -11q32 3 60 41q4 5 11 6t13 -3t7 -11.5t-3 -12.5q-38 -50 -85 -55q-18 -2 -40 3q-13 3 -35 10q-20 7 -29 9q-13 4 -23 3q-21 -1 -38 -28q-3 -6 -10.5 -8
t-13.5 2t-7.5 11t2.5 13z" />
    <glyph glyph-name="itilde" unicode="&#x129;" horiz-adv-x="331" 
d="M110 482q12 -41 10 -104q-1 -36 -9 -116q-3 -29 -4 -45q-9 -99 -1 -156q2 -13 4 -22l2 4q9 20 16.5 51.5t7.5 48.5q0 7 5.5 12.5t12.5 5.5t12 -5.5t5 -12.5q0 -21 -8.5 -56t-18.5 -59q-7 -15 -14 -22q-5 -6 -11 -9q-9 -4 -18 -2q-13 4 -21 23q-5 14 -9 39q-8 60 1 163
q1 16 4 45q8 80 9 114q2 58 -8 94q-2 7 1.5 13.5t10.5 8t13.5 -2t7.5 -10.5zM-21 608q35 45 75 45q16 0 34 -7q10 -4 28 -13q5 -3 7 -4q26 -13 40 -13q20 2 41 29q5 6 12 7t13 -3.5t6.5 -12t-3.5 -12.5q-31 -40 -67 -43q-15 0 -32 5q-11 4 -26 12q-3 1 -7 4q-31 16 -46 16
q-23 0 -47 -31q-5 -6 -12 -7t-13 3.5t-6.5 12t3.5 12.5z" />
    <glyph glyph-name="Imacron" unicode="&#x12a;" horiz-adv-x="329" 
d="M72 719h1h4q6 1 11 1q8 0 13 -1t9 -3q6 -4 9 -11q1 -4 1 -7v-1v-3v-10q-1 -18 -2 -39q-3 -66 -5 -133q-4 -120 -6 -221q-3 -171 1 -271q6 3 12.5 0.5t10 -8.5t1 -13t-8.5 -10q-14 -7 -26 -7q-8 1 -14 5q-9 6 -10 17q-4 103 -1 288q2 101 6 221q2 68 5 134q1 20 2 38h-6
q-1 -1 -2 -1h-1q-7 -1 -13 3.5t-7 12t3.5 13t12.5 6.5zM-2 846q33 -2 90 1h10q79 3 120 0q7 0 11.5 -5.5t4 -13t-6 -12t-12.5 -4.5q-38 3 -116 0h-10q-58 -3 -92 -1q-7 0 -12 5t-4.5 12.5t5.5 12.5t12 5z" />
    <glyph glyph-name="imacron" unicode="&#x12b;" horiz-adv-x="318" 
d="M110 482q12 -41 10 -104q-1 -36 -9 -116q-3 -29 -4 -45q-9 -99 -1 -156q2 -13 4 -22l2 4q9 20 16.5 51.5t7.5 48.5q0 7 5.5 12.5t12.5 5.5t12 -5.5t5 -12.5q0 -21 -8.5 -56t-18.5 -59q-7 -15 -14 -22q-5 -6 -11 -9q-9 -4 -18 -2q-13 4 -21 23q-5 14 -9 39q-8 60 1 163
q1 16 4 45q8 80 9 114q2 58 -8 94q-2 7 1.5 13.5t10.5 8t13.5 -2t7.5 -10.5zM-13 643h29q49 -1 74 0q67 2 111 12q7 1 13.5 -3t8 -11t-2.5 -13t-11 -8q-47 -10 -118 -12q-26 -1 -75 0h-29q-7 0 -12 5t-5 12t5 12.5t12 5.5z" />
    <glyph glyph-name="Ibreve" unicode="&#x12c;" horiz-adv-x="328" 
d="M72 719h1h4q6 1 11 1q8 0 13 -1t9 -3q6 -4 9 -11q1 -4 1 -7v-1v-3v-10q-1 -18 -2 -39q-3 -66 -5 -133q-4 -120 -6 -221q-3 -171 1 -271q6 3 12.5 0.5t10 -8.5t1 -13t-8.5 -10q-14 -7 -26 -7q-8 1 -14 5q-9 6 -10 17q-4 103 -1 288q2 101 6 221q2 68 5 134q1 20 2 38h-6
q-1 -1 -2 -1h-1q-7 -1 -13 3.5t-7 12t3.5 13t12.5 6.5zM46 881q12 -32 31 -50.5t41 -19.5q23 -1 44 18.5t37 57.5q2 7 9 9.5t13.5 0t9.5 -9t0 -13.5q-19 -49 -49.5 -74.5t-65.5 -23.5q-33 2 -60.5 27t-42.5 66q-2 7 1 13.5t10 9t13.5 -0.5t8.5 -10z" />
    <glyph glyph-name="ibreve" unicode="&#x12d;" horiz-adv-x="307" 
d="M110 482q12 -41 10 -104q-1 -36 -9 -116q-3 -29 -4 -45q-9 -99 -1 -156q2 -13 4 -22l2 4q9 20 16.5 51.5t7.5 48.5q0 7 5.5 12.5t12.5 5.5t12 -5.5t5 -12.5q0 -21 -8.5 -56t-18.5 -59q-7 -15 -14 -22q-5 -6 -11 -9q-9 -4 -18 -2q-13 4 -21 23q-5 14 -9 39q-8 60 1 163
q1 16 4 45q8 80 9 114q2 58 -8 94q-2 7 1.5 13.5t10.5 8t13.5 -2t7.5 -10.5zM26 691q11 -31 30.5 -49.5t40.5 -19.5q23 -2 44 17.5t37 58.5q3 6 9.5 9t13 0.5t9.5 -9.5t0 -13q-19 -49 -49 -74.5t-65 -23.5q-33 1 -60.5 26t-42.5 67q-3 6 0 12.5t10 9t13.5 -0.5t9.5 -10z" />
    <glyph glyph-name="Iogonek" unicode="&#x12e;" horiz-adv-x="261" 
d="M106 -34q-31 -19 -50 -62q-17 -40 -12 -72q2 -13 7 -19q3 -3 9 -3q26 2 75 58q5 5 12 5.5t12.5 -4t6 -12t-4.5 -12.5q-58 -67 -99 -70q-23 -2 -38 15q-12 14 -15 37q-6 42 15 90q20 48 55 73q-5 6 -6 14q-4 103 -1 288q2 101 6 221q2 68 5 134q1 20 2 38h-6q-1 -1 -2 -1
h-1q-7 -1 -13 3.5t-7 12t3.5 13t12.5 6.5h1h4q6 1 11 1q8 0 13 -1t9 -3q6 -4 9 -11q1 -4 1 -7v-1v-3v-10q-1 -18 -2 -39q-3 -66 -5 -133q-4 -120 -6 -221q-3 -171 1 -271q6 3 12.5 0.5t10 -8.5t1 -13t-8.5 -10q-5 -3 -9 -4q3 -12 -8 -19z" />
    <glyph glyph-name="iogonek" unicode="&#x12f;" horiz-adv-x="281" 
d="M91 621q-22 14 -27 33q-7 24 12 36q10 6 20.5 2.5t17.5 -14.5q11 -17 11 -52q0 -7 -5 -12t-12 -5q-13 0 -17 12zM110 482q12 -41 10 -104q-1 -36 -9 -116q-3 -29 -4 -45q-9 -99 -1 -156q2 -17 6 -27q4 5 8 12q11 21 21 52.5t10 48.5q0 7 5 12t12 5t12.5 -5t5.5 -12
q0 -22 -11 -58t-25 -61q-8 -14 -16 -22q-8 -7 -15 -10q-2 -4 -5 -6q-16 -13 -38 -49q-23 -39 -33 -75q-10 -37 -2 -51q3 -5 10 -6q12 -3 33 3q13 4 36 35l2 3q2 3 3 4q3 4 5 6q12 16 21 23q6 5 13 4.5t11.5 -6.5t4 -13t-6.5 -12t-15 -17q-2 -3 -5 -6q-1 -1 -3 -4l-2 -3
q-14 -18 -23 -27q-15 -16 -31 -20q-61 -18 -83 18q-16 27 -2 78q11 36 33 75.5t43 60.5l-4 6q-6 14 -10 40q-8 60 1 163q1 16 4 45q8 80 9 114q2 58 -8 94q-2 7 1.5 13.5t10.5 8t13.5 -2t7.5 -10.5z" />
    <glyph glyph-name="Idotaccent" unicode="&#x130;" horiz-adv-x="235" 
d="M103 854q1 0 1 1q0 -1 -1 -1zM73 873q1 4 3 8q11 16 29 15t28 -18q12 -20 2 -39q-8 -16 -26 -21q-22 -6 -34 9q-13 16 -4 42zM72 719h1h4q6 1 11 1q8 0 13 -1t9 -3q6 -4 9 -11q1 -4 1 -7v-1v-3v-10q-1 -18 -2 -39q-3 -66 -5 -133q-4 -120 -6 -221q-3 -171 1 -271
q6 3 12.5 0.5t10 -8.5t1 -13t-8.5 -10q-14 -7 -26 -7q-8 1 -14 5q-9 6 -10 17q-4 103 -1 288q2 101 6 221q2 68 5 134q1 20 2 38h-6q-1 -1 -2 -1h-1q-7 -1 -13 3.5t-7 12t3.5 13t12.5 6.5z" />
    <glyph glyph-name="dotlessi" unicode="&#x131;" horiz-adv-x="210" 
d="M113 471q3 -65 -3 -193q-3 -78 -3 -117q-1 -83 7 -146q1 -7 -3.5 -13t-11.5 -7t-13 3.5t-6 11.5q-9 66 -8 151q0 40 3 119q6 126 3 189q0 8 4.5 13t12 5.5t13 -4.5t5.5 -12z" />
    <glyph glyph-name="IJ" unicode="&#x132;" horiz-adv-x="572" 
d="M119 708q3 -61 2 -138q0 -46 -2 -138q-1 -16 -1 -25q-3 -125 -2 -198q3 -108 15 -194q1 -7 -3.5 -13t-11.5 -7t-13 3.5t-7 11.5q-12 89 -15 199q-1 73 2 199q0 9 1 25q2 92 2 137q1 76 -2 136q0 7 4.5 12.5t12 6t13 -4.5t5.5 -12zM223 97q15 -44 36 -64t63 -29
q20 -5 33 -6q18 -1 23 4q24 20 35 104q9 69 8 186q0 49 -3 129v4v4.5v4.5q-1 10 -1 13q0 15 -1 24q-1 27 -1 44q-1 46 1 68q0 3 1 10q0 11 1 17q3 39 9 64q6 27 16 46q3 7 10 9t13.5 -1t9 -10t-1.5 -14q-8 -15 -13 -38q-5 -22 -8 -59q-1 -5 -1 -17q-1 -7 -1 -10
q-2 -20 -1 -64q0 -17 1 -44q1 -9 1 -24l1 -13v-13q3 -80 3 -129q1 -120 -8 -192q-13 -97 -47 -126q-16 -13 -47 -12q-17 1 -40 6q-51 12 -79 38.5t-45 78.5q-2 7 1 13.5t10 8.5t13.5 -1t8.5 -10z" />
    <glyph glyph-name="ij" unicode="&#x133;" horiz-adv-x="415" 
d="M100 651q0 2 1 4v7q0 -2 -1 -4v-1q-1 -4 -1 -4.5t1 -1.5zM66 667q-1 6 2 12v1q0 1 1 3l2 4q3 6 9 9q30 16 47 -6q11 -15 8 -39t-17 -35q-12 -8 -25 -4q-11 4 -20 16q-7 10 -8 19q-1 4 0 9q0 1 1 7v4zM284 646q0 2 1 5v7q0 -2 -1 -4v-2q-1 -4 -1 -4.5t1 -1.5zM250 662
q-2 7 2 12v2t1 2l2 4q3 6 9 10q30 16 47 -7q11 -15 8 -39t-17 -34q-12 -9 -25 -4q-11 3 -20 16q-7 9 -8 18q-1 4 0 9q0 2 1 7v4zM114 475q0 -48 3 -149q1 -34 1 -51q5 -156 -4 -249q-1 -7 -6.5 -11.5t-13 -4t-12 6t-3.5 13.5q9 90 4 244q0 17 -1 51q-3 101 -3 150q0 7 5 12
t12 5t12.5 -5t5.5 -12zM308 475q0 -1 0.5 -12t0.5 -14q1 -23 2 -45q6 -151 2 -273q-7 -197 -37 -286q-21 -60 -54 -75q-41 -17 -88 31q-6 5 -6 12.5t5.5 12.5t12.5 5t12 -5q31 -31 50 -24q19 9 35 54q29 85 35 276q4 121 -2 271q0 21 -2 44q0 4 -0.5 14.5t-0.5 11.5
q0 7 5 12.5t12 6t12.5 -4.5t5.5 -12z" />
    <glyph glyph-name="Jcircumflex" unicode="&#x134;" horiz-adv-x="450" 
d="M145 673q30 -10 68 21q2 2 8 7t10.5 9.5t5.5 4.5q6 6 11 8q6 3 12 2q9 0 14 -7q6 -7 6 -20q-1 -8 -3 -21q-3 -22 -16 -76q-4 -19 -1 -69q1 -21 3 -52q1 -12 2 -29q2 -24 3 -31q5 -62 7 -102q6 -107 -3 -174q-12 -90 -53 -126q-21 -18 -54.5 -29.5t-66.5 -11.5
q-72 0 -89 59q-12 37 3 109q3 14 8 35l1 4q1 3 2 7l2 8t1 6q3 13 5 22q5 23 5 35q0 7 5 12t12.5 5t12.5 -5t5 -12q0 -16 -6 -42q-2 -10 -5 -23q0 -2 -1 -6.5t-2 -8t-2 -6.5l-1 -4q-5 -20 -7 -34q-14 -63 -5 -92q10 -34 56 -34q26 0 54 9t44 24q31 27 41 104q9 63 3 167
q-2 40 -7 102l-2 30q-2 18 -3 29q-2 32 -3 53q-3 55 2 79q10 42 14 63q-4 -4 -6 -5q-22 -19 -43 -26q-30 -11 -58 -2q-7 3 -10.5 9.5t-1 13t9 10t13.5 1.5zM140 772q18 29 34 59q6 11 13 23q1 3 5 11t5 9q10 21 16 29q10 15 24 17q8 1 16 -4q6 -3 11 -9q7 -7 19 -26
q1 -1 6.5 -9t12 -18t9.5 -14q20 -30 40 -58q4 -5 3 -12.5t-6.5 -11.5t-13 -3t-11.5 7q-21 28 -41 58q-4 5 -10.5 14.5t-11.5 18t-6 8.5q-9 14 -14 20q-4 -6 -12 -23q-1 -1 -5 -9t-5 -11q-7 -13 -13 -24q-17 -31 -35 -61q-3 -6 -10.5 -7.5t-13.5 2t-7.5 10.5t1.5 14z" />
    <glyph glyph-name="jcircumflex" unicode="&#x135;" horiz-adv-x="311" 
d="M116 470q-19 -44 -18 -134q1 -56 14 -182q0 -4 1 -4q7 -69 9 -105q5 -57 4 -99q-1 -107 -35 -156q-18 -28 -45 -36q-26 -7 -47 6q-22 14 -26 41t14 56q4 6 11 7.5t13 -2t8 -10.5t-2 -14q-11 -18 -9 -32q1 -11 9.5 -16t18.5 -2q15 4 27 21q27 41 28 137q1 62 -13 200
q0 2 -1 4q-13 128 -14 185q-1 98 21 149q2 7 9 9.5t13.5 -0.5t9.5 -9.5t0 -13.5zM2 575q17 29 34 60q5 10 12 23q1 2 5 10.5t5 9.5q10 20 16 28q11 16 24 17q9 1 17 -3q5 -3 10 -9q7 -8 20 -27l5 -8q6 -9 12.5 -18.5t9.5 -14.5q20 -29 40 -57q5 -6 4 -13t-7 -11.5t-13 -3.5
t-12 7q-21 29 -41 59q-3 5 -9.5 14.5t-11.5 17.5l-6 9q-10 14 -14 20q-4 -7 -13 -23q0 -1 -4.5 -9.5t-5.5 -10.5q-7 -13 -13 -24q-16 -31 -34 -61q-4 -6 -11 -7.5t-13.5 2t-8 10.5t2.5 13z" />
    <glyph glyph-name="Kcommaaccent" unicode="&#x136;" horiz-adv-x="522" 
d="M212 580q26 -52 45 -110q12 -41 27 -107q1 -5 4 -15q11 -52 18 -78q11 -43 24 -79q33 -91 94 -176q4 -6 2.5 -13t-7 -11t-13 -3t-11.5 7q-63 89 -98 184q-14 37 -25 82q-7 27 -19 79q-2 10 -3 16q-14 64 -27 104q-15 49 -37 93q-44 -49 -57 -79q-1 -3 -4 -6v-34
q0 -53 -2 -136q-3 -92 -3 -113v-11q0 -1 0.5 -7.5t0.5 -7.5q1 -35 0 -58q-1 -44 -11 -69q-6 -18 -17 -27q-15 -12 -34 -10q-7 1 -11.5 6.5t-3.5 13t6.5 12t12.5 3.5q4 -1 7 2q4 3 8 12q7 20 9 58q0 22 -1 56v6q-1 7 -1 9v12q0 22 3 114q2 83 2 135q1 203 -25 258
q-3 7 -1 13.5t8.5 10t13.5 1t10 -9.5q23 -48 28 -175q46 62 114 120q49 42 82 55q22 9 38 4q21 -7 23 -32q1 -8 -3.5 -13.5t-12 -6t-13 4t-6.5 11.5v3q-4 0 -13 -4q-28 -11 -73 -49q-24 -21 -48 -45zM238 -26q17 -27 11 -57q-3 -20 -19 -47q-3 -4 -8 -14q-22 -36 -24 -55
q-1 -7 -6.5 -11.5t-13 -3.5t-12 6.5t-3.5 12.5q2 18 11 37q5 12 18 32q5 9 8 13q13 24 15 39t-7 30q-3 6 -1.5 13t8 11t13.5 2t10 -8z" />
    <glyph glyph-name="kcommaaccent" unicode="&#x137;" horiz-adv-x="452" 
d="M299 484q12 -57 -27 -93q-25 -24 -81 -42q-8 -3 -23 -7q39 -30 66 -82q16 -31 38 -95q1 -1 1 -2.5t1 -2.5q19 -54 31 -80q20 -41 46 -67q5 -5 5 -12.5t-5 -12.5t-12 -5t-13 5q-30 30 -52 77q-14 28 -33 83l-1.5 3t-0.5 2q-22 62 -36 91q-23 44 -55 69l-1 1q-1 0 -4 1
q-5 2 -14 5q-1 1 -2.5 1.5t-3.5 0.5q-5 -188 -19 -313q-1 -7 -6.5 -11.5t-12.5 -4t-11.5 6.5t-4.5 13q18 157 21 375q3 271 -27 355q-3 7 0.5 13.5t10 9t13 -0.5t9.5 -10q32 -90 29 -367q0 -10 -1 -20q2 0 4 1l17 4q3 0 5 1h2q20 6 28 8q49 16 68 34q25 23 17 61q-1 7 3 13
t11 7.5t13 -2.5t7 -11zM202 -40q11 -14 15 -30q6 -23 -4 -50q-5 -14 -21 -43q-20 -35 -23 -52q-1 -7 -7 -11.5t-13 -3t-11.5 7t-3.5 13.5q3 15 11 33q5 10 16 30q15 26 19 38q6 17 3 30q-2 8 -8 17q-5 5 -4 12.5t6.5 12t13 3.5t11.5 -7z" />
    <glyph glyph-name="kgreenlandic" unicode="&#x138;" horiz-adv-x="610" 
d="M455 524q-1 0 -2 1q-9 1 -29 -3q-41 -9 -105 -41q-55 -26 -105 -58q33 -36 57 -76q19 -31 40 -82q2 -4 5 -12q16 -38 25 -58q16 -32 34 -58q46 -68 132 -131q6 -5 7 -12t-3 -13t-11.5 -7t-13.5 4q-90 67 -140 139q-20 29 -36 63q-10 20 -27 60q-3 8 -4 12q-21 48 -38 77
q-23 39 -56 74q-37 -26 -50 -42v-27q-1 -42 -2 -109q-3 -73 -3 -90q0 -2 1 -8v-6v-6q1 -28 1 -47q-2 -35 -9 -56q-6 -15 -16 -23q-12 -10 -29 -8q-7 0 -11.5 6t-3.5 13t6.5 11.5t12.5 3.5q2 0 3 1q2 2 5 9q6 15 7 45q0 17 -1 44v6v6q-1 6 -1 9q0 18 3 91q1 67 2 109
q0 160 -20 204q-4 6 -1.5 13t9 10t13.5 0.5t10 -8.5q19 -40 23 -146q63 53 170 105q68 33 112 43q27 6 43 3q27 -5 31 -28q1 -7 -3 -13t-12 -7q-6 -1 -12 2.5t-8 10.5z" />
    <glyph glyph-name="Lacute" unicode="&#x139;" horiz-adv-x="428" 
d="M98 715q36 -50 36 -154q0 -69 -18 -198q-2 -12 -5 -33q-16 -114 -20 -161q-6 -80 5 -120l1 -1q2 -3 7 -6q12 -7 31 -13q45 -16 89 -17q48 -1 65 15q8 7 8 19q1 16 -12 40q-3 7 -0.5 14t9 10t13.5 0.5t10 -8.5q33 -66 -4 -101q-28 -26 -90 -24q-50 1 -99 18q-23 8 -38 17
q-20 12 -24 26q-13 47 -6 133q4 49 20 164q3 21 5 33q18 126 18 193q0 93 -30 134q-4 6 -3 13t7 11.5t13.5 3t11.5 -7.5zM210 890q-2 -4 -8 -12.5l-12 -17t-7 -10.5q-17 -25 -27 -43q-10 -19 -15 -34q-2 -7 -8.5 -10t-13.5 -0.5t-10 9t-1 12.5q6 18 17 39q11 20 29 47
q1 1 7 9.5t12 17.5l8 12q4 6 11 7.5t13 -2.5t7.5 -11t-2.5 -13z" />
    <glyph glyph-name="lacute" unicode="&#x13a;" horiz-adv-x="282" 
d="M181 911q-15 -15 -36 -51l-1 -2q-13 -23 -21 -35q-5 -5 -12 -6.5t-13 3t-7 11.5t3 13q7 10 20 32l1 2q11 19 18 29q11 17 23 29q5 5 12.5 5t12.5 -5t5 -12.5t-5 -12.5zM108 744q24 -74 15 -266q-3 -54 -9 -129q-8 -97 -9 -117q0 -2 -0.5 -6t-1 -8.5t-1 -9.5t-1 -9.5
t-0.5 -6.5v-3q-4 -39 -4 -67q-2 -75 16 -97q5 6 14 5q7 0 11.5 -6t3.5 -13q-1 -16 -13 -22.5t-27 0.5q-26 14 -35 57q-6 30 -5 77q0 29 4 69v4q1 4 1.5 9.5t1 11.5t1 10.5t0.5 6.5l9 118q6 74 9 127q9 187 -13 254q-3 6 0.5 12.5t10.5 9t13.5 -0.5t8.5 -10z" />
    <glyph glyph-name="Lcommaaccent" unicode="&#x13b;" horiz-adv-x="428" 
d="M98 715q36 -50 36 -154q0 -69 -18 -198q-2 -12 -5 -33q-16 -114 -20 -161q-6 -80 5 -120l1 -1q2 -3 7 -6q12 -7 31 -13q45 -16 89 -17q48 -1 65 15q8 7 8 19q1 16 -12 40q-3 7 -0.5 14t9 10t13.5 0.5t10 -8.5q33 -66 -4 -101q-28 -26 -90 -24q-50 1 -99 18q-23 8 -38 17
q-20 12 -24 26q-13 47 -6 133q4 49 20 164q3 21 5 33q18 126 18 193q0 93 -30 134q-4 6 -3 13t7 11.5t13.5 3t11.5 -7.5zM209 -89q-7 -25 -21 -73l-1 -1q-12 -39 -17 -59q-2 -7 -8 -10.5t-13 -1.5t-11 8t-2 13q6 21 18 60v2q15 46 21 70q2 7 8 11t13 2t11 -8t2 -13z" />
    <glyph glyph-name="lcommaaccent" unicode="&#x13c;" horiz-adv-x="238" 
d="M105 757q25 -74 17 -272q-3 -60 -9 -142q0 -7 -4 -54.5t-4 -56.5q0 -2 -0.5 -6t-1 -8.5t-1 -9.5t-1 -9.5t-0.5 -6.5v-3q-4 -39 -4 -67q-2 -75 16 -97q5 6 14 5q7 0 11.5 -6t3.5 -13q-1 -16 -13 -22.5t-27 0.5q-26 14 -35 57q-6 30 -5 77q0 29 4 69v4q1 4 1.5 9.5t1 11.5
t1 10.5t0.5 6.5q1 9 4.5 56.5t3.5 55.5q6 81 9 140q7 192 -15 260q-2 7 1 13.5t10 8.5t13.5 -1t8.5 -10zM126 -84q-3 -7 -12 -36q-11 -33 -18 -53q-16 -43 -32 -69q-4 -6 -11 -7.5t-13 2.5t-8 11t2 13q14 22 29 62q7 19 18 52q9 30 13 38q2 7 9 10t13.5 0t9.5 -9.5t0 -13.5z
" />
    <glyph glyph-name="Lcaron" unicode="&#x13d;" horiz-adv-x="428" 
d="M98 715q36 -50 36 -154q0 -69 -18 -198q-2 -12 -5 -33q-16 -114 -20 -161q-6 -80 5 -120l1 -1q2 -3 7 -6q12 -7 31 -13q45 -16 89 -17q48 -1 65 15q8 7 8 19q1 16 -12 40q-3 7 -0.5 14t9 10t13.5 0.5t10 -8.5q33 -66 -4 -101q-28 -26 -90 -24q-50 1 -99 18q-23 8 -38 17
q-20 12 -24 26q-13 47 -6 133q4 49 20 164q3 21 5 33q18 126 18 193q0 93 -30 134q-4 6 -3 13t7 11.5t13.5 3t11.5 -7.5zM279 704q-6 -31 -29 -89q-22 -58 -27 -87q-1 -7 -7 -11t-13 -3t-11.5 7t-3.5 13q4 22 13 48q5 16 17 45v1q21 55 26 82q2 7 8 11.5t13 3t11 -7.5t3 -13
z" />
    <glyph glyph-name="lcaron" unicode="&#x13e;" horiz-adv-x="342" 
d="M105 757q25 -74 17 -272q-3 -60 -9 -142q0 -7 -4 -54.5t-4 -56.5q0 -2 -0.5 -6t-1 -8.5t-1 -9.5t-1 -9.5t-0.5 -6.5v-3q-4 -39 -4 -67q-2 -75 16 -97q5 6 14 5q7 0 11.5 -6t3.5 -13q-1 -16 -13 -22.5t-27 0.5q-26 14 -35 57q-6 30 -5 77q0 29 4 69v4q1 4 1.5 9.5t1 11.5
t1 10.5t0.5 6.5q1 9 4.5 56.5t3.5 55.5q6 81 9 140q7 192 -15 260q-2 7 1 13.5t10 8.5t13.5 -1t8.5 -10zM246 712q-34 -96 -39 -163q-1 -7 -6.5 -12t-12.5 -4.5t-12 6.5t-4 13q5 72 41 171q2 7 8.5 10.5t13.5 1t10 -9t1 -13.5z" />
    <glyph glyph-name="Ldot" unicode="&#x13f;" horiz-adv-x="428" 
d="M253 304q2 -1 4 -1q7 -1 10 2q1 1 1 3q1 5 -1 10q-1 1 -2 1q-8 -8 -11 -13q-1 -1 -1 -2zM235 339q2 8 10 12q12 6 27 2q19 -4 26 -19q13 -33 -5 -53q-16 -17 -41 -13q-28 4 -33 28q-5 21 16 43zM98 715q36 -50 36 -154q0 -69 -18 -198q-2 -12 -5 -33q-16 -114 -20 -161
q-6 -80 5 -120l1 -1q2 -3 7 -6q12 -7 31 -13q45 -16 89 -17q48 -1 65 15q8 7 8 19q1 16 -12 40q-3 7 -0.5 14t9 10t13.5 0.5t10 -8.5q33 -66 -4 -101q-28 -26 -90 -24q-50 1 -99 18q-23 8 -38 17q-20 12 -24 26q-13 47 -6 133q4 49 20 164q3 21 5 33q18 126 18 193
q0 93 -30 134q-4 6 -3 13t7 11.5t13.5 3t11.5 -7.5z" />
    <glyph glyph-name="ldot" unicode="&#x140;" horiz-adv-x="351" 
d="M206 295q1 -1 4 -2q7 -1 10 3q1 1 1 3q0 5 -2 10l-1 1q-9 -8 -12 -13v-2zM188 329q1 9 9 13q12 6 28 2q19 -4 25 -20q14 -32 -5 -52q-15 -17 -40 -13q-29 4 -34 28q-4 20 17 42zM105 757q25 -74 17 -272q-3 -60 -9 -142q0 -7 -4 -54.5t-4 -56.5q0 -2 -0.5 -6t-1 -8.5
t-1 -9.5t-1 -9.5t-0.5 -6.5v-3q-4 -39 -4 -67q-2 -75 16 -97q5 6 14 5q7 0 11.5 -6t3.5 -13q-1 -16 -13 -22.5t-27 0.5q-26 14 -35 57q-6 30 -5 77q0 29 4 69v4q1 4 1.5 9.5t1 11.5t1 10.5t0.5 6.5q1 9 4.5 56.5t3.5 55.5q6 81 9 140q7 192 -15 260q-2 7 1 13.5t10 8.5
t13.5 -1t8.5 -10z" />
    <glyph glyph-name="Lslash" unicode="&#x141;" horiz-adv-x="428" 
d="M98 715q36 -50 36 -154q0 -27 -2 -56l73 61q6 5 13 4t11.5 -6.5t4 -12.5t-6.5 -12q-67 -55 -82 -68q-7 -7 -15 -14l-3 -3q-4 -37 -11 -91q-2 -12 -5 -33q-16 -114 -20 -161q-6 -80 5 -120l1 -1q2 -3 7 -6q12 -7 31 -13q45 -16 89 -17q48 -1 65 15q8 7 8 19q1 16 -12 40
q-3 7 -0.5 14t9 10t13.5 0.5t10 -8.5q33 -66 -4 -101q-28 -26 -90 -24q-50 1 -99 18q-23 8 -38 17q-20 12 -24 26q-13 47 -6 133q4 49 20 164q3 21 5 33q4 26 6 47q-16 -17 -35 -39q-5 -5 -12 -5.5t-12.5 4t-6 12t4.5 12.5q38 44 68 72q5 50 5 90q0 93 -30 134q-4 6 -3 13
t7 11.5t13.5 3t11.5 -7.5z" />
    <glyph glyph-name="lslash" unicode="&#x142;" horiz-adv-x="300" 
d="M105 757q21 -64 18 -219q18 16 31 27q10 8 17 12q4 2 7.5 3.5t7.5 1.5q9 0 14 -6t4.5 -13t-6.5 -12q-2 -2 -7 -3q-1 0 -2 -1q-4 -3 -13 -10q-18 -14 -43 -37q-6 -5 -11 -10v-5q-3 -60 -9 -142q0 -7 -4 -54.5t-4 -56.5q0 -2 -0.5 -6t-1 -8.5t-1 -9.5t-1 -9.5t-0.5 -6.5v-3
q-4 -39 -4 -67q-2 -75 16 -97q5 6 14 5q7 0 11.5 -6t3.5 -13q-1 -16 -13 -22.5t-27 0.5q-26 14 -35 57q-6 30 -5 77q0 29 4 69v4q1 4 1.5 9.5t1 11.5t1 10.5t0.5 6.5q1 9 4.5 56.5t3.5 55.5q5 61 7 108q-22 -23 -30 -35q-4 -5 -11.5 -6.5t-13.5 2.5t-7 11.5t3 12.5
q15 22 61 66q6 177 -15 241q-2 7 1 13.5t10 8.5t13.5 -1t8.5 -10z" />
    <glyph glyph-name="Nacute" unicode="&#x143;" horiz-adv-x="548" 
d="M104 721q35 -10 82 -51q17 -14 41 -39q33 -32 43 -42q39 -37 69 -60q28 -22 55 -37q3 28 11 83q7 45 10 65q4 35 3 62q-1 7 4 12t12.5 5.5t12.5 -4.5t6 -12q1 -29 -4 -67q-2 -21 -9 -67q-11 -67 -12 -102q-3 -51 1 -110q2 -25 5 -59q0 -3 1 -11t1.5 -16.5t1.5 -16
t2 -12.5v-6q12 -125 13 -227q0 -7 -5 -12t-12.5 -5t-12.5 5t-5 12q-1 100 -13 223q0 1 -0.5 4.5t-1 9.5t-1 13t-1.5 14t-1.5 13t-0.5 9q-3 35 -5 60q-3 53 -2 99q-36 17 -75 47q-31 24 -71 63l-43 42q-24 24 -40 37q-25 23 -45 34q12 -114 16 -294q5 -261 -16 -378
q-2 -7 -7.5 -11t-13 -3t-11.5 7t-3 13q21 114 16 371q-5 218 -18 317q-1 6 2 11q6 15 21 11zM363 893q-4 -16 -14 -36q-6 -11 -20 -34q-5 -9 -8 -14q-24 -41 -24 -63q0 -7 -5 -12t-12.5 -5t-12.5 5t-5 12q0 19 9 42q7 16 20 38q3 5 8 15q26 43 31 60q1 7 7.5 11t13.5 2
t10.5 -8t1.5 -13z" />
    <glyph glyph-name="nacute" unicode="&#x144;" horiz-adv-x="464" 
d="M81 11q0 25 3 100q2 86 2 136q0 152 -22 228q-2 7 1.5 13.5t10.5 8.5t13 -1.5t8 -10.5q13 -43 19 -106q7 27 17 48q20 45 50 66q37 26 85 12q72 -21 87 -108q5 -32 3 -79q-1 -27 -6 -86q-1 -12 -2 -19q-6 -72 -5 -112q3 -55 21 -88q4 -6 2 -13t-8.5 -10.5t-13.5 -1.5
t-10 8q-22 40 -25 104q-3 41 4 116q1 7 2 19q5 58 6 84q2 44 -3 72q-11 65 -62 80q-32 9 -55 -7q-22 -15 -38 -52q-25 -55 -33 -144q-3 -36 -6 -78q-1 -13 -2 -34q-4 -94 -8 -147q0 -2 -1 -5q-2 -4 -5 -6.5t-6 -3.5t-6 -1t-6 1q-4 2 -6.5 4.5t-3.5 6.5q-1 3 -1 6zM294 704
q-6 -11 -16 -25q-4 -5 -10 -13q0 -1 -4 -6v-1q-3 -4 -5 -6q-16 -22 -24 -35q-14 -23 -18 -40q-2 -7 -8.5 -10.5t-13.5 -2t-10.5 8t-1.5 13.5q5 22 22 49q9 15 26 37q2 3 4 7l1 1q3 4 4 5q6 8 9 13q10 14 15 23q4 6 11 7.5t13.5 -2t8 -10.5t-2.5 -13z" />
    <glyph glyph-name="Ncommaaccent" unicode="&#x145;" horiz-adv-x="548" 
d="M104 721q35 -10 82 -51q17 -14 41 -39q33 -32 43 -42q39 -37 69 -60q28 -22 55 -37q3 28 11 83q7 45 10 65q4 35 3 62q-1 7 4 12t12.5 5.5t12.5 -4.5t6 -12q1 -29 -4 -67q-2 -21 -9 -67q-11 -67 -12 -102q-3 -51 1 -110q2 -25 5 -59q0 -3 1 -11t1.5 -16.5t1.5 -16
t2 -12.5v-6q12 -125 13 -227q0 -7 -5 -12t-12.5 -5t-12.5 5t-5 12q-1 100 -13 223q0 1 -0.5 4.5t-1 9.5t-1 13t-1.5 14t-1.5 13t-0.5 9q-3 35 -5 60q-3 53 -2 99q-36 17 -75 47q-31 24 -71 63l-43 42q-24 24 -40 37q-25 23 -45 34q12 -114 16 -294q5 -261 -16 -378
q-2 -7 -7.5 -11t-13 -3t-11.5 7t-3 13q21 114 16 371q-5 218 -18 317q-1 6 2 11q6 15 21 11zM272 -26q20 -28 13 -64q-4 -23 -23 -58l-6 -12q-13 -21 -17 -32q-8 -16 -10 -28q-1 -7 -7 -11t-13 -3t-11 7t-3 13q3 17 12 37q5 11 18 34q4 8 6 11q16 31 20 48q4 21 -8 37
q-4 6 -3 13t7 11.5t13 3.5t12 -7z" />
    <glyph glyph-name="ncommaaccent" unicode="&#x146;" horiz-adv-x="464" 
d="M81 11q0 25 3 100q2 86 2 136q0 152 -22 228q-2 7 1.5 13.5t10.5 8.5t13 -1.5t8 -10.5q13 -43 19 -106q7 27 17 48q20 45 50 66q37 26 85 12q72 -21 87 -108q5 -32 3 -79q-1 -27 -6 -86q-1 -12 -2 -19q-6 -72 -5 -112q3 -55 21 -88q4 -6 2 -13t-8.5 -10.5t-13.5 -1.5
t-10 8q-22 40 -25 104q-3 41 4 116q1 7 2 19q5 58 6 84q2 44 -3 72q-11 65 -62 80q-32 9 -55 -7q-22 -15 -38 -52q-25 -55 -33 -144q-3 -36 -6 -78q-1 -13 -2 -34q-4 -94 -8 -147q0 -2 -1 -5q-2 -4 -5 -6.5t-6 -3.5t-6 -1t-6 1q-4 2 -6.5 4.5t-3.5 6.5q-1 3 -1 6zM221 -46
q7 -23 4 -46q-2 -17 -10 -39q-2 -4 -4 -9q-1 -2 -2 -5q0 -1 -0.5 -2.5t-1.5 -2.5q-11 -28 -14 -45q-1 -7 -7 -11.5t-13 -3t-11 7.5t-3 13q3 20 16 52q0 1 1 3q0 1 1 2q1 2 1 4q2 5 4 9q13 36 5 64q-2 7 1.5 13t10.5 8t13.5 -1.5t8.5 -10.5z" />
    <glyph glyph-name="Ncaron" unicode="&#x147;" horiz-adv-x="548" 
d="M104 721q35 -10 82 -51q17 -14 41 -39q33 -32 43 -42q39 -37 69 -60q28 -22 55 -37q3 28 11 83q7 45 10 65q4 35 3 62q-1 7 4 12t12.5 5.5t12.5 -4.5t6 -12q1 -29 -4 -67q-2 -21 -9 -67q-11 -67 -12 -102q-3 -51 1 -110q2 -25 5 -59q0 -3 1 -11t1.5 -16.5t1.5 -16
t2 -12.5v-6q12 -125 13 -227q0 -7 -5 -12t-12.5 -5t-12.5 5t-5 12q-1 100 -13 223q0 1 -0.5 4.5t-1 9.5t-1 13t-1.5 14t-1.5 13t-0.5 9q-3 35 -5 60q-3 53 -2 99q-36 17 -75 47q-31 24 -71 63l-43 42q-24 24 -40 37q-25 23 -45 34q12 -114 16 -294q5 -261 -16 -378
q-2 -7 -7.5 -11t-13 -3t-11.5 7t-3 13q21 114 16 371q-5 218 -18 317q-1 6 2 11q6 15 21 11zM197 910q31 -49 61 -110q6 -13 9 -18q2 5 10 19q34 59 68 109q4 5 11.5 6.5t13 -2.5t7 -11.5t-2.5 -13.5q-34 -47 -66 -105q-13 -22 -17 -28.5t-8 -10.5q-8 -6 -17 -7q-9 0 -16 7
q-4 4 -8.5 10.5t-15.5 28.5q-29 60 -59 108q-4 6 -2 13t8 11t13 2.5t11 -8.5z" />
    <glyph glyph-name="ncaron" unicode="&#x148;" horiz-adv-x="464" 
d="M81 11q0 25 3 100q2 86 2 136q0 152 -22 228q-2 7 1.5 13.5t10.5 8.5t13 -1.5t8 -10.5q13 -43 19 -106q7 27 17 48q20 45 50 66q37 26 85 12q72 -21 87 -108q5 -32 3 -79q-1 -27 -6 -86q-1 -12 -2 -19q-6 -72 -5 -112q3 -55 21 -88q4 -6 2 -13t-8.5 -10.5t-13.5 -1.5
t-10 8q-22 40 -25 104q-3 41 4 116q1 7 2 19q5 58 6 84q2 44 -3 72q-11 65 -62 80q-32 9 -55 -7q-22 -15 -38 -52q-25 -55 -33 -144q-3 -36 -6 -78q-1 -13 -2 -34q-4 -94 -8 -147q0 -2 -1 -5q-2 -4 -5 -6.5t-6 -3.5t-6 -1t-6 1q-4 2 -6.5 4.5t-3.5 6.5q-1 3 -1 6zM151 715
q19 -24 37 -49q6 -8 14 -19l6 -8q3 -4 5 -7q9 -13 14 -18q4 5 13 18q17 26 24 35q18 26 37 50q4 5 11.5 6t13 -3.5t6.5 -11.5t-4 -13q-18 -23 -35 -48q-1 -2 -2.5 -4t-3.5 -4.5t-3.5 -5t-3.5 -5t-3.5 -5t-3 -4.5t-2.5 -3.5t-1 -2.5l-1 -1q-12 -16 -18 -23q-12 -12 -24.5 -12
t-24.5 12q-6 7 -18 23q-2 3 -5 7q-4 6 -6 8q-7 11 -13 19q-18 24 -36 47q-5 6 -4 13t6.5 11.5t13 4t11.5 -6.5z" />
    <glyph glyph-name="napostrophe" unicode="&#x149;" horiz-adv-x="464" 
d="M81 11q0 25 3 100q2 86 2 136q0 152 -22 228q-2 7 1.5 13.5t10.5 8.5t13 -1.5t8 -10.5q13 -43 19 -106q7 27 17 48q20 45 50 66q37 26 85 12q72 -21 87 -108q5 -32 3 -79q-1 -27 -6 -86q-1 -12 -2 -19q-6 -72 -5 -112q3 -55 21 -88q4 -6 2 -13t-8.5 -10.5t-13.5 -1.5
t-10 8q-22 40 -25 104q-3 41 4 116q1 7 2 19q5 58 6 84q2 44 -3 72q-11 65 -62 80q-32 9 -55 -7q-22 -15 -38 -52q-25 -55 -33 -144q-3 -36 -6 -78q-1 -13 -2 -34q-4 -94 -8 -147q0 -2 -1 -5q-2 -4 -5 -6.5t-6 -3.5t-6 -1t-6 1q-4 2 -6.5 4.5t-3.5 6.5q-1 3 -1 6zM95 704
q-4 -14 -11 -42q-2 -10 -3 -14q-16 -62 -26 -98q-2 -7 -8.5 -10.5t-13.5 -1.5t-10.5 8.5t-1.5 13.5q11 35 26 96q1 4 3 15q7 27 11 42q2 7 8 10.5t13 2t10.5 -8t2.5 -13.5z" />
    <glyph glyph-name="Eng" unicode="&#x14a;" horiz-adv-x="549" 
d="M453 2q-1 -44 -23.5 -73t-59.5 -36q-33 -6 -65 7t-48 40q-4 6 -2.5 13t8 11t13.5 2t10 -8q11 -18 33 -26.5t45 -4.5q25 5 39.5 24.5t14.5 50.5v3v4q-1 100 -13 223q0 1 -0.5 4.5t-1 9.5t-1 13t-1.5 14t-1.5 13t-0.5 9q-3 35 -5 60q-3 53 -2 99q-36 17 -75 47
q-31 24 -71 63l-43 42q-24 24 -40 37q-25 23 -45 34q12 -114 16 -294q5 -261 -16 -378q-2 -7 -7.5 -11t-13 -3t-11.5 7t-3 13q21 114 16 371q-5 218 -18 317q-1 6 2 11q6 15 21 11q35 -10 82 -51q17 -14 41 -39q33 -32 43 -42q39 -37 69 -60q28 -22 55 -37q3 28 11 83
q7 45 10 65q4 35 3 62q-1 7 4 12t12.5 5.5t12.5 -4.5t6 -12q1 -29 -4 -67q-2 -21 -9 -67q-11 -67 -12 -102q-3 -51 1 -110q2 -25 5 -59q0 -3 1 -11t1.5 -16.5t1.5 -16t2 -12.5v-6q12 -125 13 -227v-3v-4z" />
    <glyph glyph-name="eng" unicode="&#x14b;" horiz-adv-x="465" 
d="M370 0q-1 -44 -23.5 -73t-59.5 -36q-34 -6 -65.5 7t-48.5 40q-4 6 -2 13t8 11t13 2t11 -8q11 -17 32.5 -26t44.5 -4q53 10 55 72q-21 40 -24 102q-3 41 4 116q1 7 2 19q5 58 6 84q2 44 -3 72q-11 65 -62 80q-32 9 -55 -7q-22 -15 -38 -52q-25 -55 -33 -144q-3 -36 -6 -78
q-1 -13 -2 -34q-4 -94 -8 -147q0 -2 -1 -5q-2 -4 -5 -6.5t-6 -3.5t-6 -1t-6 1q-4 2 -6.5 4.5t-3.5 6.5q-1 3 -1 6q0 25 3 100q2 86 2 136q0 152 -22 228q-2 7 1.5 13.5t10.5 8.5t13 -1.5t8 -10.5q13 -43 19 -106q7 27 17 48q20 45 50 66q37 26 85 12q72 -21 87 -108
q5 -32 3 -79q-1 -27 -6 -86q-1 -12 -2 -19q-6 -72 -5 -112q3 -55 21 -88q2 -4 3 -7t1 -6z" />
    <glyph glyph-name="Omacron" unicode="&#x14c;" horiz-adv-x="585" 
d="M95 534q-22 -137 11 -250q13 -47 37 -96q18 -35 48 -83q63 -101 117 -89q29 6 56 48q32 51 58 147q16 60 24 121q12 86 7 155q-6 86 -39 140q-38 62 -110 81q-37 10 -69 0q-27 -8 -60 -34q-28 -22 -50 -59.5t-29 -77.5q-1 -2 -1 -3zM62 547q9 45 34 87t57 68q39 29 72 39
q41 13 88 1q86 -22 131 -97q37 -61 44 -155q5 -74 -7 -163q-9 -63 -25 -125q-54 -202 -141 -221q-41 -9 -84 23q-35 27 -70 82q-30 50 -49 87q-26 51 -40 101q-35 123 -11 269q0 2 1 4zM162 847q144 5 217 5q7 0 12.5 -5.5t5.5 -12.5t-5.5 -12t-12.5 -5q-72 0 -216 -5
q-8 0 -13 5t-5.5 12.5t4.5 12.5t13 5z" />
    <glyph glyph-name="omacron" unicode="&#x14d;" 
d="M186 -21q-63 46 -103 136q-38 86 -41 178q-3 97 36 156q46 70 134 64q82 -6 122 -65q32 -49 31 -129q0 -65 -22 -140q-19 -65 -45 -110l-1 -1l-1 -2l-2 -4q-3 -6 -6 -11q-9 -14 -17 -26q-13 -20 -25 -32q-14 -14 -26 -19q-19 -7 -34 5zM207 7q5 2 14 11q9 10 21 27
q8 11 16 24l6 10l2 4l1 1l1 2q23 42 41 103q21 70 21 131q1 69 -26 109q-29 44 -95 49q-67 5 -102 -48q-33 -50 -30 -136q3 -87 39 -167.5t91 -119.5zM90 643q44 6 98 8q33 1 98 1q8 0 13 -5t5 -12t-5 -12.5t-13 -5.5q-64 0 -96 -1q-53 -2 -95 -8q-7 -1 -13 3t-7 11.5
t3.5 13t11.5 7.5z" />
    <glyph glyph-name="Obreve" unicode="&#x14e;" horiz-adv-x="585" 
d="M95 534q-22 -137 11 -250q13 -47 37 -96q18 -35 48 -83q63 -101 117 -89q29 6 56 48q32 51 58 147q16 60 24 121q12 86 7 155q-6 86 -39 140q-38 62 -110 81q-37 10 -69 0q-27 -8 -60 -34q-28 -22 -50 -59.5t-29 -77.5q-1 -2 -1 -3zM62 547q9 45 34 87t57 68q39 29 72 39
q41 13 88 1q86 -22 131 -97q37 -61 44 -155q5 -74 -7 -163q-9 -63 -25 -125q-54 -202 -141 -221q-41 -9 -84 23q-35 27 -70 82q-30 50 -49 87q-26 51 -40 101q-35 123 -11 269q0 2 1 4zM187 923q6 -41 26.5 -65t47.5 -25q28 -2 52 21.5t37 67.5q2 7 8 10.5t13 1.5t10.5 -8.5
t1.5 -13.5q-16 -56 -50 -87q-33 -29 -73.5 -27t-70 34.5t-37.5 85.5q-1 7 3.5 12.5t11.5 6.5t13 -3t7 -11z" />
    <glyph glyph-name="obreve" unicode="&#x14f;" 
d="M186 -21q-63 46 -103 136q-38 86 -41 178q-3 97 36 156q46 70 134 64q82 -6 122 -65q32 -49 31 -129q0 -65 -22 -140q-19 -65 -45 -110l-1 -1l-1 -2l-2 -4q-3 -6 -6 -11q-9 -14 -17 -26q-13 -20 -25 -32q-14 -14 -26 -19q-19 -7 -34 5zM207 7q5 2 14 11q9 10 21 27
q8 11 16 24l6 10l2 4l1 1l1 2q23 42 41 103q21 70 21 131q1 69 -26 109q-29 44 -95 49q-67 5 -102 -48q-33 -50 -30 -136q3 -87 39 -167.5t91 -119.5zM118 701q13 -44 35.5 -68.5t47.5 -25.5t48.5 23.5t37.5 70.5q2 7 8.5 10t13.5 1t10.5 -8.5t0.5 -13.5q-17 -56 -49 -87.5
t-71 -30.5q-38 1 -69 33t-46 86q-2 7 1.5 13.5t10.5 8.5t13 -1.5t8 -10.5z" />
    <glyph glyph-name="Ohungarumlaut" unicode="&#x150;" horiz-adv-x="585" 
d="M95 534q-22 -137 11 -250q13 -47 37 -96q18 -35 48 -83q63 -101 117 -89q29 6 56 48q32 51 58 147q16 60 24 121q12 86 7 155q-6 86 -39 140q-38 62 -110 81q-37 10 -69 0q-27 -8 -60 -34q-28 -22 -50 -59.5t-29 -77.5q-1 -2 -1 -3zM62 547q9 45 34 87t57 68q39 29 72 39
q41 13 88 1q86 -22 131 -97q37 -61 44 -155q5 -74 -7 -163q-9 -63 -25 -125q-54 -202 -141 -221q-41 -9 -84 23q-35 27 -70 82q-30 50 -49 87q-26 51 -40 101q-35 123 -11 269q0 2 1 4zM323 932q-79 -108 -103 -132q-5 -5 -12 -5t-12 5.5t-5 12.5t5 12q21 22 98 128
q5 6 12 7t13 -3.5t7 -11.5t-3 -13zM432 927q-14 -26 -49 -70q-1 0 -1 -1q-29 -36 -42 -56q-4 -6 -11 -8t-13 2t-7.5 11t1.5 13q14 22 45 60v1q34 42 47 65q4 7 11 8.5t13 -2t8 -10.5t-2 -13z" />
    <glyph glyph-name="ohungarumlaut" unicode="&#x151;" 
d="M186 -21q-63 46 -103 136q-38 86 -41 178q-3 97 36 156q46 70 134 64q82 -6 122 -65q32 -49 31 -129q0 -65 -22 -140q-19 -65 -45 -110l-1 -1l-1 -2l-2 -4q-3 -6 -6 -11q-9 -14 -17 -26q-13 -20 -25 -32q-14 -14 -26 -19q-19 -7 -34 5zM207 7q5 2 14 11q9 10 21 27
q8 11 16 24l6 10l2 4l1 1l1 2q23 42 41 103q21 70 21 131q1 69 -26 109q-29 44 -95 49q-67 5 -102 -48q-33 -50 -30 -136q3 -87 39 -167.5t91 -119.5zM247 691q-5 -16 -17 -33q-7 -11 -21 -29q-16 -21 -22 -30q-10 -16 -14 -27q-2 -7 -8 -10.5t-13 -1.5t-10.5 8t-1.5 13
q5 17 18 37q6 10 23 32q27 34 34 53q2 7 8.5 10t13.5 0.5t10 -9t0 -13.5zM349 687q-9 -16 -26 -40q-2 -2 -4 -5l-2 -2q0 -1 -0.5 -1.5t-0.5 -1.5q-33 -45 -45 -69q-3 -6 -10 -8.5t-13.5 0.5t-8.5 10t1 14q13 26 47 74h1q0 1 1 2q1 2 2 3q2 2 3 5q17 23 26 37q3 7 10 8.5
t13.5 -2.5t8 -11t-2.5 -13z" />
    <glyph glyph-name="OE" unicode="&#x152;" horiz-adv-x="704" 
d="M349 22q-25 271 -8 661q-89 -2 -124 -23q-67 -38 -100 -134q-32 -89 -26 -199q7 -109 47 -189q42 -83 105 -102q42 -12 106 -14zM578 680q-16 -3 -49 -2q-16 0 -66 3q-48 2 -77 2h-10q-4 -99 -6 -188q14 4 31 5q17 2 52 0q31 -1 48 0q26 1 47 8q7 2 13.5 -1.5t9 -10.5
t-1 -13.5t-10.5 -8.5q-26 -8 -57 -9q-18 -1 -51 0q-32 2 -47 1q-20 -2 -35 -8q-3 -244 16 -437h5q42 1 111 6q71 5 89 5q8 0 13 -5t5 -12t-5 -12.5t-12 -5.5q-17 0 -88 -5q-69 -5 -113 -6q-98 -1 -157 17q-77 23 -126 119q-44 87 -50 203q-7 116 26 213q38 108 117 153
q29 17 84 23q41 5 103 4q29 0 78 -2.5t65 -2.5q30 -1 44 1q7 1 12.5 -3.5t6.5 -11.5t-3 -12.5t-12 -6.5z" />
    <glyph glyph-name="oe" unicode="&#x153;" horiz-adv-x="726" 
d="M316 300q-7 73 -31 118q-28 49 -70 53q-40 3 -76 -35q-41 -43 -55 -116q-20 -111 10 -202q27 -81 76 -106q45 -23 84 22q45 55 63 185q-2 22 -2 44q0 19 1 37zM353 265q4 1 9 1q63 9 152 4q54 -4 72 24q16 24 4 65q-12 43 -45 75q-34 33 -71 34q-59 1 -93 -58
q-24 -44 -30 -110q2 -17 2 -35zM614 75q-23 -53 -58 -82q-51 -43 -107 -20q-63 27 -100 116q-8 18 -14 38q-20 -74 -55 -115q-26 -32 -59.5 -40t-65.5 8q-62 32 -94 127q-33 100 -11 219q15 84 63 134.5t105 45.5q61 -5 97 -71q11 -20 19 -45q7 20 17 37q43 77 123 76
q51 -1 95 -44q40 -38 55 -90q17 -57 -9 -95q-29 -44 -103 -39q-86 4 -146 -3l-12 -2l-2 -12q7 -64 29 -116q32 -75 82 -96q36 -16 70 13q29 25 49 70q3 6 9.5 9t13.5 0t9.5 -10t-0.5 -13z" />
    <glyph glyph-name="Racute" unicode="&#x154;" horiz-adv-x="501" 
d="M119 501q10 1 22 0q13 0 48 -3q29 -2 46 -3q67 -2 98 13q37 19 32 73q-4 50 -44 76q-33 22 -94 27q-36 4 -96 2q-14 -1 -20 -1q5 -53 8 -184zM94 720q7 0 36 1q62 2 101 -2q68 -6 109 -33q55 -35 60 -103q6 -76 -51 -106q-39 -20 -115 -17q-8 0 -16 1q11 -16 22 -42
q18 -40 42 -124q1 -2 2.5 -6.5t3 -9.5t3 -10.5t3 -10t2.5 -8.5t2 -6v-3q28 -95 47 -141q26 -64 53 -83q6 -4 7 -11.5t-3 -13.5t-11 -7t-13 3q-35 25 -66 99q-19 47 -47 144l-1 3q-1 2 -2 6t-2.5 9l-3 10l-3 10t-2.5 9.5t-2 6.5q-24 82 -41 120q-21 48 -39 56q-3 1 -6 4
q-13 1 -23 1q-12 1 -20 0q1 -59 1 -122q1 -132 -2 -223q-3 -105 -11 -122q-3 -6 -10 -8.5t-13.5 0.5t-9 10t0.5 14q1 1 2 8q1 9 3 23q2 29 3 76q3 91 2 222q-1 304 -12 355q-2 7 2 13t11 8q4 1 7 0zM288 907q-4 -8 -10 -19l-1 -2q-1 -1 -2.5 -3.5l-3 -5t-2.5 -5t-2 -3.5
q-29 -55 -53 -83q-5 -5 -12 -5.5t-12.5 4.5t-6 12t4.5 13q21 24 48 75q1 1 2.5 3.5t2.5 5t2.5 5t2.5 3.5l1 2l10 20q4 6 11 8t13 -1.5t8 -10.5t-1 -13z" />
    <glyph glyph-name="racute" unicode="&#x155;" horiz-adv-x="347" 
d="M76 488q11 13 24 2h1l1 -1q2 -1 7 -2l1 -1h1q9 -2 13 -5h1q24 16 54 19q38 4 58 -15q27 -24 6 -63q-3 -7 -10 -9t-13.5 1t-8.5 10t1 14q5 9 5 16q-1 3 -3 6q-9 8 -32 5q-25 -2 -45 -18q-21 -17 -23 -42q-2 -29 0 -69q2 -24 7 -76q3 -26 4 -39q7 -71 4 -116
q-4 -63 -26 -108q-4 -6 -10.5 -8.5t-13 1t-9 10.5t0.5 13q19 38 23 94q3 43 -4 111q-1 13 -3 38q-6 53 -7 78q-3 43 -1 74q3 25 17 46q-12 4 -18 9q-5 5 -5.5 12t3.5 13zM218 694q-52 -59 -80 -115q-3 -6 -10 -8.5t-13.5 1t-9 10t0.5 13.5q30 60 85 122q5 6 12.5 6.5
t13 -4.5t5.5 -12t-4 -13z" />
    <glyph glyph-name="Rcommaaccent" unicode="&#x156;" horiz-adv-x="501" 
d="M119 501q10 1 22 0q13 0 48 -3q29 -2 46 -3q67 -2 98 13q37 19 32 73q-4 50 -44 76q-33 22 -94 27q-36 4 -96 2q-14 -1 -20 -1q5 -53 8 -184zM94 720q7 0 36 1q62 2 101 -2q68 -6 109 -33q55 -35 60 -103q6 -76 -51 -106q-39 -20 -115 -17q-8 0 -16 1q11 -16 22 -42
q18 -40 42 -124q1 -2 2.5 -6.5t3 -9.5t3 -10.5t3 -10t2.5 -8.5t2 -6v-3q28 -95 47 -141q26 -64 53 -83q6 -4 7 -11.5t-3 -13.5t-11 -7t-13 3q-35 25 -66 99q-19 47 -47 144l-1 3q-1 2 -2 6t-2.5 9l-3 10l-3 10t-2.5 9.5t-2 6.5q-24 82 -41 120q-21 48 -39 56q-3 1 -6 4
q-13 1 -23 1q-12 1 -20 0q1 -59 1 -122q1 -132 -2 -223q-3 -105 -11 -122q-3 -6 -10 -8.5t-13.5 0.5t-9 10t0.5 14q1 1 2 8q1 9 3 23q2 29 3 76q3 91 2 222q-1 304 -12 355q-2 7 2 13t11 8q4 1 7 0zM245 -63q-34 -66 -51 -158q-1 -7 -7 -11t-13 -3t-11.5 7t-2.5 14
q17 96 54 167q4 7 10.5 9t13 -1.5t9 -10t-1.5 -13.5z" />
    <glyph glyph-name="rcommaaccent" unicode="&#x157;" horiz-adv-x="347" 
d="M76 488q11 13 24 2h1l1 -1q2 -1 7 -2l1 -1h1q9 -2 13 -5h1q24 16 54 19q38 4 58 -15q27 -24 6 -63q-3 -7 -10 -9t-13.5 1t-8.5 10t1 14q5 9 5 16q-1 3 -3 6q-9 8 -32 5q-25 -2 -45 -18q-21 -17 -23 -42q-2 -29 0 -69q2 -24 7 -76q3 -26 4 -39q7 -71 4 -116
q-4 -63 -26 -108q-4 -6 -10.5 -8.5t-13 1t-9 10.5t0.5 13q19 38 23 94q3 43 -4 111q-1 13 -3 38q-6 53 -7 78q-3 43 -1 74q3 25 17 46q-12 4 -18 9q-5 5 -5.5 12t3.5 13zM120 -79q-7 -24 -21 -60q-1 -3 -3 -7l-1 -4q-1 -3 -2 -4q-12 -31 -18 -49q-2 -7 -8.5 -10.5
t-13.5 -1.5t-10.5 8.5t-1.5 13.5q7 20 20 52q0 1 0.5 2.5t1.5 3.5l1 2q2 4 3 7q13 34 19 55q2 8 8 11.5t13 1.5t11 -8t2 -13z" />
    <glyph glyph-name="Rcaron" unicode="&#x158;" horiz-adv-x="501" 
d="M119 501q10 1 22 0q13 0 48 -3q29 -2 46 -3q67 -2 98 13q37 19 32 73q-4 50 -44 76q-33 22 -94 27q-36 4 -96 2q-14 -1 -20 -1q5 -53 8 -184zM94 720q7 0 36 1q62 2 101 -2q68 -6 109 -33q55 -35 60 -103q6 -76 -51 -106q-39 -20 -115 -17q-8 0 -16 1q11 -16 22 -42
q18 -40 42 -124q1 -2 2.5 -6.5t3 -9.5t3 -10.5t3 -10t2.5 -8.5t2 -6v-3q28 -95 47 -141q26 -64 53 -83q6 -4 7 -11.5t-3 -13.5t-11 -7t-13 3q-35 25 -66 99q-19 47 -47 144l-1 3q-1 2 -2 6t-2.5 9l-3 10l-3 10t-2.5 9.5t-2 6.5q-24 82 -41 120q-21 48 -39 56q-3 1 -6 4
q-13 1 -23 1q-12 1 -20 0q1 -59 1 -122q1 -132 -2 -223q-3 -105 -11 -122q-3 -6 -10 -8.5t-13.5 0.5t-9 10t0.5 14q1 1 2 8q1 9 3 23q2 29 3 76q3 91 2 222q-1 304 -12 355q-2 7 2 13t11 8q4 1 7 0zM126 906q15 -19 36 -46q19 -24 26 -32q10 -12 15 -16q2 -1 3 -2q2 1 4 3
q5 5 15 19l3 4q2 3 5.5 8.5t8.5 12.5t11 15.5t11 16t10.5 15t8.5 12.5q5 5 12 6.5t13 -3t7 -11.5t-3 -13q-5 -7 -13 -18t-15.5 -22t-14.5 -20.5t-11 -16t-5 -6.5q-11 -17 -19 -24q-12 -12 -25 -13q-14 -1 -27 9q-9 7 -21 22q-7 8 -26 33q-21 27 -37 45q-4 6 -3.5 13
t6.5 11.5t13 4t12 -6.5z" />
    <glyph glyph-name="rcaron" unicode="&#x159;" horiz-adv-x="354" 
d="M76 488q11 13 24 2h1l1 -1q2 -1 7 -2l1 -1h1q9 -2 13 -5h1q24 16 54 19q38 4 58 -15q27 -24 6 -63q-3 -7 -10 -9t-13.5 1t-8.5 10t1 14q5 9 5 16q-1 3 -3 6q-9 8 -32 5q-25 -2 -45 -18q-21 -17 -23 -42q-2 -29 0 -69q2 -24 7 -76q3 -26 4 -39q7 -71 4 -116
q-4 -63 -26 -108q-4 -6 -10.5 -8.5t-13 1t-9 10.5t0.5 13q19 38 23 94q3 43 -4 111q-1 13 -3 38q-6 53 -7 78q-3 43 -1 74q3 25 17 46q-12 4 -18 9q-5 5 -5.5 12t3.5 13zM75 715q15 -24 33 -54q1 -1 6.5 -10t6.5 -12q6 -10 10 -17q10 -15 15 -21q1 -1 2 -1t1 1q6 6 16 20
q6 7 26 37q20 31 36 53q4 6 11.5 7.5t13 -3t7 -11.5t-2.5 -13q-16 -22 -36 -52t-26 -38q-12 -18 -21 -25q-13 -13 -26.5 -12.5t-25.5 14.5q-8 8 -19 26q-5 6 -11 17q-1 3 -7 13l-6 9q-18 30 -32 53q-4 7 -2.5 14t7.5 10.5t13 2t11 -7.5z" />
    <glyph glyph-name="Sacute" unicode="&#x15a;" horiz-adv-x="478" 
d="M309 632q7 31 -21 50q-29 21 -76 20q-49 0 -81 -23q-35 -25 -34 -68q0 -53 65 -116q15 -14 40 -36l22 -19q13 -11 22 -19q87 -78 121 -173q43 -122 -34 -211q-48 -55 -114 -60q-58 -5 -111 29q-51 33 -73 85q-24 56 2 107q3 7 10 9t13.5 -1t9 -10t-1.5 -14
q-18 -36 -1 -78q18 -41 60 -68q43 -28 89 -24q52 4 91 48q64 73 27 176q-31 87 -111 159q-9 7 -22 19q-17 14 -22 19q-26 22 -41 37q-36 35 -54 64q-22 38 -22 77q-1 61 49 96q41 30 101 30q58 1 96 -26q47 -33 35 -86q-1 -7 -7 -11t-13 -2.5t-11 7.5t-3 13zM303 899
q-21 -23 -55 -54q-1 -1 -21 -20q-23 -20 -36 -33q-5 -5 -12 -5t-12 5t-5 12.5t5 12.5q13 13 36 34l1 1l2.5 2.5t3.5 3t4 3.5l4 4l3.5 3.5l2.5 2.5q33 30 53 52q5 5 12 5.5t12.5 -4.5t6 -12t-4.5 -13z" />
    <glyph glyph-name="sacute" unicode="&#x15b;" horiz-adv-x="373" 
d="M49 66q28 -30 62.5 -43.5t64 -6.5t46.5 34q21 32 21 87q0 43 -27 80q-19 27 -62 62q-21 17 -35 28q-40 34 -54 60q-21 39 -6 83q11 33 39 48t64 10q32 -4 62 -23t48 -46q5 -6 3.5 -13.5t-7.5 -11.5t-13 -2.5t-11 7.5q-15 21 -38.5 36t-48.5 19q-51 7 -65 -35
q-10 -30 3 -55q12 -21 46 -50q7 -5 35 -28q47 -38 69 -68q33 -47 33 -101q0 -66 -26 -106q-25 -39 -68 -49q-39 -10 -82.5 6.5t-78.5 53.5q-5 5 -4.5 12.5t5.5 12.5t12.5 4.5t12.5 -5.5zM249 697q-13 -15 -32 -40q-3 -4 -7 -8q0 -1 -14 -19t-18 -23q-17 -22 -25 -31
q-5 -6 -12.5 -6t-12.5 4.5t-5.5 12t4.5 12.5q8 9 24 30q3 4 17 22t14 19q4 5 7 9q20 25 33 41q5 5 12 5.5t12.5 -4t6 -11.5t-3.5 -13z" />
    <glyph glyph-name="Scircumflex" unicode="&#x15c;" horiz-adv-x="478" 
d="M309 632q7 31 -21 50q-29 21 -76 20q-49 0 -81 -23q-35 -25 -34 -68q0 -53 65 -116q15 -14 40 -36l22 -19q13 -11 22 -19q87 -78 121 -173q43 -122 -34 -211q-48 -55 -114 -60q-58 -5 -111 29q-51 33 -73 85q-24 56 2 107q3 7 10 9t13.5 -1t9 -10t-1.5 -14
q-18 -36 -1 -78q18 -41 60 -68q43 -28 89 -24q52 4 91 48q64 73 27 176q-31 87 -111 159q-9 7 -22 19q-17 14 -22 19q-26 22 -41 37q-36 35 -54 64q-22 38 -22 77q-1 61 49 96q41 30 101 30q58 1 96 -26q47 -33 35 -86q-1 -7 -7 -11t-13 -2.5t-11 7.5t-3 13zM122 806
q18 23 36 48q6 8 13 19l3 3q2 4 4.5 7.5t3.5 4.5q12 17 18 24q12 12 25 12t26 -12q7 -7 19 -23q1 -1 6 -8t11.5 -15.5t10.5 -12.5q20 -27 40 -51q5 -5 4 -12.5t-6.5 -12t-12.5 -4t-12 6.5q-21 25 -41 51q-3 5 -9.5 13.5t-12 15.5t-6.5 8q-11 14 -16 19q-5 -4 -15 -19
q-1 -1 -3.5 -4.5t-5.5 -7.5l-2 -3q-7 -11 -14 -20q-18 -25 -37 -49q-5 -6 -12 -6.5t-13 4t-6.5 11.5t4.5 13z" />
    <glyph glyph-name="scircumflex" unicode="&#x15d;" horiz-adv-x="373" 
d="M49 66q28 -30 62.5 -43.5t64 -6.5t46.5 34q21 32 21 87q0 43 -27 80q-19 27 -62 62q-21 17 -35 28q-40 34 -54 60q-21 39 -6 83q11 33 39 48t64 10q32 -4 62 -23t48 -46q5 -6 3.5 -13.5t-7.5 -11.5t-13 -2.5t-11 7.5q-15 21 -38.5 36t-48.5 19q-51 7 -65 -35
q-10 -30 3 -55q12 -21 46 -50q7 -5 35 -28q47 -38 69 -68q33 -47 33 -101q0 -66 -26 -106q-25 -39 -68 -49q-39 -10 -82.5 6.5t-78.5 53.5q-5 5 -4.5 12.5t5.5 12.5t12.5 4.5t12.5 -5.5zM61 574q18 29 34 60q6 10 12 23q1 2 5.5 10.5t4.5 9.5q11 20 16 28q11 16 24 17
q9 1 17 -3q5 -3 11 -9q7 -8 19 -26q1 -1 6 -9t11.5 -18t9.5 -14q20 -30 41 -58q4 -6 3 -13t-7 -11.5t-13 -3t-11 6.5q-21 29 -42 59q-3 5 -9.5 14.5t-12.5 18.5l-5 8q-9 14 -14 20q-4 -6 -13 -23q0 -1 -4 -9.5t-6 -10.5q-6 -13 -12 -24q-17 -31 -35 -61q-4 -6 -11 -7.5
t-13 2t-8 10.5t2 13z" />
    <glyph glyph-name="Scedilla" unicode="&#x15e;" horiz-adv-x="478" 
d="M309 632q7 31 -21 50q-29 21 -76 20q-49 0 -81 -23q-35 -25 -34 -68q0 -53 65 -116q15 -14 40 -36l22 -19q13 -11 22 -19q87 -78 121 -173q43 -122 -34 -211q-45 -52 -107 -59q-5 -13 -13 -26q-6 -10 -16 -23q13 0 27 -3q27 -6 48 -19.5t29 -31.5q19 -45 -2 -73
q-17 -23 -59 -28q-31 -3 -69.5 4.5t-66.5 21.5q-6 3 -8.5 10t1 13.5t10.5 8.5t13 -1q24 -12 57.5 -18.5t59.5 -3.5t34 14q9 12 -2 39q-4 8 -19 16.5t-34 12.5q-18 4 -31 2.5t-16 -7.5q-5 -9 -15 -9q-5 0 -9 2q-9 5 -9 16q0 4 2 8q8 14 26 39v1q17 23 23 35q-42 4 -79 28
q-51 33 -73 85q-24 56 2 107q3 7 10 9t13.5 -1t9 -10t-1.5 -14q-18 -36 -1 -78q18 -41 60 -68q43 -28 89 -24q52 4 91 48q64 73 27 176q-31 87 -111 159q-9 7 -22 19q-17 14 -22 19q-26 22 -41 37q-36 35 -54 64q-22 38 -22 77q-1 61 49 96q41 30 101 30q58 1 96 -26
q47 -33 35 -86q-1 -7 -7 -11t-13 -2.5t-11 7.5t-3 13z" />
    <glyph glyph-name="scedilla" unicode="&#x15f;" horiz-adv-x="373" 
d="M49 66q28 -30 62.5 -43.5t64 -6.5t46.5 34q21 32 21 87q0 43 -27 80q-19 27 -62 62q-21 17 -35 28q-40 34 -54 60q-21 39 -6 83q11 33 39 48t64 10q32 -4 62 -23t48 -46q5 -6 3.5 -13.5t-7.5 -11.5t-13 -2.5t-11 7.5q-15 21 -38.5 36t-48.5 19q-51 7 -65 -35
q-10 -30 3 -55q12 -21 46 -50q7 -5 35 -28q47 -38 69 -68q33 -47 33 -101q0 -66 -26 -106q-25 -39 -68 -49q-6 -2 -11 -2q-21 -29 -34 -50q13 0 26 -3q28 -6 49 -19t28 -31q20 -45 -1 -73q-18 -24 -59 -28q-31 -4 -69.5 3.5t-66.5 22.5q-7 3 -9 10t1.5 13.5t10.5 8.5t13 -1
q23 -12 56.5 -19t59.5 -4t35 15t-3 38q-3 9 -18 17.5t-34 12.5q-30 6 -43 -2q-2 -2 -4 -5q-3 -6 -10 -8t-14 1q-5 3 -7 8q-5 9 0 17q3 6 7 10q18 30 44 67q-60 10 -108 61q-5 5 -4.5 12.5t5.5 12.5t12.5 4.5t12.5 -5.5z" />
    <glyph glyph-name="Scaron" unicode="&#x160;" horiz-adv-x="478" 
d="M309 632q7 31 -21 50q-29 21 -76 20q-49 0 -81 -23q-35 -25 -34 -68q0 -53 65 -116q15 -14 40 -36l22 -19q13 -11 22 -19q87 -78 121 -173q43 -122 -34 -211q-48 -55 -114 -60q-58 -5 -111 29q-51 33 -73 85q-24 56 2 107q3 7 10 9t13.5 -1t9 -10t-1.5 -14
q-18 -36 -1 -78q18 -41 60 -68q43 -28 89 -24q52 4 91 48q64 73 27 176q-31 87 -111 159q-9 7 -22 19q-17 14 -22 19q-26 22 -41 37q-36 35 -54 64q-22 38 -22 77q-1 61 49 96q41 30 101 30q58 1 96 -26q47 -33 35 -86q-1 -7 -7 -11t-13 -2.5t-11 7.5t-3 13zM142 932
q16 -22 36 -50q1 -2 6.5 -10t6.5 -10q7 -10 11 -16q11 -13 16 -19q1 -1 2 -1t3 2q5 5 16 19q4 6 11 16q1 2 4 6.5t6 8.5l3 5q20 29 36 52q5 6 12 7t13 -3t7 -11.5t-3 -12.5q-16 -23 -36 -51l-6 -9q-6 -9 -7 -12q-7 -10 -12 -16q-12 -17 -20 -25q-13 -12 -26.5 -12t-26.5 12
q-8 7 -20 24q-4 6 -11 16q-2 2 -7.5 10t-6.5 10q-19 27 -35 49q-5 6 -4 13t7 11.5t13 3.5t12 -7z" />
    <glyph glyph-name="scaron" unicode="&#x161;" horiz-adv-x="373" 
d="M49 66q28 -30 62.5 -43.5t64 -6.5t46.5 34q21 32 21 87q0 43 -27 80q-19 27 -62 62q-21 17 -35 28q-40 34 -54 60q-21 39 -6 83q11 33 39 48t64 10q32 -4 62 -23t48 -46q5 -6 3.5 -13.5t-7.5 -11.5t-13 -2.5t-11 7.5q-15 21 -38.5 36t-48.5 19q-51 7 -65 -35
q-10 -30 3 -55q12 -21 46 -50q7 -5 35 -28q47 -38 69 -68q33 -47 33 -101q0 -66 -26 -106q-25 -39 -68 -49q-39 -10 -82.5 6.5t-78.5 53.5q-5 5 -4.5 12.5t5.5 12.5t12.5 4.5t12.5 -5.5zM94 712q19 -27 37 -55q6 -10 13 -22q1 -1 3.5 -5.5t4.5 -7.5l2 -4q9 -14 12 -19
q4 5 13 18q0 1 5 8t6 9q8 11 14 20q19 28 39 54q5 6 12 6.5t12.5 -3.5t6.5 -11.5t-3 -13.5q-20 -25 -38 -51q-6 -10 -14 -21q-1 -2 -5.5 -9t-5.5 -8q-12 -17 -18 -24q-12 -14 -25 -13q-13 0 -24 15q-6 6 -17 25l-4 8q-5 7 -6 9q-7 12 -13 22q-17 27 -36 53q-4 6 -2.5 13
t7 11.5t13 3t11.5 -7.5z" />
    <glyph glyph-name="Tcommaaccent" unicode="&#x162;" horiz-adv-x="412" 
d="M4 719q51 -3 120 -3q24 1 73 2q68 2 102 2q7 0 12 -5.5t5 -12.5t-5 -12t-12 -5q-34 0 -101 -2q-20 -1 -31 -1q0 -65 -4 -199q-2 -88 -3 -131q-3 -201 12 -341q1 -8 -3.5 -13.5t-11.5 -6t-13 4t-7 11.5q-15 142 -12 345l3 132q4 133 4 198q-4 -1 -8 -1q-70 0 -122 3
q-7 1 -12 6t-4.5 12.5t6 12t12.5 4.5zM178 -71q3 -36 -15 -84q-16 -41 -40 -75q-4 -6 -11 -7t-13 3t-7.5 11.5t3.5 12.5q22 32 36 70.5t12 65.5q0 7 4.5 12.5t11.5 6t12.5 -4t6.5 -11.5z" />
    <glyph glyph-name="tcommaaccent" unicode="&#x163;" horiz-adv-x="322" 
d="M21 474q24 10 54 13q4 0 7 1v21q2 64 -3 107q-1 7 3.5 13t12 6.5t13 -4t6.5 -11.5q5 -46 3 -112v-19q5 1 11 1q45 0 67 4q7 1 13 -3t7 -11t-3 -13t-12 -7q-24 -4 -71 -5q-8 0 -14 -1q-1 -22 -4 -69q-1 -23 -2 -36q-6 -103 -3 -163q3 -83 23 -136q5 -14 18 -24t27 -10
q10 -1 14 4q6 8 2 27q-2 7 2 13t11 7.5t13 -2.5t8 -11q8 -35 -8 -55q-15 -20 -44 -18q-24 1 -45.5 17t-30.5 40q-22 58 -25 147q-3 61 3 166q1 13 2 36q3 44 4 65h-1q-25 -2 -44 -10q-7 -3 -14 0t-9.5 9.5t0.5 13t9 9.5zM160 -77q20 -35 0 -87q-5 -15 -18 -40q-2 -5 -4 -9
q-2 -5 -4 -8q-5 -10 -7.5 -16.5t-9.5 -9t-13.5 0t-9 9.5t-0.5 13q4 8 8 18q2 3 5 9q3 7 4 8q12 24 17 37q13 37 1 58q-3 7 -1 14t8.5 10.5t13.5 1.5t10 -9z" />
    <glyph glyph-name="Tcaron" unicode="&#x164;" horiz-adv-x="412" 
d="M4 719q51 -3 120 -3q24 1 73 2q68 2 102 2q7 0 12 -5.5t5 -12.5t-5 -12t-12 -5q-34 0 -101 -2q-20 -1 -31 -1q0 -65 -4 -199q-2 -88 -3 -131q-3 -201 12 -341q1 -8 -3.5 -13.5t-11.5 -6t-13 4t-7 11.5q-15 142 -12 345l3 132q4 133 4 198q-4 -1 -8 -1q-70 0 -122 3
q-7 1 -12 6t-4.5 12.5t6 12t12.5 4.5zM86 912q26 -36 56 -86q6 -10 8 -14q3 4 9 13q31 48 59 84q4 6 11 7t13 -3.5t7 -12t-4 -13.5q-27 -34 -56 -80q-11 -17 -16 -23q-4 -5 -8 -8q-7 -5 -15 -5t-15 5q-4 3 -8 9q-5 6 -15 23q-29 49 -54 84q-4 6 -3 13t7 11.5t13 3t11 -7.5z
" />
    <glyph glyph-name="tcaron" unicode="&#x165;" horiz-adv-x="338" 
d="M21 474q24 10 54 13q4 0 7 1v21q2 64 -3 107q-1 7 3.5 13t12 6.5t13 -4t6.5 -11.5q5 -46 3 -112v-19q5 1 11 1q45 0 67 4q7 1 13 -3t7 -11t-3 -13t-12 -7q-24 -4 -71 -5q-8 0 -14 -1q-1 -22 -4 -69q-1 -23 -2 -36q-6 -103 -3 -163q3 -83 23 -136q5 -14 18 -24t27 -10
q10 -1 14 4q6 8 2 27q-2 7 2 13t11 7.5t13 -2.5t8 -11q8 -35 -8 -55q-15 -20 -44 -18q-24 1 -45.5 17t-30.5 40q-22 58 -25 147q-3 61 3 166q1 13 2 36q3 44 4 65h-1q-25 -2 -44 -10q-7 -3 -14 0t-9.5 9.5t0.5 13t9 9.5zM242 714l-6 -20q-4 -12 -6 -20q-5 -16 -8 -29
q-13 -46 -16 -72q0 -7 -5.5 -12t-13 -4t-12 6.5t-3.5 12.5q2 29 16 79q3 13 8 29q3 8 7 21q4 15 5 19q3 7 9 10.5t13 1.5t10.5 -8.5t1.5 -13.5z" />
    <glyph glyph-name="Tbar" unicode="&#x166;" horiz-adv-x="412" 
d="M36 550q24 6 55 9q16 1 39 2q2 70 2 121q-4 -1 -8 -1q-70 0 -122 3q-7 1 -12 6t-4.5 12.5t6 12t12.5 4.5q51 -3 120 -3q24 1 73 2q68 2 102 2q7 0 12 -5.5t5 -12.5t-5 -12t-12 -5q-34 0 -101 -2q-20 -1 -31 -1q0 -51 -2 -119q37 2 60 5q7 1 12.5 -3.5t7 -11.5t-3 -13
t-11.5 -7q-25 -3 -66 -5q0 -19 -1 -45q-2 -88 -3 -131q-3 -201 12 -341q1 -8 -3.5 -13.5t-11.5 -6t-13 4t-7 11.5q-15 142 -12 345l3 132q1 24 1 42q-54 -3 -85 -10q-7 -2 -13 2t-8 11t2 13t11 8z" />
    <glyph glyph-name="tbar" unicode="&#x167;" horiz-adv-x="322" 
d="M21 474q24 10 54 13q4 0 7 1v21q2 64 -3 107q-1 7 3.5 13t12 6.5t13 -4t6.5 -11.5q5 -46 3 -112v-19q5 1 11 1q45 0 67 4q7 1 13 -3t7 -11t-3 -13t-12 -7q-24 -4 -71 -5q-8 0 -14 -1q-1 -22 -4 -69q-1 -14 -1 -22h23h41h9q8 0 13 -5t5 -12t-5 -12.5t-13 -5.5h-9h-40h-26
q-5 -87 -2 -142q3 -83 23 -136q5 -14 18 -24t27 -10q10 -1 14 4q6 8 2 27q-2 7 2 13t11 7.5t13 -2.5t8 -11q8 -35 -8 -55q-15 -20 -44 -18q-24 1 -45.5 17t-30.5 40q-22 58 -25 147q-3 55 2 140q-18 -1 -34 -4q-8 -1 -13.5 3t-7 11t2.5 13t12 8q20 3 42 5q0 9 1 26
q3 44 4 65h-1q-25 -2 -44 -10q-7 -3 -14 0t-9.5 9.5t0.5 13t9 9.5z" />
    <glyph glyph-name="Utilde" unicode="&#x168;" horiz-adv-x="559" 
d="M445 700q-2 -65 8 -185q0 -6 1 -18q9 -103 10 -153q1 -84 -12 -148q-12 -58 -31 -99q-25 -53 -64 -83q-30 -23 -72.5 -30.5t-75.5 5.5q-85 33 -115 124q-21 65 -16 174q2 30 7 83q8 83 8 114q0 36 -7 107l-3 30q-5 48 -5 81q0 7 5 12t12.5 5t12.5 -5t5 -12q0 -31 5 -77
l3 -30q7 -74 7 -111q0 -32 -8 -117q-5 -52 -7 -82q-5 -102 14 -161q25 -75 95 -103q24 -9 57.5 -3t55.5 24q33 25 55 70q17 37 28 91q12 60 11 141q-1 48 -10 150q-1 12 -1 18q-10 122 -8 189q1 7 6 12t12.5 5t12.5 -5.5t4 -12.5zM140 802q24 60 63 67q15 2 35 -4
q9 -3 31 -12q37 -16 58 -14q34 4 68 48q4 6 11.5 7t13 -3.5t6.5 -12t-3 -12.5q-44 -56 -92 -62q-20 -2 -41 4q-14 3 -34.5 12.5t-27.5 11.5q-12 4 -20 2q-19 -3 -36 -46q-3 -6 -9.5 -9t-13 0t-9.5 9.5t0 13.5z" />
    <glyph glyph-name="utilde" unicode="&#x169;" horiz-adv-x="472" 
d="M107 480q10 -44 10 -101q0 -33 -5 -100l-3 -48q-6 -111 16 -178q19 -55 67 -39q22 8 43 27.5t31 42.5t17 47q11 40 16 89q1 12 2 22q1 35 4 76q2 49 4 76q3 39 8 73q1 4 1 8q0 5 3 9q6 11 18 9q8 -1 12 -7t3 -13l-2 -10q-1 -21 -7 -90q-3 -35 -5 -57v-4q-2 -48 -4 -71
q-3 -147 39 -231q3 -7 0.5 -13.5t-9 -10t-13 -1t-10.5 8.5q-23 47 -33 106q-5 -15 -12 -30q-12 -29 -38.5 -54t-56.5 -35q-37 -13 -67 2.5t-44 57.5q-15 44 -18 97q-3 40 0 95q1 16 3 49q5 65 5 97q0 53 -9 93q-1 7 2.5 13.5t10.5 8t13.5 -2.5t7.5 -11zM96 595q21 65 57 68
q15 2 33 -8q7 -4 26 -17q30 -22 46 -20q11 2 23 14q15 15 32 47q3 7 10 9.5t13.5 -1t8.5 -10.5t-1 -13q-37 -74 -81 -80q-19 -3 -40 6q-12 6 -31 19q-17 12 -23 15q-8 5 -13 4q-4 0 -9 -6q-9 -12 -17 -38q-3 -7 -9.5 -10t-13 -1t-10 8.5t-1.5 13.5z" />
    <glyph glyph-name="Umacron" unicode="&#x16a;" horiz-adv-x="559" 
d="M445 700q-2 -65 8 -185q0 -6 1 -18q9 -103 10 -153q1 -84 -12 -148q-12 -58 -31 -99q-25 -53 -64 -83q-30 -23 -72.5 -30.5t-75.5 5.5q-85 33 -115 124q-21 65 -16 174q2 30 7 83q8 83 8 114q0 36 -7 107l-3 30q-5 48 -5 81q0 7 5 12t12.5 5t12.5 -5t5 -12q0 -31 5 -77
l3 -30q7 -74 7 -111q0 -32 -8 -117q-5 -52 -7 -82q-5 -102 14 -161q25 -75 95 -103q24 -9 57.5 -3t55.5 24q33 25 55 70q17 37 28 91q12 60 11 141q-1 48 -10 150q-1 12 -1 18q-10 122 -8 189q1 7 6 12t12.5 5t12.5 -5.5t4 -12.5zM170 847q86 5 191 5q7 0 12 -5.5t5 -12.5
t-5 -12t-12 -5q-104 0 -189 -5q-7 0 -12.5 5t-6 12t4.5 12.5t12 5.5z" />
    <glyph glyph-name="umacron" unicode="&#x16b;" horiz-adv-x="472" 
d="M107 480q10 -44 10 -101q0 -33 -5 -100l-3 -48q-6 -111 16 -178q19 -55 67 -39q22 8 43 27.5t31 42.5t17 47q11 40 16 89q1 12 2 22q1 35 4 76q2 49 4 76q3 39 8 73q1 4 1 8q0 5 3 9q6 11 18 9q8 -1 12 -7t3 -13l-2 -10q-1 -21 -7 -90q-3 -35 -5 -57v-4q-2 -48 -4 -71
q-3 -147 39 -231q3 -7 0.5 -13.5t-9 -10t-13 -1t-10.5 8.5q-23 47 -33 106q-5 -15 -12 -30q-12 -29 -38.5 -54t-56.5 -35q-37 -13 -67 2.5t-44 57.5q-15 44 -18 97q-3 40 0 95q1 16 3 49q5 65 5 97q0 53 -9 93q-1 7 2.5 13.5t10.5 8t13.5 -2.5t7.5 -11zM110 640q91 6 211 6
q8 0 13 -5t5 -12.5t-5 -12.5t-13 -5q-119 0 -208 -6q-8 0 -13 4.5t-5.5 12t4 13t11.5 5.5z" />
    <glyph glyph-name="Ubreve" unicode="&#x16c;" horiz-adv-x="559" 
d="M445 700q-2 -65 8 -185q0 -6 1 -18q9 -103 10 -153q1 -84 -12 -148q-12 -58 -31 -99q-25 -53 -64 -83q-30 -23 -72.5 -30.5t-75.5 5.5q-85 33 -115 124q-21 65 -16 174q2 30 7 83q8 83 8 114q0 36 -7 107l-3 30q-5 48 -5 81q0 7 5 12t12.5 5t12.5 -5t5 -12q0 -31 5 -77
l3 -30q7 -74 7 -111q0 -32 -8 -117q-5 -52 -7 -82q-5 -102 14 -161q25 -75 95 -103q24 -9 57.5 -3t55.5 24q33 25 55 70q17 37 28 91q12 60 11 141q-1 48 -10 150q-1 12 -1 18q-10 122 -8 189q1 7 6 12t12.5 5t12.5 -5.5t4 -12.5zM187 895q13 -46 34.5 -70.5t45.5 -23.5
q25 0 48 23t38 64q3 7 9.5 10t13.5 0.5t10 -9t0 -13.5q-19 -51 -50.5 -80.5t-67.5 -29.5q-38 -1 -68.5 30.5t-45.5 88.5q-2 7 1.5 13.5t10.5 8.5t13 -1.5t8 -10.5z" />
    <glyph glyph-name="ubreve" unicode="&#x16d;" horiz-adv-x="472" 
d="M107 480q10 -44 10 -101q0 -33 -5 -100l-3 -48q-6 -111 16 -178q19 -55 67 -39q22 8 43 27.5t31 42.5t17 47q11 40 16 89q1 12 2 22q1 35 4 76q2 49 4 76q3 39 8 73q1 4 1 8q0 5 3 9q6 11 18 9q8 -1 12 -7t3 -13l-2 -10q-1 -21 -7 -90q-3 -35 -5 -57v-4q-2 -48 -4 -71
q-3 -147 39 -231q3 -7 0.5 -13.5t-9 -10t-13 -1t-10.5 8.5q-23 47 -33 106q-5 -15 -12 -30q-12 -29 -38.5 -54t-56.5 -35q-37 -13 -67 2.5t-44 57.5q-15 44 -18 97q-3 40 0 95q1 16 3 49q5 65 5 97q0 53 -9 93q-1 7 2.5 13.5t10.5 8t13.5 -2.5t7.5 -11zM126 693
q14 -42 37.5 -66t49.5 -24q27 0 50.5 23.5t37.5 67.5q2 7 8.5 10t13.5 1t10 -8.5t1 -13.5q-17 -54 -49.5 -84.5t-71.5 -30.5q-39 1 -71 31t-49 83q-2 7 1 13.5t10 9t13.5 -1t8.5 -10.5z" />
    <glyph glyph-name="Uring" unicode="&#x16e;" horiz-adv-x="559" 
d="M272 945h2q47 1 68.5 -34.5t7.5 -83.5q-23 -79 -73 -78q-41 0 -71 50q-28 48 -16 92q14 53 82 54zM445 700q-2 -65 8 -185q0 -6 1 -18q9 -103 10 -153q1 -84 -12 -148q-12 -58 -31 -99q-25 -53 -64 -83q-30 -23 -72.5 -30.5t-75.5 5.5q-85 33 -115 124q-21 65 -16 174
q2 30 7 83q8 83 8 114q0 36 -7 107l-3 30q-5 48 -5 81q0 7 5 12t12.5 5t12.5 -5t5 -12q0 -31 5 -77l3 -30q7 -74 7 -111q0 -32 -8 -117q-5 -52 -7 -82q-5 -102 14 -161q25 -75 95 -103q24 -9 57.5 -3t55.5 24q33 25 55 70q17 37 28 91q12 60 11 141q-1 48 -10 150
q-1 12 -1 18q-10 122 -8 189q1 7 6 12t12.5 5t12.5 -5.5t4 -12.5zM274 910q-43 0 -51 -28.5t13 -64.5q20 -33 41 -33q9 0 18 9q12 13 21 43q10 32 -2 54q-11 20 -38 20h-2z" />
    </font>
</defs>
</svg>
